M48
;DRILL file {KiCad 4.0.7} date 09/24/20 20:34:48
;FORMAT={-:-/ absolute / metric / decimal}
FMAT,2
METRIC,TZ
T1C0.300
T2C0.635
T3C0.762
T4C1.000
T5C1.500
T6C3.000
%
G90
G05
M71
T1
X195.45Y-134.9
X195.5Y-109.9
X203.75Y-108.5
X210.45Y-139.5
X213.Y-143.5
T2
X208.Y-115.5
X210.Y-114.5
X212.5Y-113.5
X215.Y-112.
T3
X211.Y-89.5
X211.Y-91.5
X211.Y-93.5
X211.Y-95.5
X211.Y-104.
X211.Y-106.
X211.Y-108.
X211.Y-110.
T4
X212.5Y-147.
X212.5Y-149.54
X212.5Y-152.08
X212.5Y-154.62
X212.5Y-157.16
X212.5Y-159.7
T5
X153.5Y-86.27
X153.5Y-102.5
X153.5Y-107.27
X153.5Y-123.5
X153.5Y-128.27
X153.5Y-144.5
X153.5Y-149.27
X153.5Y-165.5
X159.85Y-86.27
X159.85Y-102.5
X159.85Y-107.27
X159.85Y-123.5
X159.85Y-128.27
X159.85Y-144.5
X159.85Y-149.27
X159.85Y-165.5
X166.2Y-86.27
X166.2Y-102.5
X166.2Y-107.27
X166.2Y-123.5
X166.2Y-128.27
X166.2Y-144.5
X166.2Y-149.27
X166.2Y-165.5
T6
X154.5Y-81.
X154.5Y-171.
X214.5Y-81.
X214.5Y-171.
T0
M30
