G04 #@! TF.FileFunction,Copper,L1,Top,Signal*
%FSLAX46Y46*%
G04 Gerber Fmt 4.6, Leading zero omitted, Abs format (unit mm)*
G04 Created by KiCad (PCBNEW 4.0.7) date 09/24/20 20:34:46*
%MOMM*%
%LPD*%
G01*
G04 APERTURE LIST*
%ADD10C,0.200000*%
%ADD11C,3.000000*%
%ADD12C,1.524000*%
%ADD13R,1.200000X0.750000*%
%ADD14R,1.700000X1.700000*%
%ADD15O,1.700000X1.700000*%
%ADD16R,0.900000X1.200000*%
%ADD17O,1.998980X2.748280*%
%ADD18O,2.032000X1.016000*%
%ADD19C,1.143000*%
%ADD20R,3.000000X3.000000*%
%ADD21C,0.600000*%
%ADD22C,0.500000*%
%ADD23C,0.889000*%
%ADD24C,0.600000*%
%ADD25C,0.500000*%
%ADD26C,1.000000*%
%ADD27C,0.400000*%
%ADD28C,0.254000*%
G04 APERTURE END LIST*
D10*
D11*
X214500000Y-81000000D03*
X214500000Y-171000000D03*
X154500000Y-171000000D03*
X154500000Y-81000000D03*
D12*
X211000000Y-104000000D03*
X211000000Y-106000000D03*
X211000000Y-108000000D03*
X211000000Y-110000000D03*
D13*
X215450000Y-141000000D03*
X213550000Y-141000000D03*
X210550000Y-138500000D03*
X212450000Y-138500000D03*
D14*
X212500000Y-147000000D03*
D15*
X212500000Y-149540000D03*
X212500000Y-152080000D03*
X212500000Y-154620000D03*
X212500000Y-157160000D03*
X212500000Y-159700000D03*
D12*
X211000000Y-89500000D03*
X211000000Y-91500000D03*
X211000000Y-93500000D03*
X211000000Y-95500000D03*
D16*
X203500000Y-104900000D03*
X203500000Y-107100000D03*
X206500000Y-106900000D03*
X206500000Y-109100000D03*
D17*
X215617820Y-133997680D03*
X213077820Y-133997680D03*
X210537820Y-133997680D03*
X207997820Y-133997680D03*
X205457820Y-133997680D03*
X202917820Y-133997680D03*
X200377820Y-133997680D03*
X200377820Y-117833120D03*
X202917820Y-117833120D03*
X205457820Y-117833120D03*
X207997820Y-117833120D03*
X210537820Y-117833120D03*
X213077820Y-117833120D03*
X215617820Y-117833120D03*
D18*
X199300000Y-124700000D03*
X199300000Y-127250000D03*
D19*
X216304187Y-124698803D03*
X216304187Y-127238803D03*
X213764187Y-124698803D03*
X213764187Y-127238803D03*
D11*
X159850000Y-86270000D03*
X166200000Y-86270000D03*
X153500000Y-86270000D03*
X159850000Y-102500000D03*
X166200000Y-102500000D03*
D20*
X153500000Y-102500000D03*
D11*
X159850000Y-107270000D03*
X166200000Y-107270000D03*
X153500000Y-107270000D03*
X159850000Y-123500000D03*
X166200000Y-123500000D03*
D20*
X153500000Y-123500000D03*
D11*
X159850000Y-128270000D03*
X166200000Y-128270000D03*
X153500000Y-128270000D03*
X159850000Y-144500000D03*
X166200000Y-144500000D03*
D20*
X153500000Y-144500000D03*
D11*
X159850000Y-149270000D03*
X166200000Y-149270000D03*
X153500000Y-149270000D03*
X159850000Y-165500000D03*
X166200000Y-165500000D03*
D20*
X153500000Y-165500000D03*
D21*
X210450000Y-139500000D03*
X195450000Y-134900000D03*
X195500000Y-109900000D03*
D22*
X203750000Y-108500000D03*
X213000000Y-143500000D03*
D23*
X215000000Y-112000000D03*
X212500000Y-113500000D03*
X210000000Y-114500000D03*
X208000000Y-115500000D03*
D24*
X210550000Y-139400000D02*
X210550000Y-138500000D01*
X210450000Y-139500000D02*
X210550000Y-139400000D01*
X195450000Y-109950000D02*
X195450000Y-134900000D01*
X195500000Y-109900000D02*
X195450000Y-109950000D01*
X203500000Y-107100000D02*
X203500000Y-108250000D01*
X203500000Y-108250000D02*
X203750000Y-108500000D01*
X206500000Y-109100000D02*
X208350000Y-109100000D01*
X209450000Y-108000000D02*
X211000000Y-108000000D01*
X208350000Y-109100000D02*
X209450000Y-108000000D01*
D25*
X210550000Y-138500000D02*
X210550000Y-148550000D01*
X210550000Y-148550000D02*
X211540000Y-149540000D01*
X211540000Y-149540000D02*
X212500000Y-149540000D01*
X210537820Y-133997680D02*
X210537820Y-138487820D01*
X210537820Y-138487820D02*
X210550000Y-138500000D01*
D26*
X213550000Y-141000000D02*
X213550000Y-142950000D01*
X213550000Y-142950000D02*
X213000000Y-143500000D01*
X213550000Y-141000000D02*
X213550000Y-140550000D01*
X212450000Y-139450000D02*
X212450000Y-138500000D01*
X213550000Y-140550000D02*
X212450000Y-139450000D01*
X213077820Y-133997680D02*
X213077820Y-137872180D01*
X213077820Y-137872180D02*
X212450000Y-138500000D01*
D27*
X206500000Y-106900000D02*
X208100000Y-106900000D01*
X209000000Y-106000000D02*
X211000000Y-106000000D01*
X208100000Y-106900000D02*
X209000000Y-106000000D01*
X205457820Y-117833120D02*
X205457820Y-111457820D01*
X205000000Y-108000000D02*
X206100000Y-106900000D01*
X205000000Y-111000000D02*
X205000000Y-108000000D01*
X205457820Y-111457820D02*
X205000000Y-111000000D01*
X206100000Y-106900000D02*
X206500000Y-106900000D01*
X203500000Y-104900000D02*
X205100000Y-104900000D01*
X206000000Y-104000000D02*
X211000000Y-104000000D01*
X205100000Y-104900000D02*
X206000000Y-104000000D01*
X202917820Y-117833120D02*
X202917820Y-109917820D01*
X202000000Y-106000000D02*
X203100000Y-104900000D01*
X202000000Y-109000000D02*
X202000000Y-106000000D01*
X202917820Y-109917820D02*
X202000000Y-109000000D01*
X203100000Y-104900000D02*
X203500000Y-104900000D01*
D25*
X215450000Y-141000000D02*
X215450000Y-144050000D01*
X215450000Y-144050000D02*
X212500000Y-147000000D01*
X215617820Y-133997680D02*
X215617820Y-140832180D01*
X215617820Y-140832180D02*
X215450000Y-141000000D01*
D24*
X215617820Y-117833120D02*
X215617820Y-112617820D01*
X215617820Y-112617820D02*
X215000000Y-112000000D01*
X213077820Y-117833120D02*
X213077820Y-114077820D01*
X213077820Y-114077820D02*
X212500000Y-113500000D01*
X210537820Y-117833120D02*
X210537820Y-115037820D01*
X210537820Y-115037820D02*
X210000000Y-114500000D01*
X207997820Y-117833120D02*
X207997820Y-115502180D01*
X207997820Y-115502180D02*
X208000000Y-115500000D01*
D25*
X207997820Y-133997680D02*
X207997820Y-148497820D01*
X211580000Y-152080000D02*
X212500000Y-152080000D01*
X207997820Y-148497820D02*
X211580000Y-152080000D01*
X205457820Y-133997680D02*
X205457820Y-149957820D01*
X210120000Y-154620000D02*
X212500000Y-154620000D01*
X205457820Y-149957820D02*
X210120000Y-154620000D01*
X202917820Y-133997680D02*
X202917820Y-150917820D01*
X209160000Y-157160000D02*
X212500000Y-157160000D01*
X202917820Y-150917820D02*
X209160000Y-157160000D01*
D27*
X200377820Y-133997680D02*
X200377820Y-136622180D01*
X207000000Y-89500000D02*
X211000000Y-89500000D01*
X193500000Y-103000000D02*
X207000000Y-89500000D01*
X193500000Y-135500000D02*
X193500000Y-103000000D01*
X196500000Y-138500000D02*
X193500000Y-135500000D01*
X198500000Y-138500000D02*
X196500000Y-138500000D01*
X200377820Y-136622180D02*
X198500000Y-138500000D01*
X200377820Y-117833120D02*
X200377820Y-98622180D01*
X207500000Y-91500000D02*
X211000000Y-91500000D01*
X200377820Y-98622180D02*
X207500000Y-91500000D01*
D28*
G36*
X212274236Y-79509981D02*
X211873457Y-80475165D01*
X211872545Y-81520250D01*
X212271639Y-82486132D01*
X213009981Y-83225764D01*
X213975165Y-83626543D01*
X215020250Y-83627455D01*
X215986132Y-83228361D01*
X216725764Y-82490019D01*
X217122494Y-81534586D01*
X217123000Y-81537131D01*
X217123000Y-124327629D01*
X217066343Y-124190508D01*
X216813811Y-123937536D01*
X216483694Y-123800459D01*
X216126248Y-123800147D01*
X215795892Y-123936647D01*
X215542920Y-124189179D01*
X215405843Y-124519296D01*
X215405531Y-124876742D01*
X215542031Y-125207098D01*
X215794563Y-125460070D01*
X216124680Y-125597147D01*
X216482126Y-125597459D01*
X216812482Y-125460959D01*
X217065454Y-125208427D01*
X217123000Y-125069841D01*
X217123000Y-126867629D01*
X217066343Y-126730508D01*
X216813811Y-126477536D01*
X216483694Y-126340459D01*
X216126248Y-126340147D01*
X215795892Y-126476647D01*
X215542920Y-126729179D01*
X215405843Y-127059296D01*
X215405531Y-127416742D01*
X215542031Y-127747098D01*
X215794563Y-128000070D01*
X216124680Y-128137147D01*
X216482126Y-128137459D01*
X216812482Y-128000959D01*
X217065454Y-127748427D01*
X217123000Y-127609841D01*
X217123000Y-170462869D01*
X217122181Y-170466986D01*
X216728361Y-169513868D01*
X215990019Y-168774236D01*
X215024835Y-168373457D01*
X213979750Y-168372545D01*
X213013868Y-168771639D01*
X212274236Y-169509981D01*
X211873457Y-170475165D01*
X211872545Y-171520250D01*
X212271639Y-172486132D01*
X212907396Y-173123000D01*
X156091677Y-173123000D01*
X156725764Y-172490019D01*
X157126543Y-171524835D01*
X157127455Y-170479750D01*
X156728361Y-169513868D01*
X155990019Y-168774236D01*
X155024835Y-168373457D01*
X153979750Y-168372545D01*
X153013868Y-168771639D01*
X152274236Y-169509981D01*
X151877506Y-170465414D01*
X151877000Y-170462869D01*
X151877000Y-167635000D01*
X153214250Y-167635000D01*
X153373000Y-167476250D01*
X153373000Y-165627000D01*
X153627000Y-165627000D01*
X153627000Y-167476250D01*
X153785750Y-167635000D01*
X155126310Y-167635000D01*
X155359699Y-167538327D01*
X155538327Y-167359698D01*
X155635000Y-167126309D01*
X155635000Y-165861818D01*
X158022684Y-165861818D01*
X158300242Y-166533560D01*
X158813736Y-167047952D01*
X159484993Y-167326682D01*
X160211818Y-167327316D01*
X160883560Y-167049758D01*
X161397952Y-166536264D01*
X161676682Y-165865007D01*
X161676684Y-165861818D01*
X164372684Y-165861818D01*
X164650242Y-166533560D01*
X165163736Y-167047952D01*
X165834993Y-167326682D01*
X166561818Y-167327316D01*
X167233560Y-167049758D01*
X167747952Y-166536264D01*
X168026682Y-165865007D01*
X168027316Y-165138182D01*
X167749758Y-164466440D01*
X167236264Y-163952048D01*
X166565007Y-163673318D01*
X165838182Y-163672684D01*
X165166440Y-163950242D01*
X164652048Y-164463736D01*
X164373318Y-165134993D01*
X164372684Y-165861818D01*
X161676684Y-165861818D01*
X161677316Y-165138182D01*
X161399758Y-164466440D01*
X160886264Y-163952048D01*
X160215007Y-163673318D01*
X159488182Y-163672684D01*
X158816440Y-163950242D01*
X158302048Y-164463736D01*
X158023318Y-165134993D01*
X158022684Y-165861818D01*
X155635000Y-165861818D01*
X155635000Y-165785750D01*
X155476250Y-165627000D01*
X153627000Y-165627000D01*
X153373000Y-165627000D01*
X153353000Y-165627000D01*
X153353000Y-165373000D01*
X153373000Y-165373000D01*
X153373000Y-163523750D01*
X153627000Y-163523750D01*
X153627000Y-165373000D01*
X155476250Y-165373000D01*
X155635000Y-165214250D01*
X155635000Y-163873691D01*
X155538327Y-163640302D01*
X155359699Y-163461673D01*
X155126310Y-163365000D01*
X153785750Y-163365000D01*
X153627000Y-163523750D01*
X153373000Y-163523750D01*
X153214250Y-163365000D01*
X151877000Y-163365000D01*
X151877000Y-160056890D01*
X211058524Y-160056890D01*
X211228355Y-160466924D01*
X211618642Y-160895183D01*
X212143108Y-161141486D01*
X212373000Y-161020819D01*
X212373000Y-159827000D01*
X212627000Y-159827000D01*
X212627000Y-161020819D01*
X212856892Y-161141486D01*
X213381358Y-160895183D01*
X213771645Y-160466924D01*
X213941476Y-160056890D01*
X213820155Y-159827000D01*
X212627000Y-159827000D01*
X212373000Y-159827000D01*
X211179845Y-159827000D01*
X211058524Y-160056890D01*
X151877000Y-160056890D01*
X151877000Y-150126301D01*
X151950242Y-150303560D01*
X152463736Y-150817952D01*
X153134993Y-151096682D01*
X153861818Y-151097316D01*
X154533560Y-150819758D01*
X155047952Y-150306264D01*
X155326682Y-149635007D01*
X155326684Y-149631818D01*
X158022684Y-149631818D01*
X158300242Y-150303560D01*
X158813736Y-150817952D01*
X159484993Y-151096682D01*
X160211818Y-151097316D01*
X160883560Y-150819758D01*
X161397952Y-150306264D01*
X161676682Y-149635007D01*
X161676684Y-149631818D01*
X164372684Y-149631818D01*
X164650242Y-150303560D01*
X165163736Y-150817952D01*
X165834993Y-151096682D01*
X166561818Y-151097316D01*
X167233560Y-150819758D01*
X167747952Y-150306264D01*
X168026682Y-149635007D01*
X168027316Y-148908182D01*
X167749758Y-148236440D01*
X167236264Y-147722048D01*
X166565007Y-147443318D01*
X165838182Y-147442684D01*
X165166440Y-147720242D01*
X164652048Y-148233736D01*
X164373318Y-148904993D01*
X164372684Y-149631818D01*
X161676684Y-149631818D01*
X161677316Y-148908182D01*
X161399758Y-148236440D01*
X160886264Y-147722048D01*
X160215007Y-147443318D01*
X159488182Y-147442684D01*
X158816440Y-147720242D01*
X158302048Y-148233736D01*
X158023318Y-148904993D01*
X158022684Y-149631818D01*
X155326684Y-149631818D01*
X155327316Y-148908182D01*
X155049758Y-148236440D01*
X154536264Y-147722048D01*
X153865007Y-147443318D01*
X153138182Y-147442684D01*
X152466440Y-147720242D01*
X151952048Y-148233736D01*
X151877000Y-148414472D01*
X151877000Y-146635000D01*
X153214250Y-146635000D01*
X153373000Y-146476250D01*
X153373000Y-144627000D01*
X153627000Y-144627000D01*
X153627000Y-146476250D01*
X153785750Y-146635000D01*
X155126310Y-146635000D01*
X155359699Y-146538327D01*
X155538327Y-146359698D01*
X155635000Y-146126309D01*
X155635000Y-144861818D01*
X158022684Y-144861818D01*
X158300242Y-145533560D01*
X158813736Y-146047952D01*
X159484993Y-146326682D01*
X160211818Y-146327316D01*
X160883560Y-146049758D01*
X161397952Y-145536264D01*
X161676682Y-144865007D01*
X161676684Y-144861818D01*
X164372684Y-144861818D01*
X164650242Y-145533560D01*
X165163736Y-146047952D01*
X165834993Y-146326682D01*
X166561818Y-146327316D01*
X167233560Y-146049758D01*
X167747952Y-145536264D01*
X168026682Y-144865007D01*
X168027316Y-144138182D01*
X167749758Y-143466440D01*
X167236264Y-142952048D01*
X166565007Y-142673318D01*
X165838182Y-142672684D01*
X165166440Y-142950242D01*
X164652048Y-143463736D01*
X164373318Y-144134993D01*
X164372684Y-144861818D01*
X161676684Y-144861818D01*
X161677316Y-144138182D01*
X161399758Y-143466440D01*
X160886264Y-142952048D01*
X160215007Y-142673318D01*
X159488182Y-142672684D01*
X158816440Y-142950242D01*
X158302048Y-143463736D01*
X158023318Y-144134993D01*
X158022684Y-144861818D01*
X155635000Y-144861818D01*
X155635000Y-144785750D01*
X155476250Y-144627000D01*
X153627000Y-144627000D01*
X153373000Y-144627000D01*
X153353000Y-144627000D01*
X153353000Y-144373000D01*
X153373000Y-144373000D01*
X153373000Y-142523750D01*
X153627000Y-142523750D01*
X153627000Y-144373000D01*
X155476250Y-144373000D01*
X155635000Y-144214250D01*
X155635000Y-142873691D01*
X155538327Y-142640302D01*
X155359699Y-142461673D01*
X155126310Y-142365000D01*
X153785750Y-142365000D01*
X153627000Y-142523750D01*
X153373000Y-142523750D01*
X153214250Y-142365000D01*
X151877000Y-142365000D01*
X151877000Y-129126301D01*
X151950242Y-129303560D01*
X152463736Y-129817952D01*
X153134993Y-130096682D01*
X153861818Y-130097316D01*
X154533560Y-129819758D01*
X155047952Y-129306264D01*
X155326682Y-128635007D01*
X155326684Y-128631818D01*
X158022684Y-128631818D01*
X158300242Y-129303560D01*
X158813736Y-129817952D01*
X159484993Y-130096682D01*
X160211818Y-130097316D01*
X160883560Y-129819758D01*
X161397952Y-129306264D01*
X161676682Y-128635007D01*
X161676684Y-128631818D01*
X164372684Y-128631818D01*
X164650242Y-129303560D01*
X165163736Y-129817952D01*
X165834993Y-130096682D01*
X166561818Y-130097316D01*
X167233560Y-129819758D01*
X167747952Y-129306264D01*
X168026682Y-128635007D01*
X168027316Y-127908182D01*
X167749758Y-127236440D01*
X167236264Y-126722048D01*
X166565007Y-126443318D01*
X165838182Y-126442684D01*
X165166440Y-126720242D01*
X164652048Y-127233736D01*
X164373318Y-127904993D01*
X164372684Y-128631818D01*
X161676684Y-128631818D01*
X161677316Y-127908182D01*
X161399758Y-127236440D01*
X160886264Y-126722048D01*
X160215007Y-126443318D01*
X159488182Y-126442684D01*
X158816440Y-126720242D01*
X158302048Y-127233736D01*
X158023318Y-127904993D01*
X158022684Y-128631818D01*
X155326684Y-128631818D01*
X155327316Y-127908182D01*
X155049758Y-127236440D01*
X154536264Y-126722048D01*
X153865007Y-126443318D01*
X153138182Y-126442684D01*
X152466440Y-126720242D01*
X151952048Y-127233736D01*
X151877000Y-127414472D01*
X151877000Y-125635000D01*
X153214250Y-125635000D01*
X153373000Y-125476250D01*
X153373000Y-123627000D01*
X153627000Y-123627000D01*
X153627000Y-125476250D01*
X153785750Y-125635000D01*
X155126310Y-125635000D01*
X155359699Y-125538327D01*
X155538327Y-125359698D01*
X155635000Y-125126309D01*
X155635000Y-123861818D01*
X158022684Y-123861818D01*
X158300242Y-124533560D01*
X158813736Y-125047952D01*
X159484993Y-125326682D01*
X160211818Y-125327316D01*
X160883560Y-125049758D01*
X161397952Y-124536264D01*
X161676682Y-123865007D01*
X161676684Y-123861818D01*
X164372684Y-123861818D01*
X164650242Y-124533560D01*
X165163736Y-125047952D01*
X165834993Y-125326682D01*
X166561818Y-125327316D01*
X167233560Y-125049758D01*
X167747952Y-124536264D01*
X168026682Y-123865007D01*
X168027316Y-123138182D01*
X167749758Y-122466440D01*
X167236264Y-121952048D01*
X166565007Y-121673318D01*
X165838182Y-121672684D01*
X165166440Y-121950242D01*
X164652048Y-122463736D01*
X164373318Y-123134993D01*
X164372684Y-123861818D01*
X161676684Y-123861818D01*
X161677316Y-123138182D01*
X161399758Y-122466440D01*
X160886264Y-121952048D01*
X160215007Y-121673318D01*
X159488182Y-121672684D01*
X158816440Y-121950242D01*
X158302048Y-122463736D01*
X158023318Y-123134993D01*
X158022684Y-123861818D01*
X155635000Y-123861818D01*
X155635000Y-123785750D01*
X155476250Y-123627000D01*
X153627000Y-123627000D01*
X153373000Y-123627000D01*
X153353000Y-123627000D01*
X153353000Y-123373000D01*
X153373000Y-123373000D01*
X153373000Y-121523750D01*
X153627000Y-121523750D01*
X153627000Y-123373000D01*
X155476250Y-123373000D01*
X155635000Y-123214250D01*
X155635000Y-121873691D01*
X155538327Y-121640302D01*
X155359699Y-121461673D01*
X155126310Y-121365000D01*
X153785750Y-121365000D01*
X153627000Y-121523750D01*
X153373000Y-121523750D01*
X153214250Y-121365000D01*
X151877000Y-121365000D01*
X151877000Y-108126301D01*
X151950242Y-108303560D01*
X152463736Y-108817952D01*
X153134993Y-109096682D01*
X153861818Y-109097316D01*
X154533560Y-108819758D01*
X155047952Y-108306264D01*
X155326682Y-107635007D01*
X155326684Y-107631818D01*
X158022684Y-107631818D01*
X158300242Y-108303560D01*
X158813736Y-108817952D01*
X159484993Y-109096682D01*
X160211818Y-109097316D01*
X160883560Y-108819758D01*
X161397952Y-108306264D01*
X161676682Y-107635007D01*
X161676684Y-107631818D01*
X164372684Y-107631818D01*
X164650242Y-108303560D01*
X165163736Y-108817952D01*
X165834993Y-109096682D01*
X166561818Y-109097316D01*
X167233560Y-108819758D01*
X167747952Y-108306264D01*
X168026682Y-107635007D01*
X168027316Y-106908182D01*
X167749758Y-106236440D01*
X167236264Y-105722048D01*
X166565007Y-105443318D01*
X165838182Y-105442684D01*
X165166440Y-105720242D01*
X164652048Y-106233736D01*
X164373318Y-106904993D01*
X164372684Y-107631818D01*
X161676684Y-107631818D01*
X161677316Y-106908182D01*
X161399758Y-106236440D01*
X160886264Y-105722048D01*
X160215007Y-105443318D01*
X159488182Y-105442684D01*
X158816440Y-105720242D01*
X158302048Y-106233736D01*
X158023318Y-106904993D01*
X158022684Y-107631818D01*
X155326684Y-107631818D01*
X155327316Y-106908182D01*
X155049758Y-106236440D01*
X154536264Y-105722048D01*
X153865007Y-105443318D01*
X153138182Y-105442684D01*
X152466440Y-105720242D01*
X151952048Y-106233736D01*
X151877000Y-106414472D01*
X151877000Y-104635000D01*
X153214250Y-104635000D01*
X153373000Y-104476250D01*
X153373000Y-102627000D01*
X153627000Y-102627000D01*
X153627000Y-104476250D01*
X153785750Y-104635000D01*
X155126310Y-104635000D01*
X155359699Y-104538327D01*
X155538327Y-104359698D01*
X155635000Y-104126309D01*
X155635000Y-102861818D01*
X158022684Y-102861818D01*
X158300242Y-103533560D01*
X158813736Y-104047952D01*
X159484993Y-104326682D01*
X160211818Y-104327316D01*
X160883560Y-104049758D01*
X161397952Y-103536264D01*
X161676682Y-102865007D01*
X161676684Y-102861818D01*
X164372684Y-102861818D01*
X164650242Y-103533560D01*
X165163736Y-104047952D01*
X165834993Y-104326682D01*
X166561818Y-104327316D01*
X167233560Y-104049758D01*
X167747952Y-103536264D01*
X167970628Y-103000000D01*
X192973000Y-103000000D01*
X192973000Y-135500000D01*
X193013115Y-135701675D01*
X193127355Y-135872645D01*
X196127355Y-138872645D01*
X196298326Y-138986885D01*
X196500000Y-139027000D01*
X198500000Y-139027000D01*
X198701675Y-138986885D01*
X198872645Y-138872645D01*
X200750466Y-136994825D01*
X200864705Y-136823854D01*
X200904820Y-136622180D01*
X200904820Y-135618229D01*
X201315790Y-135343627D01*
X201603337Y-134913283D01*
X201647820Y-134689652D01*
X201692303Y-134913283D01*
X201979850Y-135343627D01*
X202340820Y-135584820D01*
X202340820Y-150917815D01*
X202340819Y-150917820D01*
X202384742Y-151138628D01*
X202509819Y-151325821D01*
X208751997Y-157567998D01*
X208751999Y-157568001D01*
X208939192Y-157693078D01*
X209160000Y-157737001D01*
X209160005Y-157737000D01*
X211474114Y-157737000D01*
X211644676Y-157992265D01*
X212026523Y-158247406D01*
X212125035Y-158267001D01*
X211618642Y-158504817D01*
X211228355Y-158933076D01*
X211058524Y-159343110D01*
X211179845Y-159573000D01*
X212373000Y-159573000D01*
X212373000Y-159553000D01*
X212627000Y-159553000D01*
X212627000Y-159573000D01*
X213820155Y-159573000D01*
X213941476Y-159343110D01*
X213771645Y-158933076D01*
X213381358Y-158504817D01*
X212874965Y-158267001D01*
X212973477Y-158247406D01*
X213355324Y-157992265D01*
X213610465Y-157610418D01*
X213700059Y-157160000D01*
X213610465Y-156709582D01*
X213355324Y-156327735D01*
X212973477Y-156072594D01*
X212523059Y-155983000D01*
X212476941Y-155983000D01*
X212026523Y-156072594D01*
X211644676Y-156327735D01*
X211474114Y-156583000D01*
X209399001Y-156583000D01*
X203494820Y-150678818D01*
X203494820Y-135584820D01*
X203855790Y-135343627D01*
X204143337Y-134913283D01*
X204187820Y-134689652D01*
X204232303Y-134913283D01*
X204519850Y-135343627D01*
X204880820Y-135584820D01*
X204880820Y-149957815D01*
X204880819Y-149957820D01*
X204924742Y-150178628D01*
X205049819Y-150365821D01*
X209711997Y-155027998D01*
X209711999Y-155028001D01*
X209899192Y-155153078D01*
X210120000Y-155197000D01*
X211474114Y-155197000D01*
X211644676Y-155452265D01*
X212026523Y-155707406D01*
X212476941Y-155797000D01*
X212523059Y-155797000D01*
X212973477Y-155707406D01*
X213355324Y-155452265D01*
X213610465Y-155070418D01*
X213700059Y-154620000D01*
X213610465Y-154169582D01*
X213355324Y-153787735D01*
X212973477Y-153532594D01*
X212523059Y-153443000D01*
X212476941Y-153443000D01*
X212026523Y-153532594D01*
X211644676Y-153787735D01*
X211474114Y-154043000D01*
X210359001Y-154043000D01*
X206034820Y-149718818D01*
X206034820Y-135584820D01*
X206395790Y-135343627D01*
X206683337Y-134913283D01*
X206727820Y-134689652D01*
X206772303Y-134913283D01*
X207059850Y-135343627D01*
X207420820Y-135584820D01*
X207420820Y-148497815D01*
X207420819Y-148497820D01*
X207464742Y-148718628D01*
X207589819Y-148905821D01*
X211171997Y-152487998D01*
X211171999Y-152488001D01*
X211359192Y-152613078D01*
X211457884Y-152632710D01*
X211644676Y-152912265D01*
X212026523Y-153167406D01*
X212476941Y-153257000D01*
X212523059Y-153257000D01*
X212973477Y-153167406D01*
X213355324Y-152912265D01*
X213610465Y-152530418D01*
X213700059Y-152080000D01*
X213610465Y-151629582D01*
X213355324Y-151247735D01*
X212973477Y-150992594D01*
X212523059Y-150903000D01*
X212476941Y-150903000D01*
X212026523Y-150992594D01*
X211644676Y-151247735D01*
X211612256Y-151296255D01*
X208574820Y-148258818D01*
X208574820Y-135584820D01*
X208935790Y-135343627D01*
X209223337Y-134913283D01*
X209267820Y-134689652D01*
X209312303Y-134913283D01*
X209599850Y-135343627D01*
X209960820Y-135584820D01*
X209960820Y-137791594D01*
X209950000Y-137791594D01*
X209828821Y-137814395D01*
X209717526Y-137886012D01*
X209642862Y-137995286D01*
X209616594Y-138125000D01*
X209616594Y-138875000D01*
X209639395Y-138996179D01*
X209711012Y-139107474D01*
X209820286Y-139182138D01*
X209896660Y-139197604D01*
X209823109Y-139374735D01*
X209822891Y-139624171D01*
X209918145Y-139854703D01*
X209973000Y-139909654D01*
X209973000Y-148549995D01*
X209972999Y-148550000D01*
X210016922Y-148770808D01*
X210141999Y-148958001D01*
X211131997Y-149947998D01*
X211131999Y-149948001D01*
X211244213Y-150022979D01*
X211319191Y-150073078D01*
X211464015Y-150101886D01*
X211644676Y-150372265D01*
X212026523Y-150627406D01*
X212476941Y-150717000D01*
X212523059Y-150717000D01*
X212973477Y-150627406D01*
X213355324Y-150372265D01*
X213610465Y-149990418D01*
X213700059Y-149540000D01*
X213610465Y-149089582D01*
X213355324Y-148707735D01*
X212973477Y-148452594D01*
X212523059Y-148363000D01*
X212476941Y-148363000D01*
X212026523Y-148452594D01*
X211644676Y-148707735D01*
X211596234Y-148780233D01*
X211127000Y-148310998D01*
X211127000Y-146150000D01*
X211316594Y-146150000D01*
X211316594Y-147850000D01*
X211339395Y-147971179D01*
X211411012Y-148082474D01*
X211520286Y-148157138D01*
X211650000Y-148183406D01*
X213350000Y-148183406D01*
X213471179Y-148160605D01*
X213582474Y-148088988D01*
X213657138Y-147979714D01*
X213683406Y-147850000D01*
X213683406Y-146632596D01*
X215858001Y-144458001D01*
X215983078Y-144270808D01*
X216027001Y-144050000D01*
X216027000Y-144049995D01*
X216027000Y-141708406D01*
X216050000Y-141708406D01*
X216171179Y-141685605D01*
X216282474Y-141613988D01*
X216357138Y-141504714D01*
X216383406Y-141375000D01*
X216383406Y-140625000D01*
X216360605Y-140503821D01*
X216288988Y-140392526D01*
X216194820Y-140328184D01*
X216194820Y-135584820D01*
X216555790Y-135343627D01*
X216843337Y-134913283D01*
X216944310Y-134405657D01*
X216944310Y-133589703D01*
X216843337Y-133082077D01*
X216555790Y-132651733D01*
X216125446Y-132364186D01*
X215617820Y-132263213D01*
X215110194Y-132364186D01*
X214679850Y-132651733D01*
X214532747Y-132871887D01*
X214143776Y-132377468D01*
X213585979Y-132064357D01*
X213458174Y-132033411D01*
X213204820Y-132152765D01*
X213204820Y-133870680D01*
X213224820Y-133870680D01*
X213224820Y-134124680D01*
X213204820Y-134124680D01*
X213204820Y-135842595D01*
X213458174Y-135961949D01*
X213585979Y-135931003D01*
X214143776Y-135617892D01*
X214532747Y-135123473D01*
X214679850Y-135343627D01*
X215040820Y-135584820D01*
X215040820Y-140291594D01*
X214850000Y-140291594D01*
X214728821Y-140314395D01*
X214712905Y-140324637D01*
X214688327Y-140265301D01*
X214509698Y-140086673D01*
X214276309Y-139990000D01*
X213835750Y-139990000D01*
X213677000Y-140148750D01*
X213677000Y-140873000D01*
X213697000Y-140873000D01*
X213697000Y-141127000D01*
X213677000Y-141127000D01*
X213677000Y-141851250D01*
X213835750Y-142010000D01*
X214276309Y-142010000D01*
X214509698Y-141913327D01*
X214688327Y-141734699D01*
X214712346Y-141676713D01*
X214720286Y-141682138D01*
X214850000Y-141708406D01*
X214873000Y-141708406D01*
X214873000Y-143810998D01*
X212867404Y-145816594D01*
X211650000Y-145816594D01*
X211528821Y-145839395D01*
X211417526Y-145911012D01*
X211342862Y-146020286D01*
X211316594Y-146150000D01*
X211127000Y-146150000D01*
X211127000Y-141285750D01*
X212315000Y-141285750D01*
X212315000Y-141501310D01*
X212411673Y-141734699D01*
X212590302Y-141913327D01*
X212823691Y-142010000D01*
X213264250Y-142010000D01*
X213423000Y-141851250D01*
X213423000Y-141127000D01*
X212473750Y-141127000D01*
X212315000Y-141285750D01*
X211127000Y-141285750D01*
X211127000Y-140498690D01*
X212315000Y-140498690D01*
X212315000Y-140714250D01*
X212473750Y-140873000D01*
X213423000Y-140873000D01*
X213423000Y-140148750D01*
X213264250Y-139990000D01*
X212823691Y-139990000D01*
X212590302Y-140086673D01*
X212411673Y-140265301D01*
X212315000Y-140498690D01*
X211127000Y-140498690D01*
X211127000Y-139643343D01*
X211129272Y-139639943D01*
X211177000Y-139400000D01*
X211177000Y-139203326D01*
X211271179Y-139185605D01*
X211287095Y-139175363D01*
X211311673Y-139234699D01*
X211490302Y-139413327D01*
X211723691Y-139510000D01*
X212164250Y-139510000D01*
X212323000Y-139351250D01*
X212323000Y-138627000D01*
X212577000Y-138627000D01*
X212577000Y-139351250D01*
X212735750Y-139510000D01*
X213176309Y-139510000D01*
X213409698Y-139413327D01*
X213588327Y-139234699D01*
X213685000Y-139001310D01*
X213685000Y-138785750D01*
X213526250Y-138627000D01*
X212577000Y-138627000D01*
X212323000Y-138627000D01*
X212303000Y-138627000D01*
X212303000Y-138373000D01*
X212323000Y-138373000D01*
X212323000Y-137648750D01*
X212577000Y-137648750D01*
X212577000Y-138373000D01*
X213526250Y-138373000D01*
X213685000Y-138214250D01*
X213685000Y-137998690D01*
X213588327Y-137765301D01*
X213409698Y-137586673D01*
X213176309Y-137490000D01*
X212735750Y-137490000D01*
X212577000Y-137648750D01*
X212323000Y-137648750D01*
X212164250Y-137490000D01*
X211723691Y-137490000D01*
X211490302Y-137586673D01*
X211311673Y-137765301D01*
X211287654Y-137823287D01*
X211279714Y-137817862D01*
X211150000Y-137791594D01*
X211114820Y-137791594D01*
X211114820Y-135584820D01*
X211475790Y-135343627D01*
X211622893Y-135123473D01*
X212011864Y-135617892D01*
X212569661Y-135931003D01*
X212697466Y-135961949D01*
X212950820Y-135842595D01*
X212950820Y-134124680D01*
X212930820Y-134124680D01*
X212930820Y-133870680D01*
X212950820Y-133870680D01*
X212950820Y-132152765D01*
X212697466Y-132033411D01*
X212569661Y-132064357D01*
X212011864Y-132377468D01*
X211622893Y-132871887D01*
X211475790Y-132651733D01*
X211045446Y-132364186D01*
X210537820Y-132263213D01*
X210030194Y-132364186D01*
X209599850Y-132651733D01*
X209312303Y-133082077D01*
X209267820Y-133305708D01*
X209223337Y-133082077D01*
X208935790Y-132651733D01*
X208505446Y-132364186D01*
X207997820Y-132263213D01*
X207490194Y-132364186D01*
X207059850Y-132651733D01*
X206772303Y-133082077D01*
X206727820Y-133305708D01*
X206683337Y-133082077D01*
X206395790Y-132651733D01*
X205965446Y-132364186D01*
X205457820Y-132263213D01*
X204950194Y-132364186D01*
X204519850Y-132651733D01*
X204232303Y-133082077D01*
X204187820Y-133305708D01*
X204143337Y-133082077D01*
X203855790Y-132651733D01*
X203425446Y-132364186D01*
X202917820Y-132263213D01*
X202410194Y-132364186D01*
X201979850Y-132651733D01*
X201692303Y-133082077D01*
X201647820Y-133305708D01*
X201603337Y-133082077D01*
X201315790Y-132651733D01*
X200885446Y-132364186D01*
X200377820Y-132263213D01*
X199870194Y-132364186D01*
X199439850Y-132651733D01*
X199152303Y-133082077D01*
X199051330Y-133589703D01*
X199051330Y-134405657D01*
X199152303Y-134913283D01*
X199439850Y-135343627D01*
X199850820Y-135618229D01*
X199850820Y-136403889D01*
X198281710Y-137973000D01*
X196718290Y-137973000D01*
X194027000Y-135281710D01*
X194027000Y-135024171D01*
X194822891Y-135024171D01*
X194918145Y-135254703D01*
X195094369Y-135431235D01*
X195324735Y-135526891D01*
X195574171Y-135527109D01*
X195804703Y-135431855D01*
X195981235Y-135255631D01*
X196076891Y-135025265D01*
X196077109Y-134775829D01*
X196077000Y-134775565D01*
X196077000Y-127250000D01*
X197930689Y-127250000D01*
X197994250Y-127569541D01*
X198175255Y-127840434D01*
X198446148Y-128021439D01*
X198765689Y-128085000D01*
X199834311Y-128085000D01*
X200153852Y-128021439D01*
X200424745Y-127840434D01*
X200605750Y-127569541D01*
X200636143Y-127416742D01*
X212865531Y-127416742D01*
X213002031Y-127747098D01*
X213254563Y-128000070D01*
X213584680Y-128137147D01*
X213942126Y-128137459D01*
X214272482Y-128000959D01*
X214525454Y-127748427D01*
X214662531Y-127418310D01*
X214662843Y-127060864D01*
X214526343Y-126730508D01*
X214273811Y-126477536D01*
X213943694Y-126340459D01*
X213586248Y-126340147D01*
X213255892Y-126476647D01*
X213002920Y-126729179D01*
X212865843Y-127059296D01*
X212865531Y-127416742D01*
X200636143Y-127416742D01*
X200669311Y-127250000D01*
X200605750Y-126930459D01*
X200424745Y-126659566D01*
X200153852Y-126478561D01*
X199834311Y-126415000D01*
X198765689Y-126415000D01*
X198446148Y-126478561D01*
X198175255Y-126659566D01*
X197994250Y-126930459D01*
X197930689Y-127250000D01*
X196077000Y-127250000D01*
X196077000Y-124700000D01*
X197930689Y-124700000D01*
X197994250Y-125019541D01*
X198175255Y-125290434D01*
X198446148Y-125471439D01*
X198765689Y-125535000D01*
X199834311Y-125535000D01*
X200153852Y-125471439D01*
X200424745Y-125290434D01*
X200605750Y-125019541D01*
X200634154Y-124876742D01*
X212865531Y-124876742D01*
X213002031Y-125207098D01*
X213254563Y-125460070D01*
X213584680Y-125597147D01*
X213942126Y-125597459D01*
X214272482Y-125460959D01*
X214525454Y-125208427D01*
X214662531Y-124878310D01*
X214662843Y-124520864D01*
X214526343Y-124190508D01*
X214273811Y-123937536D01*
X213943694Y-123800459D01*
X213586248Y-123800147D01*
X213255892Y-123936647D01*
X213002920Y-124189179D01*
X212865843Y-124519296D01*
X212865531Y-124876742D01*
X200634154Y-124876742D01*
X200669311Y-124700000D01*
X200605750Y-124380459D01*
X200424745Y-124109566D01*
X200153852Y-123928561D01*
X199834311Y-123865000D01*
X198765689Y-123865000D01*
X198446148Y-123928561D01*
X198175255Y-124109566D01*
X197994250Y-124380459D01*
X197930689Y-124700000D01*
X196077000Y-124700000D01*
X196077000Y-110145416D01*
X196126891Y-110025265D01*
X196127109Y-109775829D01*
X196031855Y-109545297D01*
X195855631Y-109368765D01*
X195625265Y-109273109D01*
X195375829Y-109272891D01*
X195145297Y-109368145D01*
X194968765Y-109544369D01*
X194947962Y-109594467D01*
X194870728Y-109710057D01*
X194823000Y-109950000D01*
X194823000Y-134899453D01*
X194822891Y-135024171D01*
X194027000Y-135024171D01*
X194027000Y-103218290D01*
X207218290Y-90027000D01*
X210039452Y-90027000D01*
X210076252Y-90116063D01*
X210382326Y-90422671D01*
X210568518Y-90499985D01*
X210383937Y-90576252D01*
X210077329Y-90882326D01*
X210039678Y-90973000D01*
X207500000Y-90973000D01*
X207298326Y-91013115D01*
X207127355Y-91127354D01*
X200005175Y-98249535D01*
X199890935Y-98420505D01*
X199890935Y-98420506D01*
X199850820Y-98622180D01*
X199850820Y-116212571D01*
X199439850Y-116487173D01*
X199152303Y-116917517D01*
X199051330Y-117425143D01*
X199051330Y-118241097D01*
X199152303Y-118748723D01*
X199439850Y-119179067D01*
X199870194Y-119466614D01*
X200377820Y-119567587D01*
X200885446Y-119466614D01*
X201315790Y-119179067D01*
X201603337Y-118748723D01*
X201647820Y-118525092D01*
X201692303Y-118748723D01*
X201979850Y-119179067D01*
X202410194Y-119466614D01*
X202917820Y-119567587D01*
X203425446Y-119466614D01*
X203855790Y-119179067D01*
X204143337Y-118748723D01*
X204187820Y-118525092D01*
X204232303Y-118748723D01*
X204519850Y-119179067D01*
X204950194Y-119466614D01*
X205457820Y-119567587D01*
X205965446Y-119466614D01*
X206395790Y-119179067D01*
X206683337Y-118748723D01*
X206727820Y-118525092D01*
X206772303Y-118748723D01*
X207059850Y-119179067D01*
X207490194Y-119466614D01*
X207997820Y-119567587D01*
X208505446Y-119466614D01*
X208935790Y-119179067D01*
X209223337Y-118748723D01*
X209267820Y-118525092D01*
X209312303Y-118748723D01*
X209599850Y-119179067D01*
X210030194Y-119466614D01*
X210537820Y-119567587D01*
X211045446Y-119466614D01*
X211475790Y-119179067D01*
X211763337Y-118748723D01*
X211807820Y-118525092D01*
X211852303Y-118748723D01*
X212139850Y-119179067D01*
X212570194Y-119466614D01*
X213077820Y-119567587D01*
X213585446Y-119466614D01*
X214015790Y-119179067D01*
X214303337Y-118748723D01*
X214347820Y-118525092D01*
X214392303Y-118748723D01*
X214679850Y-119179067D01*
X215110194Y-119466614D01*
X215617820Y-119567587D01*
X216125446Y-119466614D01*
X216555790Y-119179067D01*
X216843337Y-118748723D01*
X216944310Y-118241097D01*
X216944310Y-117425143D01*
X216843337Y-116917517D01*
X216555790Y-116487173D01*
X216244820Y-116279389D01*
X216244820Y-112617820D01*
X216197092Y-112377877D01*
X216061176Y-112174464D01*
X215771601Y-111884889D01*
X215771634Y-111847212D01*
X215654428Y-111563551D01*
X215437590Y-111346335D01*
X215154134Y-111228634D01*
X214847212Y-111228366D01*
X214563551Y-111345572D01*
X214346335Y-111562410D01*
X214228634Y-111845866D01*
X214228366Y-112152788D01*
X214345572Y-112436449D01*
X214562410Y-112653665D01*
X214845866Y-112771366D01*
X214884688Y-112771400D01*
X214990820Y-112877532D01*
X214990820Y-116279389D01*
X214679850Y-116487173D01*
X214392303Y-116917517D01*
X214347820Y-117141148D01*
X214303337Y-116917517D01*
X214015790Y-116487173D01*
X213704820Y-116279389D01*
X213704820Y-114077820D01*
X213700608Y-114056644D01*
X213657093Y-113837878D01*
X213521176Y-113634464D01*
X213271601Y-113384889D01*
X213271634Y-113347212D01*
X213154428Y-113063551D01*
X212937590Y-112846335D01*
X212654134Y-112728634D01*
X212347212Y-112728366D01*
X212063551Y-112845572D01*
X211846335Y-113062410D01*
X211728634Y-113345866D01*
X211728366Y-113652788D01*
X211845572Y-113936449D01*
X212062410Y-114153665D01*
X212345866Y-114271366D01*
X212384688Y-114271400D01*
X212450820Y-114337532D01*
X212450820Y-116279389D01*
X212139850Y-116487173D01*
X211852303Y-116917517D01*
X211807820Y-117141148D01*
X211763337Y-116917517D01*
X211475790Y-116487173D01*
X211164820Y-116279389D01*
X211164820Y-115037820D01*
X211117092Y-114797877D01*
X210981176Y-114594464D01*
X210771601Y-114384889D01*
X210771634Y-114347212D01*
X210654428Y-114063551D01*
X210437590Y-113846335D01*
X210154134Y-113728634D01*
X209847212Y-113728366D01*
X209563551Y-113845572D01*
X209346335Y-114062410D01*
X209228634Y-114345866D01*
X209228366Y-114652788D01*
X209345572Y-114936449D01*
X209562410Y-115153665D01*
X209845866Y-115271366D01*
X209884688Y-115271400D01*
X209910820Y-115297532D01*
X209910820Y-116279389D01*
X209599850Y-116487173D01*
X209312303Y-116917517D01*
X209267820Y-117141148D01*
X209223337Y-116917517D01*
X208935790Y-116487173D01*
X208624820Y-116279389D01*
X208624820Y-115966385D01*
X208653665Y-115937590D01*
X208771366Y-115654134D01*
X208771634Y-115347212D01*
X208654428Y-115063551D01*
X208437590Y-114846335D01*
X208154134Y-114728634D01*
X207847212Y-114728366D01*
X207563551Y-114845572D01*
X207346335Y-115062410D01*
X207228634Y-115345866D01*
X207228366Y-115652788D01*
X207345572Y-115936449D01*
X207370820Y-115961741D01*
X207370820Y-116279389D01*
X207059850Y-116487173D01*
X206772303Y-116917517D01*
X206727820Y-117141148D01*
X206683337Y-116917517D01*
X206395790Y-116487173D01*
X205984820Y-116212571D01*
X205984820Y-111457820D01*
X205944705Y-111256146D01*
X205944705Y-111256145D01*
X205830465Y-111085175D01*
X205725503Y-110980213D01*
X210199392Y-110980213D01*
X210268857Y-111222397D01*
X210792302Y-111409144D01*
X211347368Y-111381362D01*
X211731143Y-111222397D01*
X211800608Y-110980213D01*
X211000000Y-110179605D01*
X210199392Y-110980213D01*
X205725503Y-110980213D01*
X205527000Y-110781710D01*
X205527000Y-108218290D01*
X205935143Y-107810147D01*
X206050000Y-107833406D01*
X206950000Y-107833406D01*
X207071179Y-107810605D01*
X207182474Y-107738988D01*
X207257138Y-107629714D01*
X207283406Y-107500000D01*
X207283406Y-107427000D01*
X208100000Y-107427000D01*
X208301675Y-107386885D01*
X208472645Y-107272645D01*
X209218290Y-106527000D01*
X210039452Y-106527000D01*
X210076252Y-106616063D01*
X210382326Y-106922671D01*
X210568518Y-106999985D01*
X210383937Y-107076252D01*
X210086671Y-107373000D01*
X209450000Y-107373000D01*
X209210058Y-107420727D01*
X209006644Y-107556644D01*
X208090288Y-108473000D01*
X207278326Y-108473000D01*
X207260605Y-108378821D01*
X207188988Y-108267526D01*
X207079714Y-108192862D01*
X206950000Y-108166594D01*
X206050000Y-108166594D01*
X205928821Y-108189395D01*
X205817526Y-108261012D01*
X205742862Y-108370286D01*
X205716594Y-108500000D01*
X205716594Y-109700000D01*
X205739395Y-109821179D01*
X205811012Y-109932474D01*
X205920286Y-110007138D01*
X206050000Y-110033406D01*
X206950000Y-110033406D01*
X207071179Y-110010605D01*
X207182474Y-109938988D01*
X207257138Y-109829714D01*
X207264714Y-109792302D01*
X209590856Y-109792302D01*
X209618638Y-110347368D01*
X209777603Y-110731143D01*
X210019787Y-110800608D01*
X210820395Y-110000000D01*
X211179605Y-110000000D01*
X211980213Y-110800608D01*
X212222397Y-110731143D01*
X212409144Y-110207698D01*
X212381362Y-109652632D01*
X212222397Y-109268857D01*
X211980213Y-109199392D01*
X211179605Y-110000000D01*
X210820395Y-110000000D01*
X210019787Y-109199392D01*
X209777603Y-109268857D01*
X209590856Y-109792302D01*
X207264714Y-109792302D01*
X207277938Y-109727000D01*
X208350000Y-109727000D01*
X208589943Y-109679272D01*
X208793356Y-109543356D01*
X209709712Y-108627000D01*
X210087170Y-108627000D01*
X210261861Y-108801995D01*
X210199392Y-109019787D01*
X211000000Y-109820395D01*
X211800608Y-109019787D01*
X211738115Y-108801909D01*
X211922671Y-108617674D01*
X212088811Y-108217566D01*
X212089189Y-107784335D01*
X211923748Y-107383937D01*
X211617674Y-107077329D01*
X211431482Y-107000015D01*
X211616063Y-106923748D01*
X211922671Y-106617674D01*
X212088811Y-106217566D01*
X212089189Y-105784335D01*
X211923748Y-105383937D01*
X211617674Y-105077329D01*
X211431482Y-105000015D01*
X211616063Y-104923748D01*
X211922671Y-104617674D01*
X212088811Y-104217566D01*
X212089189Y-103784335D01*
X211923748Y-103383937D01*
X211617674Y-103077329D01*
X211217566Y-102911189D01*
X210784335Y-102910811D01*
X210383937Y-103076252D01*
X210077329Y-103382326D01*
X210039678Y-103473000D01*
X206000000Y-103473000D01*
X205831785Y-103506460D01*
X205798325Y-103513115D01*
X205627355Y-103627355D01*
X204881710Y-104373000D01*
X204283406Y-104373000D01*
X204283406Y-104300000D01*
X204260605Y-104178821D01*
X204188988Y-104067526D01*
X204079714Y-103992862D01*
X203950000Y-103966594D01*
X203050000Y-103966594D01*
X202928821Y-103989395D01*
X202817526Y-104061012D01*
X202742862Y-104170286D01*
X202716594Y-104300000D01*
X202716594Y-104538116D01*
X201627355Y-105627355D01*
X201513115Y-105798325D01*
X201506137Y-105833406D01*
X201473000Y-106000000D01*
X201473000Y-109000000D01*
X201513115Y-109201675D01*
X201627355Y-109372645D01*
X202390820Y-110136111D01*
X202390820Y-116212571D01*
X201979850Y-116487173D01*
X201692303Y-116917517D01*
X201647820Y-117141148D01*
X201603337Y-116917517D01*
X201315790Y-116487173D01*
X200904820Y-116212571D01*
X200904820Y-98840470D01*
X203265077Y-96480213D01*
X210199392Y-96480213D01*
X210268857Y-96722397D01*
X210792302Y-96909144D01*
X211347368Y-96881362D01*
X211731143Y-96722397D01*
X211800608Y-96480213D01*
X211000000Y-95679605D01*
X210199392Y-96480213D01*
X203265077Y-96480213D01*
X204452988Y-95292302D01*
X209590856Y-95292302D01*
X209618638Y-95847368D01*
X209777603Y-96231143D01*
X210019787Y-96300608D01*
X210820395Y-95500000D01*
X211179605Y-95500000D01*
X211980213Y-96300608D01*
X212222397Y-96231143D01*
X212409144Y-95707698D01*
X212381362Y-95152632D01*
X212222397Y-94768857D01*
X211980213Y-94699392D01*
X211179605Y-95500000D01*
X210820395Y-95500000D01*
X210019787Y-94699392D01*
X209777603Y-94768857D01*
X209590856Y-95292302D01*
X204452988Y-95292302D01*
X207718291Y-92027000D01*
X210039452Y-92027000D01*
X210076252Y-92116063D01*
X210382326Y-92422671D01*
X210568518Y-92499985D01*
X210383937Y-92576252D01*
X210077329Y-92882326D01*
X209911189Y-93282434D01*
X209910811Y-93715665D01*
X210076252Y-94116063D01*
X210261861Y-94301995D01*
X210199392Y-94519787D01*
X211000000Y-95320395D01*
X211800608Y-94519787D01*
X211738115Y-94301909D01*
X211922671Y-94117674D01*
X212088811Y-93717566D01*
X212089189Y-93284335D01*
X211923748Y-92883937D01*
X211617674Y-92577329D01*
X211431482Y-92500015D01*
X211616063Y-92423748D01*
X211922671Y-92117674D01*
X212088811Y-91717566D01*
X212089189Y-91284335D01*
X211923748Y-90883937D01*
X211617674Y-90577329D01*
X211431482Y-90500015D01*
X211616063Y-90423748D01*
X211922671Y-90117674D01*
X212088811Y-89717566D01*
X212089189Y-89284335D01*
X211923748Y-88883937D01*
X211617674Y-88577329D01*
X211217566Y-88411189D01*
X210784335Y-88410811D01*
X210383937Y-88576252D01*
X210077329Y-88882326D01*
X210039678Y-88973000D01*
X207000000Y-88973000D01*
X206798325Y-89013115D01*
X206627355Y-89127355D01*
X193127355Y-102627355D01*
X193013115Y-102798325D01*
X193013115Y-102798326D01*
X192973000Y-103000000D01*
X167970628Y-103000000D01*
X168026682Y-102865007D01*
X168027316Y-102138182D01*
X167749758Y-101466440D01*
X167236264Y-100952048D01*
X166565007Y-100673318D01*
X165838182Y-100672684D01*
X165166440Y-100950242D01*
X164652048Y-101463736D01*
X164373318Y-102134993D01*
X164372684Y-102861818D01*
X161676684Y-102861818D01*
X161677316Y-102138182D01*
X161399758Y-101466440D01*
X160886264Y-100952048D01*
X160215007Y-100673318D01*
X159488182Y-100672684D01*
X158816440Y-100950242D01*
X158302048Y-101463736D01*
X158023318Y-102134993D01*
X158022684Y-102861818D01*
X155635000Y-102861818D01*
X155635000Y-102785750D01*
X155476250Y-102627000D01*
X153627000Y-102627000D01*
X153373000Y-102627000D01*
X153353000Y-102627000D01*
X153353000Y-102373000D01*
X153373000Y-102373000D01*
X153373000Y-100523750D01*
X153627000Y-100523750D01*
X153627000Y-102373000D01*
X155476250Y-102373000D01*
X155635000Y-102214250D01*
X155635000Y-100873691D01*
X155538327Y-100640302D01*
X155359699Y-100461673D01*
X155126310Y-100365000D01*
X153785750Y-100365000D01*
X153627000Y-100523750D01*
X153373000Y-100523750D01*
X153214250Y-100365000D01*
X151877000Y-100365000D01*
X151877000Y-87126301D01*
X151950242Y-87303560D01*
X152463736Y-87817952D01*
X153134993Y-88096682D01*
X153861818Y-88097316D01*
X154533560Y-87819758D01*
X155047952Y-87306264D01*
X155326682Y-86635007D01*
X155326684Y-86631818D01*
X158022684Y-86631818D01*
X158300242Y-87303560D01*
X158813736Y-87817952D01*
X159484993Y-88096682D01*
X160211818Y-88097316D01*
X160883560Y-87819758D01*
X161397952Y-87306264D01*
X161676682Y-86635007D01*
X161676684Y-86631818D01*
X164372684Y-86631818D01*
X164650242Y-87303560D01*
X165163736Y-87817952D01*
X165834993Y-88096682D01*
X166561818Y-88097316D01*
X167233560Y-87819758D01*
X167747952Y-87306264D01*
X168026682Y-86635007D01*
X168027316Y-85908182D01*
X167749758Y-85236440D01*
X167236264Y-84722048D01*
X166565007Y-84443318D01*
X165838182Y-84442684D01*
X165166440Y-84720242D01*
X164652048Y-85233736D01*
X164373318Y-85904993D01*
X164372684Y-86631818D01*
X161676684Y-86631818D01*
X161677316Y-85908182D01*
X161399758Y-85236440D01*
X160886264Y-84722048D01*
X160215007Y-84443318D01*
X159488182Y-84442684D01*
X158816440Y-84720242D01*
X158302048Y-85233736D01*
X158023318Y-85904993D01*
X158022684Y-86631818D01*
X155326684Y-86631818D01*
X155327316Y-85908182D01*
X155049758Y-85236440D01*
X154536264Y-84722048D01*
X153865007Y-84443318D01*
X153138182Y-84442684D01*
X152466440Y-84720242D01*
X151952048Y-85233736D01*
X151877000Y-85414472D01*
X151877000Y-81537131D01*
X151877819Y-81533014D01*
X152271639Y-82486132D01*
X153009981Y-83225764D01*
X153975165Y-83626543D01*
X155020250Y-83627455D01*
X155986132Y-83228361D01*
X156725764Y-82490019D01*
X157126543Y-81524835D01*
X157127455Y-80479750D01*
X156728361Y-79513868D01*
X156092604Y-78877000D01*
X212908323Y-78877000D01*
X212274236Y-79509981D01*
X212274236Y-79509981D01*
G37*
X212274236Y-79509981D02*
X211873457Y-80475165D01*
X211872545Y-81520250D01*
X212271639Y-82486132D01*
X213009981Y-83225764D01*
X213975165Y-83626543D01*
X215020250Y-83627455D01*
X215986132Y-83228361D01*
X216725764Y-82490019D01*
X217122494Y-81534586D01*
X217123000Y-81537131D01*
X217123000Y-124327629D01*
X217066343Y-124190508D01*
X216813811Y-123937536D01*
X216483694Y-123800459D01*
X216126248Y-123800147D01*
X215795892Y-123936647D01*
X215542920Y-124189179D01*
X215405843Y-124519296D01*
X215405531Y-124876742D01*
X215542031Y-125207098D01*
X215794563Y-125460070D01*
X216124680Y-125597147D01*
X216482126Y-125597459D01*
X216812482Y-125460959D01*
X217065454Y-125208427D01*
X217123000Y-125069841D01*
X217123000Y-126867629D01*
X217066343Y-126730508D01*
X216813811Y-126477536D01*
X216483694Y-126340459D01*
X216126248Y-126340147D01*
X215795892Y-126476647D01*
X215542920Y-126729179D01*
X215405843Y-127059296D01*
X215405531Y-127416742D01*
X215542031Y-127747098D01*
X215794563Y-128000070D01*
X216124680Y-128137147D01*
X216482126Y-128137459D01*
X216812482Y-128000959D01*
X217065454Y-127748427D01*
X217123000Y-127609841D01*
X217123000Y-170462869D01*
X217122181Y-170466986D01*
X216728361Y-169513868D01*
X215990019Y-168774236D01*
X215024835Y-168373457D01*
X213979750Y-168372545D01*
X213013868Y-168771639D01*
X212274236Y-169509981D01*
X211873457Y-170475165D01*
X211872545Y-171520250D01*
X212271639Y-172486132D01*
X212907396Y-173123000D01*
X156091677Y-173123000D01*
X156725764Y-172490019D01*
X157126543Y-171524835D01*
X157127455Y-170479750D01*
X156728361Y-169513868D01*
X155990019Y-168774236D01*
X155024835Y-168373457D01*
X153979750Y-168372545D01*
X153013868Y-168771639D01*
X152274236Y-169509981D01*
X151877506Y-170465414D01*
X151877000Y-170462869D01*
X151877000Y-167635000D01*
X153214250Y-167635000D01*
X153373000Y-167476250D01*
X153373000Y-165627000D01*
X153627000Y-165627000D01*
X153627000Y-167476250D01*
X153785750Y-167635000D01*
X155126310Y-167635000D01*
X155359699Y-167538327D01*
X155538327Y-167359698D01*
X155635000Y-167126309D01*
X155635000Y-165861818D01*
X158022684Y-165861818D01*
X158300242Y-166533560D01*
X158813736Y-167047952D01*
X159484993Y-167326682D01*
X160211818Y-167327316D01*
X160883560Y-167049758D01*
X161397952Y-166536264D01*
X161676682Y-165865007D01*
X161676684Y-165861818D01*
X164372684Y-165861818D01*
X164650242Y-166533560D01*
X165163736Y-167047952D01*
X165834993Y-167326682D01*
X166561818Y-167327316D01*
X167233560Y-167049758D01*
X167747952Y-166536264D01*
X168026682Y-165865007D01*
X168027316Y-165138182D01*
X167749758Y-164466440D01*
X167236264Y-163952048D01*
X166565007Y-163673318D01*
X165838182Y-163672684D01*
X165166440Y-163950242D01*
X164652048Y-164463736D01*
X164373318Y-165134993D01*
X164372684Y-165861818D01*
X161676684Y-165861818D01*
X161677316Y-165138182D01*
X161399758Y-164466440D01*
X160886264Y-163952048D01*
X160215007Y-163673318D01*
X159488182Y-163672684D01*
X158816440Y-163950242D01*
X158302048Y-164463736D01*
X158023318Y-165134993D01*
X158022684Y-165861818D01*
X155635000Y-165861818D01*
X155635000Y-165785750D01*
X155476250Y-165627000D01*
X153627000Y-165627000D01*
X153373000Y-165627000D01*
X153353000Y-165627000D01*
X153353000Y-165373000D01*
X153373000Y-165373000D01*
X153373000Y-163523750D01*
X153627000Y-163523750D01*
X153627000Y-165373000D01*
X155476250Y-165373000D01*
X155635000Y-165214250D01*
X155635000Y-163873691D01*
X155538327Y-163640302D01*
X155359699Y-163461673D01*
X155126310Y-163365000D01*
X153785750Y-163365000D01*
X153627000Y-163523750D01*
X153373000Y-163523750D01*
X153214250Y-163365000D01*
X151877000Y-163365000D01*
X151877000Y-160056890D01*
X211058524Y-160056890D01*
X211228355Y-160466924D01*
X211618642Y-160895183D01*
X212143108Y-161141486D01*
X212373000Y-161020819D01*
X212373000Y-159827000D01*
X212627000Y-159827000D01*
X212627000Y-161020819D01*
X212856892Y-161141486D01*
X213381358Y-160895183D01*
X213771645Y-160466924D01*
X213941476Y-160056890D01*
X213820155Y-159827000D01*
X212627000Y-159827000D01*
X212373000Y-159827000D01*
X211179845Y-159827000D01*
X211058524Y-160056890D01*
X151877000Y-160056890D01*
X151877000Y-150126301D01*
X151950242Y-150303560D01*
X152463736Y-150817952D01*
X153134993Y-151096682D01*
X153861818Y-151097316D01*
X154533560Y-150819758D01*
X155047952Y-150306264D01*
X155326682Y-149635007D01*
X155326684Y-149631818D01*
X158022684Y-149631818D01*
X158300242Y-150303560D01*
X158813736Y-150817952D01*
X159484993Y-151096682D01*
X160211818Y-151097316D01*
X160883560Y-150819758D01*
X161397952Y-150306264D01*
X161676682Y-149635007D01*
X161676684Y-149631818D01*
X164372684Y-149631818D01*
X164650242Y-150303560D01*
X165163736Y-150817952D01*
X165834993Y-151096682D01*
X166561818Y-151097316D01*
X167233560Y-150819758D01*
X167747952Y-150306264D01*
X168026682Y-149635007D01*
X168027316Y-148908182D01*
X167749758Y-148236440D01*
X167236264Y-147722048D01*
X166565007Y-147443318D01*
X165838182Y-147442684D01*
X165166440Y-147720242D01*
X164652048Y-148233736D01*
X164373318Y-148904993D01*
X164372684Y-149631818D01*
X161676684Y-149631818D01*
X161677316Y-148908182D01*
X161399758Y-148236440D01*
X160886264Y-147722048D01*
X160215007Y-147443318D01*
X159488182Y-147442684D01*
X158816440Y-147720242D01*
X158302048Y-148233736D01*
X158023318Y-148904993D01*
X158022684Y-149631818D01*
X155326684Y-149631818D01*
X155327316Y-148908182D01*
X155049758Y-148236440D01*
X154536264Y-147722048D01*
X153865007Y-147443318D01*
X153138182Y-147442684D01*
X152466440Y-147720242D01*
X151952048Y-148233736D01*
X151877000Y-148414472D01*
X151877000Y-146635000D01*
X153214250Y-146635000D01*
X153373000Y-146476250D01*
X153373000Y-144627000D01*
X153627000Y-144627000D01*
X153627000Y-146476250D01*
X153785750Y-146635000D01*
X155126310Y-146635000D01*
X155359699Y-146538327D01*
X155538327Y-146359698D01*
X155635000Y-146126309D01*
X155635000Y-144861818D01*
X158022684Y-144861818D01*
X158300242Y-145533560D01*
X158813736Y-146047952D01*
X159484993Y-146326682D01*
X160211818Y-146327316D01*
X160883560Y-146049758D01*
X161397952Y-145536264D01*
X161676682Y-144865007D01*
X161676684Y-144861818D01*
X164372684Y-144861818D01*
X164650242Y-145533560D01*
X165163736Y-146047952D01*
X165834993Y-146326682D01*
X166561818Y-146327316D01*
X167233560Y-146049758D01*
X167747952Y-145536264D01*
X168026682Y-144865007D01*
X168027316Y-144138182D01*
X167749758Y-143466440D01*
X167236264Y-142952048D01*
X166565007Y-142673318D01*
X165838182Y-142672684D01*
X165166440Y-142950242D01*
X164652048Y-143463736D01*
X164373318Y-144134993D01*
X164372684Y-144861818D01*
X161676684Y-144861818D01*
X161677316Y-144138182D01*
X161399758Y-143466440D01*
X160886264Y-142952048D01*
X160215007Y-142673318D01*
X159488182Y-142672684D01*
X158816440Y-142950242D01*
X158302048Y-143463736D01*
X158023318Y-144134993D01*
X158022684Y-144861818D01*
X155635000Y-144861818D01*
X155635000Y-144785750D01*
X155476250Y-144627000D01*
X153627000Y-144627000D01*
X153373000Y-144627000D01*
X153353000Y-144627000D01*
X153353000Y-144373000D01*
X153373000Y-144373000D01*
X153373000Y-142523750D01*
X153627000Y-142523750D01*
X153627000Y-144373000D01*
X155476250Y-144373000D01*
X155635000Y-144214250D01*
X155635000Y-142873691D01*
X155538327Y-142640302D01*
X155359699Y-142461673D01*
X155126310Y-142365000D01*
X153785750Y-142365000D01*
X153627000Y-142523750D01*
X153373000Y-142523750D01*
X153214250Y-142365000D01*
X151877000Y-142365000D01*
X151877000Y-129126301D01*
X151950242Y-129303560D01*
X152463736Y-129817952D01*
X153134993Y-130096682D01*
X153861818Y-130097316D01*
X154533560Y-129819758D01*
X155047952Y-129306264D01*
X155326682Y-128635007D01*
X155326684Y-128631818D01*
X158022684Y-128631818D01*
X158300242Y-129303560D01*
X158813736Y-129817952D01*
X159484993Y-130096682D01*
X160211818Y-130097316D01*
X160883560Y-129819758D01*
X161397952Y-129306264D01*
X161676682Y-128635007D01*
X161676684Y-128631818D01*
X164372684Y-128631818D01*
X164650242Y-129303560D01*
X165163736Y-129817952D01*
X165834993Y-130096682D01*
X166561818Y-130097316D01*
X167233560Y-129819758D01*
X167747952Y-129306264D01*
X168026682Y-128635007D01*
X168027316Y-127908182D01*
X167749758Y-127236440D01*
X167236264Y-126722048D01*
X166565007Y-126443318D01*
X165838182Y-126442684D01*
X165166440Y-126720242D01*
X164652048Y-127233736D01*
X164373318Y-127904993D01*
X164372684Y-128631818D01*
X161676684Y-128631818D01*
X161677316Y-127908182D01*
X161399758Y-127236440D01*
X160886264Y-126722048D01*
X160215007Y-126443318D01*
X159488182Y-126442684D01*
X158816440Y-126720242D01*
X158302048Y-127233736D01*
X158023318Y-127904993D01*
X158022684Y-128631818D01*
X155326684Y-128631818D01*
X155327316Y-127908182D01*
X155049758Y-127236440D01*
X154536264Y-126722048D01*
X153865007Y-126443318D01*
X153138182Y-126442684D01*
X152466440Y-126720242D01*
X151952048Y-127233736D01*
X151877000Y-127414472D01*
X151877000Y-125635000D01*
X153214250Y-125635000D01*
X153373000Y-125476250D01*
X153373000Y-123627000D01*
X153627000Y-123627000D01*
X153627000Y-125476250D01*
X153785750Y-125635000D01*
X155126310Y-125635000D01*
X155359699Y-125538327D01*
X155538327Y-125359698D01*
X155635000Y-125126309D01*
X155635000Y-123861818D01*
X158022684Y-123861818D01*
X158300242Y-124533560D01*
X158813736Y-125047952D01*
X159484993Y-125326682D01*
X160211818Y-125327316D01*
X160883560Y-125049758D01*
X161397952Y-124536264D01*
X161676682Y-123865007D01*
X161676684Y-123861818D01*
X164372684Y-123861818D01*
X164650242Y-124533560D01*
X165163736Y-125047952D01*
X165834993Y-125326682D01*
X166561818Y-125327316D01*
X167233560Y-125049758D01*
X167747952Y-124536264D01*
X168026682Y-123865007D01*
X168027316Y-123138182D01*
X167749758Y-122466440D01*
X167236264Y-121952048D01*
X166565007Y-121673318D01*
X165838182Y-121672684D01*
X165166440Y-121950242D01*
X164652048Y-122463736D01*
X164373318Y-123134993D01*
X164372684Y-123861818D01*
X161676684Y-123861818D01*
X161677316Y-123138182D01*
X161399758Y-122466440D01*
X160886264Y-121952048D01*
X160215007Y-121673318D01*
X159488182Y-121672684D01*
X158816440Y-121950242D01*
X158302048Y-122463736D01*
X158023318Y-123134993D01*
X158022684Y-123861818D01*
X155635000Y-123861818D01*
X155635000Y-123785750D01*
X155476250Y-123627000D01*
X153627000Y-123627000D01*
X153373000Y-123627000D01*
X153353000Y-123627000D01*
X153353000Y-123373000D01*
X153373000Y-123373000D01*
X153373000Y-121523750D01*
X153627000Y-121523750D01*
X153627000Y-123373000D01*
X155476250Y-123373000D01*
X155635000Y-123214250D01*
X155635000Y-121873691D01*
X155538327Y-121640302D01*
X155359699Y-121461673D01*
X155126310Y-121365000D01*
X153785750Y-121365000D01*
X153627000Y-121523750D01*
X153373000Y-121523750D01*
X153214250Y-121365000D01*
X151877000Y-121365000D01*
X151877000Y-108126301D01*
X151950242Y-108303560D01*
X152463736Y-108817952D01*
X153134993Y-109096682D01*
X153861818Y-109097316D01*
X154533560Y-108819758D01*
X155047952Y-108306264D01*
X155326682Y-107635007D01*
X155326684Y-107631818D01*
X158022684Y-107631818D01*
X158300242Y-108303560D01*
X158813736Y-108817952D01*
X159484993Y-109096682D01*
X160211818Y-109097316D01*
X160883560Y-108819758D01*
X161397952Y-108306264D01*
X161676682Y-107635007D01*
X161676684Y-107631818D01*
X164372684Y-107631818D01*
X164650242Y-108303560D01*
X165163736Y-108817952D01*
X165834993Y-109096682D01*
X166561818Y-109097316D01*
X167233560Y-108819758D01*
X167747952Y-108306264D01*
X168026682Y-107635007D01*
X168027316Y-106908182D01*
X167749758Y-106236440D01*
X167236264Y-105722048D01*
X166565007Y-105443318D01*
X165838182Y-105442684D01*
X165166440Y-105720242D01*
X164652048Y-106233736D01*
X164373318Y-106904993D01*
X164372684Y-107631818D01*
X161676684Y-107631818D01*
X161677316Y-106908182D01*
X161399758Y-106236440D01*
X160886264Y-105722048D01*
X160215007Y-105443318D01*
X159488182Y-105442684D01*
X158816440Y-105720242D01*
X158302048Y-106233736D01*
X158023318Y-106904993D01*
X158022684Y-107631818D01*
X155326684Y-107631818D01*
X155327316Y-106908182D01*
X155049758Y-106236440D01*
X154536264Y-105722048D01*
X153865007Y-105443318D01*
X153138182Y-105442684D01*
X152466440Y-105720242D01*
X151952048Y-106233736D01*
X151877000Y-106414472D01*
X151877000Y-104635000D01*
X153214250Y-104635000D01*
X153373000Y-104476250D01*
X153373000Y-102627000D01*
X153627000Y-102627000D01*
X153627000Y-104476250D01*
X153785750Y-104635000D01*
X155126310Y-104635000D01*
X155359699Y-104538327D01*
X155538327Y-104359698D01*
X155635000Y-104126309D01*
X155635000Y-102861818D01*
X158022684Y-102861818D01*
X158300242Y-103533560D01*
X158813736Y-104047952D01*
X159484993Y-104326682D01*
X160211818Y-104327316D01*
X160883560Y-104049758D01*
X161397952Y-103536264D01*
X161676682Y-102865007D01*
X161676684Y-102861818D01*
X164372684Y-102861818D01*
X164650242Y-103533560D01*
X165163736Y-104047952D01*
X165834993Y-104326682D01*
X166561818Y-104327316D01*
X167233560Y-104049758D01*
X167747952Y-103536264D01*
X167970628Y-103000000D01*
X192973000Y-103000000D01*
X192973000Y-135500000D01*
X193013115Y-135701675D01*
X193127355Y-135872645D01*
X196127355Y-138872645D01*
X196298326Y-138986885D01*
X196500000Y-139027000D01*
X198500000Y-139027000D01*
X198701675Y-138986885D01*
X198872645Y-138872645D01*
X200750466Y-136994825D01*
X200864705Y-136823854D01*
X200904820Y-136622180D01*
X200904820Y-135618229D01*
X201315790Y-135343627D01*
X201603337Y-134913283D01*
X201647820Y-134689652D01*
X201692303Y-134913283D01*
X201979850Y-135343627D01*
X202340820Y-135584820D01*
X202340820Y-150917815D01*
X202340819Y-150917820D01*
X202384742Y-151138628D01*
X202509819Y-151325821D01*
X208751997Y-157567998D01*
X208751999Y-157568001D01*
X208939192Y-157693078D01*
X209160000Y-157737001D01*
X209160005Y-157737000D01*
X211474114Y-157737000D01*
X211644676Y-157992265D01*
X212026523Y-158247406D01*
X212125035Y-158267001D01*
X211618642Y-158504817D01*
X211228355Y-158933076D01*
X211058524Y-159343110D01*
X211179845Y-159573000D01*
X212373000Y-159573000D01*
X212373000Y-159553000D01*
X212627000Y-159553000D01*
X212627000Y-159573000D01*
X213820155Y-159573000D01*
X213941476Y-159343110D01*
X213771645Y-158933076D01*
X213381358Y-158504817D01*
X212874965Y-158267001D01*
X212973477Y-158247406D01*
X213355324Y-157992265D01*
X213610465Y-157610418D01*
X213700059Y-157160000D01*
X213610465Y-156709582D01*
X213355324Y-156327735D01*
X212973477Y-156072594D01*
X212523059Y-155983000D01*
X212476941Y-155983000D01*
X212026523Y-156072594D01*
X211644676Y-156327735D01*
X211474114Y-156583000D01*
X209399001Y-156583000D01*
X203494820Y-150678818D01*
X203494820Y-135584820D01*
X203855790Y-135343627D01*
X204143337Y-134913283D01*
X204187820Y-134689652D01*
X204232303Y-134913283D01*
X204519850Y-135343627D01*
X204880820Y-135584820D01*
X204880820Y-149957815D01*
X204880819Y-149957820D01*
X204924742Y-150178628D01*
X205049819Y-150365821D01*
X209711997Y-155027998D01*
X209711999Y-155028001D01*
X209899192Y-155153078D01*
X210120000Y-155197000D01*
X211474114Y-155197000D01*
X211644676Y-155452265D01*
X212026523Y-155707406D01*
X212476941Y-155797000D01*
X212523059Y-155797000D01*
X212973477Y-155707406D01*
X213355324Y-155452265D01*
X213610465Y-155070418D01*
X213700059Y-154620000D01*
X213610465Y-154169582D01*
X213355324Y-153787735D01*
X212973477Y-153532594D01*
X212523059Y-153443000D01*
X212476941Y-153443000D01*
X212026523Y-153532594D01*
X211644676Y-153787735D01*
X211474114Y-154043000D01*
X210359001Y-154043000D01*
X206034820Y-149718818D01*
X206034820Y-135584820D01*
X206395790Y-135343627D01*
X206683337Y-134913283D01*
X206727820Y-134689652D01*
X206772303Y-134913283D01*
X207059850Y-135343627D01*
X207420820Y-135584820D01*
X207420820Y-148497815D01*
X207420819Y-148497820D01*
X207464742Y-148718628D01*
X207589819Y-148905821D01*
X211171997Y-152487998D01*
X211171999Y-152488001D01*
X211359192Y-152613078D01*
X211457884Y-152632710D01*
X211644676Y-152912265D01*
X212026523Y-153167406D01*
X212476941Y-153257000D01*
X212523059Y-153257000D01*
X212973477Y-153167406D01*
X213355324Y-152912265D01*
X213610465Y-152530418D01*
X213700059Y-152080000D01*
X213610465Y-151629582D01*
X213355324Y-151247735D01*
X212973477Y-150992594D01*
X212523059Y-150903000D01*
X212476941Y-150903000D01*
X212026523Y-150992594D01*
X211644676Y-151247735D01*
X211612256Y-151296255D01*
X208574820Y-148258818D01*
X208574820Y-135584820D01*
X208935790Y-135343627D01*
X209223337Y-134913283D01*
X209267820Y-134689652D01*
X209312303Y-134913283D01*
X209599850Y-135343627D01*
X209960820Y-135584820D01*
X209960820Y-137791594D01*
X209950000Y-137791594D01*
X209828821Y-137814395D01*
X209717526Y-137886012D01*
X209642862Y-137995286D01*
X209616594Y-138125000D01*
X209616594Y-138875000D01*
X209639395Y-138996179D01*
X209711012Y-139107474D01*
X209820286Y-139182138D01*
X209896660Y-139197604D01*
X209823109Y-139374735D01*
X209822891Y-139624171D01*
X209918145Y-139854703D01*
X209973000Y-139909654D01*
X209973000Y-148549995D01*
X209972999Y-148550000D01*
X210016922Y-148770808D01*
X210141999Y-148958001D01*
X211131997Y-149947998D01*
X211131999Y-149948001D01*
X211244213Y-150022979D01*
X211319191Y-150073078D01*
X211464015Y-150101886D01*
X211644676Y-150372265D01*
X212026523Y-150627406D01*
X212476941Y-150717000D01*
X212523059Y-150717000D01*
X212973477Y-150627406D01*
X213355324Y-150372265D01*
X213610465Y-149990418D01*
X213700059Y-149540000D01*
X213610465Y-149089582D01*
X213355324Y-148707735D01*
X212973477Y-148452594D01*
X212523059Y-148363000D01*
X212476941Y-148363000D01*
X212026523Y-148452594D01*
X211644676Y-148707735D01*
X211596234Y-148780233D01*
X211127000Y-148310998D01*
X211127000Y-146150000D01*
X211316594Y-146150000D01*
X211316594Y-147850000D01*
X211339395Y-147971179D01*
X211411012Y-148082474D01*
X211520286Y-148157138D01*
X211650000Y-148183406D01*
X213350000Y-148183406D01*
X213471179Y-148160605D01*
X213582474Y-148088988D01*
X213657138Y-147979714D01*
X213683406Y-147850000D01*
X213683406Y-146632596D01*
X215858001Y-144458001D01*
X215983078Y-144270808D01*
X216027001Y-144050000D01*
X216027000Y-144049995D01*
X216027000Y-141708406D01*
X216050000Y-141708406D01*
X216171179Y-141685605D01*
X216282474Y-141613988D01*
X216357138Y-141504714D01*
X216383406Y-141375000D01*
X216383406Y-140625000D01*
X216360605Y-140503821D01*
X216288988Y-140392526D01*
X216194820Y-140328184D01*
X216194820Y-135584820D01*
X216555790Y-135343627D01*
X216843337Y-134913283D01*
X216944310Y-134405657D01*
X216944310Y-133589703D01*
X216843337Y-133082077D01*
X216555790Y-132651733D01*
X216125446Y-132364186D01*
X215617820Y-132263213D01*
X215110194Y-132364186D01*
X214679850Y-132651733D01*
X214532747Y-132871887D01*
X214143776Y-132377468D01*
X213585979Y-132064357D01*
X213458174Y-132033411D01*
X213204820Y-132152765D01*
X213204820Y-133870680D01*
X213224820Y-133870680D01*
X213224820Y-134124680D01*
X213204820Y-134124680D01*
X213204820Y-135842595D01*
X213458174Y-135961949D01*
X213585979Y-135931003D01*
X214143776Y-135617892D01*
X214532747Y-135123473D01*
X214679850Y-135343627D01*
X215040820Y-135584820D01*
X215040820Y-140291594D01*
X214850000Y-140291594D01*
X214728821Y-140314395D01*
X214712905Y-140324637D01*
X214688327Y-140265301D01*
X214509698Y-140086673D01*
X214276309Y-139990000D01*
X213835750Y-139990000D01*
X213677000Y-140148750D01*
X213677000Y-140873000D01*
X213697000Y-140873000D01*
X213697000Y-141127000D01*
X213677000Y-141127000D01*
X213677000Y-141851250D01*
X213835750Y-142010000D01*
X214276309Y-142010000D01*
X214509698Y-141913327D01*
X214688327Y-141734699D01*
X214712346Y-141676713D01*
X214720286Y-141682138D01*
X214850000Y-141708406D01*
X214873000Y-141708406D01*
X214873000Y-143810998D01*
X212867404Y-145816594D01*
X211650000Y-145816594D01*
X211528821Y-145839395D01*
X211417526Y-145911012D01*
X211342862Y-146020286D01*
X211316594Y-146150000D01*
X211127000Y-146150000D01*
X211127000Y-141285750D01*
X212315000Y-141285750D01*
X212315000Y-141501310D01*
X212411673Y-141734699D01*
X212590302Y-141913327D01*
X212823691Y-142010000D01*
X213264250Y-142010000D01*
X213423000Y-141851250D01*
X213423000Y-141127000D01*
X212473750Y-141127000D01*
X212315000Y-141285750D01*
X211127000Y-141285750D01*
X211127000Y-140498690D01*
X212315000Y-140498690D01*
X212315000Y-140714250D01*
X212473750Y-140873000D01*
X213423000Y-140873000D01*
X213423000Y-140148750D01*
X213264250Y-139990000D01*
X212823691Y-139990000D01*
X212590302Y-140086673D01*
X212411673Y-140265301D01*
X212315000Y-140498690D01*
X211127000Y-140498690D01*
X211127000Y-139643343D01*
X211129272Y-139639943D01*
X211177000Y-139400000D01*
X211177000Y-139203326D01*
X211271179Y-139185605D01*
X211287095Y-139175363D01*
X211311673Y-139234699D01*
X211490302Y-139413327D01*
X211723691Y-139510000D01*
X212164250Y-139510000D01*
X212323000Y-139351250D01*
X212323000Y-138627000D01*
X212577000Y-138627000D01*
X212577000Y-139351250D01*
X212735750Y-139510000D01*
X213176309Y-139510000D01*
X213409698Y-139413327D01*
X213588327Y-139234699D01*
X213685000Y-139001310D01*
X213685000Y-138785750D01*
X213526250Y-138627000D01*
X212577000Y-138627000D01*
X212323000Y-138627000D01*
X212303000Y-138627000D01*
X212303000Y-138373000D01*
X212323000Y-138373000D01*
X212323000Y-137648750D01*
X212577000Y-137648750D01*
X212577000Y-138373000D01*
X213526250Y-138373000D01*
X213685000Y-138214250D01*
X213685000Y-137998690D01*
X213588327Y-137765301D01*
X213409698Y-137586673D01*
X213176309Y-137490000D01*
X212735750Y-137490000D01*
X212577000Y-137648750D01*
X212323000Y-137648750D01*
X212164250Y-137490000D01*
X211723691Y-137490000D01*
X211490302Y-137586673D01*
X211311673Y-137765301D01*
X211287654Y-137823287D01*
X211279714Y-137817862D01*
X211150000Y-137791594D01*
X211114820Y-137791594D01*
X211114820Y-135584820D01*
X211475790Y-135343627D01*
X211622893Y-135123473D01*
X212011864Y-135617892D01*
X212569661Y-135931003D01*
X212697466Y-135961949D01*
X212950820Y-135842595D01*
X212950820Y-134124680D01*
X212930820Y-134124680D01*
X212930820Y-133870680D01*
X212950820Y-133870680D01*
X212950820Y-132152765D01*
X212697466Y-132033411D01*
X212569661Y-132064357D01*
X212011864Y-132377468D01*
X211622893Y-132871887D01*
X211475790Y-132651733D01*
X211045446Y-132364186D01*
X210537820Y-132263213D01*
X210030194Y-132364186D01*
X209599850Y-132651733D01*
X209312303Y-133082077D01*
X209267820Y-133305708D01*
X209223337Y-133082077D01*
X208935790Y-132651733D01*
X208505446Y-132364186D01*
X207997820Y-132263213D01*
X207490194Y-132364186D01*
X207059850Y-132651733D01*
X206772303Y-133082077D01*
X206727820Y-133305708D01*
X206683337Y-133082077D01*
X206395790Y-132651733D01*
X205965446Y-132364186D01*
X205457820Y-132263213D01*
X204950194Y-132364186D01*
X204519850Y-132651733D01*
X204232303Y-133082077D01*
X204187820Y-133305708D01*
X204143337Y-133082077D01*
X203855790Y-132651733D01*
X203425446Y-132364186D01*
X202917820Y-132263213D01*
X202410194Y-132364186D01*
X201979850Y-132651733D01*
X201692303Y-133082077D01*
X201647820Y-133305708D01*
X201603337Y-133082077D01*
X201315790Y-132651733D01*
X200885446Y-132364186D01*
X200377820Y-132263213D01*
X199870194Y-132364186D01*
X199439850Y-132651733D01*
X199152303Y-133082077D01*
X199051330Y-133589703D01*
X199051330Y-134405657D01*
X199152303Y-134913283D01*
X199439850Y-135343627D01*
X199850820Y-135618229D01*
X199850820Y-136403889D01*
X198281710Y-137973000D01*
X196718290Y-137973000D01*
X194027000Y-135281710D01*
X194027000Y-135024171D01*
X194822891Y-135024171D01*
X194918145Y-135254703D01*
X195094369Y-135431235D01*
X195324735Y-135526891D01*
X195574171Y-135527109D01*
X195804703Y-135431855D01*
X195981235Y-135255631D01*
X196076891Y-135025265D01*
X196077109Y-134775829D01*
X196077000Y-134775565D01*
X196077000Y-127250000D01*
X197930689Y-127250000D01*
X197994250Y-127569541D01*
X198175255Y-127840434D01*
X198446148Y-128021439D01*
X198765689Y-128085000D01*
X199834311Y-128085000D01*
X200153852Y-128021439D01*
X200424745Y-127840434D01*
X200605750Y-127569541D01*
X200636143Y-127416742D01*
X212865531Y-127416742D01*
X213002031Y-127747098D01*
X213254563Y-128000070D01*
X213584680Y-128137147D01*
X213942126Y-128137459D01*
X214272482Y-128000959D01*
X214525454Y-127748427D01*
X214662531Y-127418310D01*
X214662843Y-127060864D01*
X214526343Y-126730508D01*
X214273811Y-126477536D01*
X213943694Y-126340459D01*
X213586248Y-126340147D01*
X213255892Y-126476647D01*
X213002920Y-126729179D01*
X212865843Y-127059296D01*
X212865531Y-127416742D01*
X200636143Y-127416742D01*
X200669311Y-127250000D01*
X200605750Y-126930459D01*
X200424745Y-126659566D01*
X200153852Y-126478561D01*
X199834311Y-126415000D01*
X198765689Y-126415000D01*
X198446148Y-126478561D01*
X198175255Y-126659566D01*
X197994250Y-126930459D01*
X197930689Y-127250000D01*
X196077000Y-127250000D01*
X196077000Y-124700000D01*
X197930689Y-124700000D01*
X197994250Y-125019541D01*
X198175255Y-125290434D01*
X198446148Y-125471439D01*
X198765689Y-125535000D01*
X199834311Y-125535000D01*
X200153852Y-125471439D01*
X200424745Y-125290434D01*
X200605750Y-125019541D01*
X200634154Y-124876742D01*
X212865531Y-124876742D01*
X213002031Y-125207098D01*
X213254563Y-125460070D01*
X213584680Y-125597147D01*
X213942126Y-125597459D01*
X214272482Y-125460959D01*
X214525454Y-125208427D01*
X214662531Y-124878310D01*
X214662843Y-124520864D01*
X214526343Y-124190508D01*
X214273811Y-123937536D01*
X213943694Y-123800459D01*
X213586248Y-123800147D01*
X213255892Y-123936647D01*
X213002920Y-124189179D01*
X212865843Y-124519296D01*
X212865531Y-124876742D01*
X200634154Y-124876742D01*
X200669311Y-124700000D01*
X200605750Y-124380459D01*
X200424745Y-124109566D01*
X200153852Y-123928561D01*
X199834311Y-123865000D01*
X198765689Y-123865000D01*
X198446148Y-123928561D01*
X198175255Y-124109566D01*
X197994250Y-124380459D01*
X197930689Y-124700000D01*
X196077000Y-124700000D01*
X196077000Y-110145416D01*
X196126891Y-110025265D01*
X196127109Y-109775829D01*
X196031855Y-109545297D01*
X195855631Y-109368765D01*
X195625265Y-109273109D01*
X195375829Y-109272891D01*
X195145297Y-109368145D01*
X194968765Y-109544369D01*
X194947962Y-109594467D01*
X194870728Y-109710057D01*
X194823000Y-109950000D01*
X194823000Y-134899453D01*
X194822891Y-135024171D01*
X194027000Y-135024171D01*
X194027000Y-103218290D01*
X207218290Y-90027000D01*
X210039452Y-90027000D01*
X210076252Y-90116063D01*
X210382326Y-90422671D01*
X210568518Y-90499985D01*
X210383937Y-90576252D01*
X210077329Y-90882326D01*
X210039678Y-90973000D01*
X207500000Y-90973000D01*
X207298326Y-91013115D01*
X207127355Y-91127354D01*
X200005175Y-98249535D01*
X199890935Y-98420505D01*
X199890935Y-98420506D01*
X199850820Y-98622180D01*
X199850820Y-116212571D01*
X199439850Y-116487173D01*
X199152303Y-116917517D01*
X199051330Y-117425143D01*
X199051330Y-118241097D01*
X199152303Y-118748723D01*
X199439850Y-119179067D01*
X199870194Y-119466614D01*
X200377820Y-119567587D01*
X200885446Y-119466614D01*
X201315790Y-119179067D01*
X201603337Y-118748723D01*
X201647820Y-118525092D01*
X201692303Y-118748723D01*
X201979850Y-119179067D01*
X202410194Y-119466614D01*
X202917820Y-119567587D01*
X203425446Y-119466614D01*
X203855790Y-119179067D01*
X204143337Y-118748723D01*
X204187820Y-118525092D01*
X204232303Y-118748723D01*
X204519850Y-119179067D01*
X204950194Y-119466614D01*
X205457820Y-119567587D01*
X205965446Y-119466614D01*
X206395790Y-119179067D01*
X206683337Y-118748723D01*
X206727820Y-118525092D01*
X206772303Y-118748723D01*
X207059850Y-119179067D01*
X207490194Y-119466614D01*
X207997820Y-119567587D01*
X208505446Y-119466614D01*
X208935790Y-119179067D01*
X209223337Y-118748723D01*
X209267820Y-118525092D01*
X209312303Y-118748723D01*
X209599850Y-119179067D01*
X210030194Y-119466614D01*
X210537820Y-119567587D01*
X211045446Y-119466614D01*
X211475790Y-119179067D01*
X211763337Y-118748723D01*
X211807820Y-118525092D01*
X211852303Y-118748723D01*
X212139850Y-119179067D01*
X212570194Y-119466614D01*
X213077820Y-119567587D01*
X213585446Y-119466614D01*
X214015790Y-119179067D01*
X214303337Y-118748723D01*
X214347820Y-118525092D01*
X214392303Y-118748723D01*
X214679850Y-119179067D01*
X215110194Y-119466614D01*
X215617820Y-119567587D01*
X216125446Y-119466614D01*
X216555790Y-119179067D01*
X216843337Y-118748723D01*
X216944310Y-118241097D01*
X216944310Y-117425143D01*
X216843337Y-116917517D01*
X216555790Y-116487173D01*
X216244820Y-116279389D01*
X216244820Y-112617820D01*
X216197092Y-112377877D01*
X216061176Y-112174464D01*
X215771601Y-111884889D01*
X215771634Y-111847212D01*
X215654428Y-111563551D01*
X215437590Y-111346335D01*
X215154134Y-111228634D01*
X214847212Y-111228366D01*
X214563551Y-111345572D01*
X214346335Y-111562410D01*
X214228634Y-111845866D01*
X214228366Y-112152788D01*
X214345572Y-112436449D01*
X214562410Y-112653665D01*
X214845866Y-112771366D01*
X214884688Y-112771400D01*
X214990820Y-112877532D01*
X214990820Y-116279389D01*
X214679850Y-116487173D01*
X214392303Y-116917517D01*
X214347820Y-117141148D01*
X214303337Y-116917517D01*
X214015790Y-116487173D01*
X213704820Y-116279389D01*
X213704820Y-114077820D01*
X213700608Y-114056644D01*
X213657093Y-113837878D01*
X213521176Y-113634464D01*
X213271601Y-113384889D01*
X213271634Y-113347212D01*
X213154428Y-113063551D01*
X212937590Y-112846335D01*
X212654134Y-112728634D01*
X212347212Y-112728366D01*
X212063551Y-112845572D01*
X211846335Y-113062410D01*
X211728634Y-113345866D01*
X211728366Y-113652788D01*
X211845572Y-113936449D01*
X212062410Y-114153665D01*
X212345866Y-114271366D01*
X212384688Y-114271400D01*
X212450820Y-114337532D01*
X212450820Y-116279389D01*
X212139850Y-116487173D01*
X211852303Y-116917517D01*
X211807820Y-117141148D01*
X211763337Y-116917517D01*
X211475790Y-116487173D01*
X211164820Y-116279389D01*
X211164820Y-115037820D01*
X211117092Y-114797877D01*
X210981176Y-114594464D01*
X210771601Y-114384889D01*
X210771634Y-114347212D01*
X210654428Y-114063551D01*
X210437590Y-113846335D01*
X210154134Y-113728634D01*
X209847212Y-113728366D01*
X209563551Y-113845572D01*
X209346335Y-114062410D01*
X209228634Y-114345866D01*
X209228366Y-114652788D01*
X209345572Y-114936449D01*
X209562410Y-115153665D01*
X209845866Y-115271366D01*
X209884688Y-115271400D01*
X209910820Y-115297532D01*
X209910820Y-116279389D01*
X209599850Y-116487173D01*
X209312303Y-116917517D01*
X209267820Y-117141148D01*
X209223337Y-116917517D01*
X208935790Y-116487173D01*
X208624820Y-116279389D01*
X208624820Y-115966385D01*
X208653665Y-115937590D01*
X208771366Y-115654134D01*
X208771634Y-115347212D01*
X208654428Y-115063551D01*
X208437590Y-114846335D01*
X208154134Y-114728634D01*
X207847212Y-114728366D01*
X207563551Y-114845572D01*
X207346335Y-115062410D01*
X207228634Y-115345866D01*
X207228366Y-115652788D01*
X207345572Y-115936449D01*
X207370820Y-115961741D01*
X207370820Y-116279389D01*
X207059850Y-116487173D01*
X206772303Y-116917517D01*
X206727820Y-117141148D01*
X206683337Y-116917517D01*
X206395790Y-116487173D01*
X205984820Y-116212571D01*
X205984820Y-111457820D01*
X205944705Y-111256146D01*
X205944705Y-111256145D01*
X205830465Y-111085175D01*
X205725503Y-110980213D01*
X210199392Y-110980213D01*
X210268857Y-111222397D01*
X210792302Y-111409144D01*
X211347368Y-111381362D01*
X211731143Y-111222397D01*
X211800608Y-110980213D01*
X211000000Y-110179605D01*
X210199392Y-110980213D01*
X205725503Y-110980213D01*
X205527000Y-110781710D01*
X205527000Y-108218290D01*
X205935143Y-107810147D01*
X206050000Y-107833406D01*
X206950000Y-107833406D01*
X207071179Y-107810605D01*
X207182474Y-107738988D01*
X207257138Y-107629714D01*
X207283406Y-107500000D01*
X207283406Y-107427000D01*
X208100000Y-107427000D01*
X208301675Y-107386885D01*
X208472645Y-107272645D01*
X209218290Y-106527000D01*
X210039452Y-106527000D01*
X210076252Y-106616063D01*
X210382326Y-106922671D01*
X210568518Y-106999985D01*
X210383937Y-107076252D01*
X210086671Y-107373000D01*
X209450000Y-107373000D01*
X209210058Y-107420727D01*
X209006644Y-107556644D01*
X208090288Y-108473000D01*
X207278326Y-108473000D01*
X207260605Y-108378821D01*
X207188988Y-108267526D01*
X207079714Y-108192862D01*
X206950000Y-108166594D01*
X206050000Y-108166594D01*
X205928821Y-108189395D01*
X205817526Y-108261012D01*
X205742862Y-108370286D01*
X205716594Y-108500000D01*
X205716594Y-109700000D01*
X205739395Y-109821179D01*
X205811012Y-109932474D01*
X205920286Y-110007138D01*
X206050000Y-110033406D01*
X206950000Y-110033406D01*
X207071179Y-110010605D01*
X207182474Y-109938988D01*
X207257138Y-109829714D01*
X207264714Y-109792302D01*
X209590856Y-109792302D01*
X209618638Y-110347368D01*
X209777603Y-110731143D01*
X210019787Y-110800608D01*
X210820395Y-110000000D01*
X211179605Y-110000000D01*
X211980213Y-110800608D01*
X212222397Y-110731143D01*
X212409144Y-110207698D01*
X212381362Y-109652632D01*
X212222397Y-109268857D01*
X211980213Y-109199392D01*
X211179605Y-110000000D01*
X210820395Y-110000000D01*
X210019787Y-109199392D01*
X209777603Y-109268857D01*
X209590856Y-109792302D01*
X207264714Y-109792302D01*
X207277938Y-109727000D01*
X208350000Y-109727000D01*
X208589943Y-109679272D01*
X208793356Y-109543356D01*
X209709712Y-108627000D01*
X210087170Y-108627000D01*
X210261861Y-108801995D01*
X210199392Y-109019787D01*
X211000000Y-109820395D01*
X211800608Y-109019787D01*
X211738115Y-108801909D01*
X211922671Y-108617674D01*
X212088811Y-108217566D01*
X212089189Y-107784335D01*
X211923748Y-107383937D01*
X211617674Y-107077329D01*
X211431482Y-107000015D01*
X211616063Y-106923748D01*
X211922671Y-106617674D01*
X212088811Y-106217566D01*
X212089189Y-105784335D01*
X211923748Y-105383937D01*
X211617674Y-105077329D01*
X211431482Y-105000015D01*
X211616063Y-104923748D01*
X211922671Y-104617674D01*
X212088811Y-104217566D01*
X212089189Y-103784335D01*
X211923748Y-103383937D01*
X211617674Y-103077329D01*
X211217566Y-102911189D01*
X210784335Y-102910811D01*
X210383937Y-103076252D01*
X210077329Y-103382326D01*
X210039678Y-103473000D01*
X206000000Y-103473000D01*
X205831785Y-103506460D01*
X205798325Y-103513115D01*
X205627355Y-103627355D01*
X204881710Y-104373000D01*
X204283406Y-104373000D01*
X204283406Y-104300000D01*
X204260605Y-104178821D01*
X204188988Y-104067526D01*
X204079714Y-103992862D01*
X203950000Y-103966594D01*
X203050000Y-103966594D01*
X202928821Y-103989395D01*
X202817526Y-104061012D01*
X202742862Y-104170286D01*
X202716594Y-104300000D01*
X202716594Y-104538116D01*
X201627355Y-105627355D01*
X201513115Y-105798325D01*
X201506137Y-105833406D01*
X201473000Y-106000000D01*
X201473000Y-109000000D01*
X201513115Y-109201675D01*
X201627355Y-109372645D01*
X202390820Y-110136111D01*
X202390820Y-116212571D01*
X201979850Y-116487173D01*
X201692303Y-116917517D01*
X201647820Y-117141148D01*
X201603337Y-116917517D01*
X201315790Y-116487173D01*
X200904820Y-116212571D01*
X200904820Y-98840470D01*
X203265077Y-96480213D01*
X210199392Y-96480213D01*
X210268857Y-96722397D01*
X210792302Y-96909144D01*
X211347368Y-96881362D01*
X211731143Y-96722397D01*
X211800608Y-96480213D01*
X211000000Y-95679605D01*
X210199392Y-96480213D01*
X203265077Y-96480213D01*
X204452988Y-95292302D01*
X209590856Y-95292302D01*
X209618638Y-95847368D01*
X209777603Y-96231143D01*
X210019787Y-96300608D01*
X210820395Y-95500000D01*
X211179605Y-95500000D01*
X211980213Y-96300608D01*
X212222397Y-96231143D01*
X212409144Y-95707698D01*
X212381362Y-95152632D01*
X212222397Y-94768857D01*
X211980213Y-94699392D01*
X211179605Y-95500000D01*
X210820395Y-95500000D01*
X210019787Y-94699392D01*
X209777603Y-94768857D01*
X209590856Y-95292302D01*
X204452988Y-95292302D01*
X207718291Y-92027000D01*
X210039452Y-92027000D01*
X210076252Y-92116063D01*
X210382326Y-92422671D01*
X210568518Y-92499985D01*
X210383937Y-92576252D01*
X210077329Y-92882326D01*
X209911189Y-93282434D01*
X209910811Y-93715665D01*
X210076252Y-94116063D01*
X210261861Y-94301995D01*
X210199392Y-94519787D01*
X211000000Y-95320395D01*
X211800608Y-94519787D01*
X211738115Y-94301909D01*
X211922671Y-94117674D01*
X212088811Y-93717566D01*
X212089189Y-93284335D01*
X211923748Y-92883937D01*
X211617674Y-92577329D01*
X211431482Y-92500015D01*
X211616063Y-92423748D01*
X211922671Y-92117674D01*
X212088811Y-91717566D01*
X212089189Y-91284335D01*
X211923748Y-90883937D01*
X211617674Y-90577329D01*
X211431482Y-90500015D01*
X211616063Y-90423748D01*
X211922671Y-90117674D01*
X212088811Y-89717566D01*
X212089189Y-89284335D01*
X211923748Y-88883937D01*
X211617674Y-88577329D01*
X211217566Y-88411189D01*
X210784335Y-88410811D01*
X210383937Y-88576252D01*
X210077329Y-88882326D01*
X210039678Y-88973000D01*
X207000000Y-88973000D01*
X206798325Y-89013115D01*
X206627355Y-89127355D01*
X193127355Y-102627355D01*
X193013115Y-102798325D01*
X193013115Y-102798326D01*
X192973000Y-103000000D01*
X167970628Y-103000000D01*
X168026682Y-102865007D01*
X168027316Y-102138182D01*
X167749758Y-101466440D01*
X167236264Y-100952048D01*
X166565007Y-100673318D01*
X165838182Y-100672684D01*
X165166440Y-100950242D01*
X164652048Y-101463736D01*
X164373318Y-102134993D01*
X164372684Y-102861818D01*
X161676684Y-102861818D01*
X161677316Y-102138182D01*
X161399758Y-101466440D01*
X160886264Y-100952048D01*
X160215007Y-100673318D01*
X159488182Y-100672684D01*
X158816440Y-100950242D01*
X158302048Y-101463736D01*
X158023318Y-102134993D01*
X158022684Y-102861818D01*
X155635000Y-102861818D01*
X155635000Y-102785750D01*
X155476250Y-102627000D01*
X153627000Y-102627000D01*
X153373000Y-102627000D01*
X153353000Y-102627000D01*
X153353000Y-102373000D01*
X153373000Y-102373000D01*
X153373000Y-100523750D01*
X153627000Y-100523750D01*
X153627000Y-102373000D01*
X155476250Y-102373000D01*
X155635000Y-102214250D01*
X155635000Y-100873691D01*
X155538327Y-100640302D01*
X155359699Y-100461673D01*
X155126310Y-100365000D01*
X153785750Y-100365000D01*
X153627000Y-100523750D01*
X153373000Y-100523750D01*
X153214250Y-100365000D01*
X151877000Y-100365000D01*
X151877000Y-87126301D01*
X151950242Y-87303560D01*
X152463736Y-87817952D01*
X153134993Y-88096682D01*
X153861818Y-88097316D01*
X154533560Y-87819758D01*
X155047952Y-87306264D01*
X155326682Y-86635007D01*
X155326684Y-86631818D01*
X158022684Y-86631818D01*
X158300242Y-87303560D01*
X158813736Y-87817952D01*
X159484993Y-88096682D01*
X160211818Y-88097316D01*
X160883560Y-87819758D01*
X161397952Y-87306264D01*
X161676682Y-86635007D01*
X161676684Y-86631818D01*
X164372684Y-86631818D01*
X164650242Y-87303560D01*
X165163736Y-87817952D01*
X165834993Y-88096682D01*
X166561818Y-88097316D01*
X167233560Y-87819758D01*
X167747952Y-87306264D01*
X168026682Y-86635007D01*
X168027316Y-85908182D01*
X167749758Y-85236440D01*
X167236264Y-84722048D01*
X166565007Y-84443318D01*
X165838182Y-84442684D01*
X165166440Y-84720242D01*
X164652048Y-85233736D01*
X164373318Y-85904993D01*
X164372684Y-86631818D01*
X161676684Y-86631818D01*
X161677316Y-85908182D01*
X161399758Y-85236440D01*
X160886264Y-84722048D01*
X160215007Y-84443318D01*
X159488182Y-84442684D01*
X158816440Y-84720242D01*
X158302048Y-85233736D01*
X158023318Y-85904993D01*
X158022684Y-86631818D01*
X155326684Y-86631818D01*
X155327316Y-85908182D01*
X155049758Y-85236440D01*
X154536264Y-84722048D01*
X153865007Y-84443318D01*
X153138182Y-84442684D01*
X152466440Y-84720242D01*
X151952048Y-85233736D01*
X151877000Y-85414472D01*
X151877000Y-81537131D01*
X151877819Y-81533014D01*
X152271639Y-82486132D01*
X153009981Y-83225764D01*
X153975165Y-83626543D01*
X155020250Y-83627455D01*
X155986132Y-83228361D01*
X156725764Y-82490019D01*
X157126543Y-81524835D01*
X157127455Y-80479750D01*
X156728361Y-79513868D01*
X156092604Y-78877000D01*
X212908323Y-78877000D01*
X212274236Y-79509981D01*
M02*
