G04 #@! TF.FileFunction,Legend,Top*
%FSLAX46Y46*%
G04 Gerber Fmt 4.6, Leading zero omitted, Abs format (unit mm)*
G04 Created by KiCad (PCBNEW 4.0.7) date 09/24/20 20:34:46*
%MOMM*%
%LPD*%
G01*
G04 APERTURE LIST*
%ADD10C,0.200000*%
%ADD11C,0.300000*%
%ADD12C,0.150000*%
%ADD13C,0.002540*%
%ADD14C,0.100000*%
%ADD15C,0.120000*%
%ADD16C,0.127000*%
%ADD17C,0.066040*%
%ADD18C,0.101600*%
%ADD19C,0.076200*%
%ADD20C,1.524000*%
%ADD21R,1.200000X0.750000*%
%ADD22R,1.700000X1.700000*%
%ADD23O,1.700000X1.700000*%
%ADD24R,0.900000X1.200000*%
%ADD25O,1.998980X2.748280*%
%ADD26O,2.032000X1.016000*%
%ADD27C,1.143000*%
%ADD28C,3.000000*%
%ADD29R,3.000000X3.000000*%
G04 APERTURE END LIST*
D10*
D11*
X142078571Y-132071428D02*
X142078571Y-131785713D01*
X142007143Y-131642856D01*
X141935714Y-131571428D01*
X141721429Y-131428570D01*
X141435714Y-131357142D01*
X140864286Y-131357142D01*
X140721429Y-131428570D01*
X140650000Y-131499999D01*
X140578571Y-131642856D01*
X140578571Y-131928570D01*
X140650000Y-132071428D01*
X140721429Y-132142856D01*
X140864286Y-132214285D01*
X141221429Y-132214285D01*
X141364286Y-132142856D01*
X141435714Y-132071428D01*
X141507143Y-131928570D01*
X141507143Y-131642856D01*
X141435714Y-131499999D01*
X141364286Y-131428570D01*
X141221429Y-131357142D01*
X140578571Y-129999999D02*
X140578571Y-130714285D01*
X141292857Y-130785714D01*
X141221429Y-130714285D01*
X141150000Y-130571428D01*
X141150000Y-130214285D01*
X141221429Y-130071428D01*
X141292857Y-129999999D01*
X141435714Y-129928571D01*
X141792857Y-129928571D01*
X141935714Y-129999999D01*
X142007143Y-130071428D01*
X142078571Y-130214285D01*
X142078571Y-130571428D01*
X142007143Y-130714285D01*
X141935714Y-130785714D01*
X141935714Y-129285714D02*
X142007143Y-129214286D01*
X142078571Y-129285714D01*
X142007143Y-129357143D01*
X141935714Y-129285714D01*
X142078571Y-129285714D01*
X140578571Y-128285714D02*
X140578571Y-128142857D01*
X140650000Y-128000000D01*
X140721429Y-127928571D01*
X140864286Y-127857142D01*
X141150000Y-127785714D01*
X141507143Y-127785714D01*
X141792857Y-127857142D01*
X141935714Y-127928571D01*
X142007143Y-128000000D01*
X142078571Y-128142857D01*
X142078571Y-128285714D01*
X142007143Y-128428571D01*
X141935714Y-128500000D01*
X141792857Y-128571428D01*
X141507143Y-128642857D01*
X141150000Y-128642857D01*
X140864286Y-128571428D01*
X140721429Y-128500000D01*
X140650000Y-128428571D01*
X140578571Y-128285714D01*
X140578571Y-126857143D02*
X140578571Y-126714286D01*
X140650000Y-126571429D01*
X140721429Y-126500000D01*
X140864286Y-126428571D01*
X141150000Y-126357143D01*
X141507143Y-126357143D01*
X141792857Y-126428571D01*
X141935714Y-126500000D01*
X142007143Y-126571429D01*
X142078571Y-126714286D01*
X142078571Y-126857143D01*
X142007143Y-127000000D01*
X141935714Y-127071429D01*
X141792857Y-127142857D01*
X141507143Y-127214286D01*
X141150000Y-127214286D01*
X140864286Y-127142857D01*
X140721429Y-127071429D01*
X140650000Y-127000000D01*
X140578571Y-126857143D01*
X140578571Y-125428572D02*
X140578571Y-125285715D01*
X140650000Y-125142858D01*
X140721429Y-125071429D01*
X140864286Y-125000000D01*
X141150000Y-124928572D01*
X141507143Y-124928572D01*
X141792857Y-125000000D01*
X141935714Y-125071429D01*
X142007143Y-125142858D01*
X142078571Y-125285715D01*
X142078571Y-125428572D01*
X142007143Y-125571429D01*
X141935714Y-125642858D01*
X141792857Y-125714286D01*
X141507143Y-125785715D01*
X141150000Y-125785715D01*
X140864286Y-125714286D01*
X140721429Y-125642858D01*
X140650000Y-125571429D01*
X140578571Y-125428572D01*
X142078571Y-123142858D02*
X141078571Y-123142858D01*
X141221429Y-123142858D02*
X141150000Y-123071430D01*
X141078571Y-122928572D01*
X141078571Y-122714287D01*
X141150000Y-122571430D01*
X141292857Y-122500001D01*
X142078571Y-122500001D01*
X141292857Y-122500001D02*
X141150000Y-122428572D01*
X141078571Y-122285715D01*
X141078571Y-122071430D01*
X141150000Y-121928572D01*
X141292857Y-121857144D01*
X142078571Y-121857144D01*
X142078571Y-121142858D02*
X141078571Y-121142858D01*
X141221429Y-121142858D02*
X141150000Y-121071430D01*
X141078571Y-120928572D01*
X141078571Y-120714287D01*
X141150000Y-120571430D01*
X141292857Y-120500001D01*
X142078571Y-120500001D01*
X141292857Y-120500001D02*
X141150000Y-120428572D01*
X141078571Y-120285715D01*
X141078571Y-120071430D01*
X141150000Y-119928572D01*
X141292857Y-119857144D01*
X142078571Y-119857144D01*
X142750000Y-173500000D02*
X142750000Y-78500000D01*
X154500000Y-173500000D02*
X140050000Y-173500000D01*
X154500000Y-78500000D02*
X140050000Y-78500000D01*
X142750000Y-78500000D02*
X143336421Y-79626504D01*
X142750000Y-78500000D02*
X142163579Y-79626504D01*
X142750000Y-173500000D02*
X143336421Y-172373496D01*
X142750000Y-173500000D02*
X142163579Y-172373496D01*
X192214286Y-125178571D02*
X193214286Y-126678571D01*
X193214286Y-125178571D02*
X192214286Y-126678571D01*
X193785714Y-126678571D02*
X193785714Y-125178571D01*
X194428571Y-126250000D02*
X195142857Y-126250000D01*
X194285714Y-126678571D02*
X194785714Y-125178571D01*
X195285714Y-126678571D01*
X196071428Y-125178571D02*
X196357142Y-125178571D01*
X196500000Y-125250000D01*
X196642857Y-125392857D01*
X196714285Y-125678571D01*
X196714285Y-126178571D01*
X196642857Y-126464286D01*
X196500000Y-126607143D01*
X196357142Y-126678571D01*
X196071428Y-126678571D01*
X195928571Y-126607143D01*
X195785714Y-126464286D01*
X195714285Y-126178571D01*
X195714285Y-125678571D01*
X195785714Y-125392857D01*
X195928571Y-125250000D01*
X196071428Y-125178571D01*
X204357143Y-156285714D02*
X204428571Y-156071428D01*
X204428571Y-155714285D01*
X204357143Y-155571428D01*
X204285714Y-155499999D01*
X204142857Y-155428571D01*
X204000000Y-155428571D01*
X203857143Y-155499999D01*
X203785714Y-155571428D01*
X203714286Y-155714285D01*
X203642857Y-155999999D01*
X203571429Y-156142857D01*
X203500000Y-156214285D01*
X203357143Y-156285714D01*
X203214286Y-156285714D01*
X203071429Y-156214285D01*
X203000000Y-156142857D01*
X202928571Y-155999999D01*
X202928571Y-155642857D01*
X203000000Y-155428571D01*
X204428571Y-154785714D02*
X202928571Y-154785714D01*
X202928571Y-154214286D01*
X203000000Y-154071428D01*
X203071429Y-154000000D01*
X203214286Y-153928571D01*
X203428571Y-153928571D01*
X203571429Y-154000000D01*
X203642857Y-154071428D01*
X203714286Y-154214286D01*
X203714286Y-154785714D01*
X204428571Y-153285714D02*
X202928571Y-153285714D01*
X216428571Y-108464285D02*
X214928571Y-108464285D01*
X215071429Y-107821428D02*
X215000000Y-107749999D01*
X214928571Y-107607142D01*
X214928571Y-107249999D01*
X215000000Y-107107142D01*
X215071429Y-107035713D01*
X215214286Y-106964285D01*
X215357143Y-106964285D01*
X215571429Y-107035713D01*
X216428571Y-107892856D01*
X216428571Y-106964285D01*
X216285714Y-105464285D02*
X216357143Y-105535714D01*
X216428571Y-105750000D01*
X216428571Y-105892857D01*
X216357143Y-106107142D01*
X216214286Y-106250000D01*
X216071429Y-106321428D01*
X215785714Y-106392857D01*
X215571429Y-106392857D01*
X215285714Y-106321428D01*
X215142857Y-106250000D01*
X215000000Y-106107142D01*
X214928571Y-105892857D01*
X214928571Y-105750000D01*
X215000000Y-105535714D01*
X215071429Y-105464285D01*
D10*
X208714287Y-146178571D02*
X208000001Y-146178571D01*
X207928572Y-146892857D01*
X208000001Y-146821429D01*
X208142858Y-146750000D01*
X208500001Y-146750000D01*
X208642858Y-146821429D01*
X208714287Y-146892857D01*
X208785715Y-147035714D01*
X208785715Y-147392857D01*
X208714287Y-147535714D01*
X208642858Y-147607143D01*
X208500001Y-147678571D01*
X208142858Y-147678571D01*
X208000001Y-147607143D01*
X207928572Y-147535714D01*
X209214286Y-146178571D02*
X209714286Y-147678571D01*
X210214286Y-146178571D01*
X206785715Y-148678571D02*
X207714286Y-148678571D01*
X207214286Y-149250000D01*
X207428572Y-149250000D01*
X207571429Y-149321429D01*
X207642858Y-149392857D01*
X207714286Y-149535714D01*
X207714286Y-149892857D01*
X207642858Y-150035714D01*
X207571429Y-150107143D01*
X207428572Y-150178571D01*
X207000000Y-150178571D01*
X206857143Y-150107143D01*
X206785715Y-150035714D01*
X208357143Y-150035714D02*
X208428571Y-150107143D01*
X208357143Y-150178571D01*
X208285714Y-150107143D01*
X208357143Y-150035714D01*
X208357143Y-150178571D01*
X208928572Y-148678571D02*
X209857143Y-148678571D01*
X209357143Y-149250000D01*
X209571429Y-149250000D01*
X209714286Y-149321429D01*
X209785715Y-149392857D01*
X209857143Y-149535714D01*
X209857143Y-149892857D01*
X209785715Y-150035714D01*
X209714286Y-150107143D01*
X209571429Y-150178571D01*
X209142857Y-150178571D01*
X209000000Y-150107143D01*
X208928572Y-150035714D01*
X210285714Y-148678571D02*
X210785714Y-150178571D01*
X211285714Y-148678571D01*
X206642857Y-152928571D02*
X206642857Y-151428571D01*
X207142857Y-152500000D01*
X207642857Y-151428571D01*
X207642857Y-152928571D01*
X208642857Y-151428571D02*
X208928571Y-151428571D01*
X209071429Y-151500000D01*
X209214286Y-151642857D01*
X209285714Y-151928571D01*
X209285714Y-152428571D01*
X209214286Y-152714286D01*
X209071429Y-152857143D01*
X208928571Y-152928571D01*
X208642857Y-152928571D01*
X208500000Y-152857143D01*
X208357143Y-152714286D01*
X208285714Y-152428571D01*
X208285714Y-151928571D01*
X208357143Y-151642857D01*
X208500000Y-151500000D01*
X208642857Y-151428571D01*
X209857143Y-152857143D02*
X210071429Y-152928571D01*
X210428572Y-152928571D01*
X210571429Y-152857143D01*
X210642858Y-152785714D01*
X210714286Y-152642857D01*
X210714286Y-152500000D01*
X210642858Y-152357143D01*
X210571429Y-152285714D01*
X210428572Y-152214286D01*
X210142858Y-152142857D01*
X210000000Y-152071429D01*
X209928572Y-152000000D01*
X209857143Y-151857143D01*
X209857143Y-151714286D01*
X209928572Y-151571429D01*
X210000000Y-151500000D01*
X210142858Y-151428571D01*
X210500000Y-151428571D01*
X210714286Y-151500000D01*
X211357143Y-152928571D02*
X211357143Y-151428571D01*
X206642857Y-155428571D02*
X206642857Y-153928571D01*
X207142857Y-155000000D01*
X207642857Y-153928571D01*
X207642857Y-155428571D01*
X208357143Y-155428571D02*
X208357143Y-153928571D01*
X209000000Y-155357143D02*
X209214286Y-155428571D01*
X209571429Y-155428571D01*
X209714286Y-155357143D01*
X209785715Y-155285714D01*
X209857143Y-155142857D01*
X209857143Y-155000000D01*
X209785715Y-154857143D01*
X209714286Y-154785714D01*
X209571429Y-154714286D01*
X209285715Y-154642857D01*
X209142857Y-154571429D01*
X209071429Y-154500000D01*
X209000000Y-154357143D01*
X209000000Y-154214286D01*
X209071429Y-154071429D01*
X209142857Y-154000000D01*
X209285715Y-153928571D01*
X209642857Y-153928571D01*
X209857143Y-154000000D01*
X210785714Y-153928571D02*
X211071428Y-153928571D01*
X211214286Y-154000000D01*
X211357143Y-154142857D01*
X211428571Y-154428571D01*
X211428571Y-154928571D01*
X211357143Y-155214286D01*
X211214286Y-155357143D01*
X211071428Y-155428571D01*
X210785714Y-155428571D01*
X210642857Y-155357143D01*
X210500000Y-155214286D01*
X210428571Y-154928571D01*
X210428571Y-154428571D01*
X210500000Y-154142857D01*
X210642857Y-154000000D01*
X210785714Y-153928571D01*
X207071429Y-157857143D02*
X207285715Y-157928571D01*
X207642858Y-157928571D01*
X207785715Y-157857143D01*
X207857144Y-157785714D01*
X207928572Y-157642857D01*
X207928572Y-157500000D01*
X207857144Y-157357143D01*
X207785715Y-157285714D01*
X207642858Y-157214286D01*
X207357144Y-157142857D01*
X207214286Y-157071429D01*
X207142858Y-157000000D01*
X207071429Y-156857143D01*
X207071429Y-156714286D01*
X207142858Y-156571429D01*
X207214286Y-156500000D01*
X207357144Y-156428571D01*
X207714286Y-156428571D01*
X207928572Y-156500000D01*
X209428572Y-157785714D02*
X209357143Y-157857143D01*
X209142857Y-157928571D01*
X209000000Y-157928571D01*
X208785715Y-157857143D01*
X208642857Y-157714286D01*
X208571429Y-157571429D01*
X208500000Y-157285714D01*
X208500000Y-157071429D01*
X208571429Y-156785714D01*
X208642857Y-156642857D01*
X208785715Y-156500000D01*
X209000000Y-156428571D01*
X209142857Y-156428571D01*
X209357143Y-156500000D01*
X209428572Y-156571429D01*
X210071429Y-157928571D02*
X210071429Y-156428571D01*
X210928572Y-157928571D02*
X210285715Y-157071429D01*
X210928572Y-156428571D02*
X210071429Y-157285714D01*
X207857143Y-159250000D02*
X207714286Y-159178571D01*
X207500000Y-159178571D01*
X207285715Y-159250000D01*
X207142857Y-159392857D01*
X207071429Y-159535714D01*
X207000000Y-159821429D01*
X207000000Y-160035714D01*
X207071429Y-160321429D01*
X207142857Y-160464286D01*
X207285715Y-160607143D01*
X207500000Y-160678571D01*
X207642857Y-160678571D01*
X207857143Y-160607143D01*
X207928572Y-160535714D01*
X207928572Y-160035714D01*
X207642857Y-160035714D01*
X208571429Y-160678571D02*
X208571429Y-159178571D01*
X209428572Y-160678571D01*
X209428572Y-159178571D01*
X210142858Y-160678571D02*
X210142858Y-159178571D01*
X210500001Y-159178571D01*
X210714286Y-159250000D01*
X210857144Y-159392857D01*
X210928572Y-159535714D01*
X211000001Y-159821429D01*
X211000001Y-160035714D01*
X210928572Y-160321429D01*
X210857144Y-160464286D01*
X210714286Y-160607143D01*
X210500001Y-160678571D01*
X210142858Y-160678571D01*
X205178572Y-106107143D02*
X205392858Y-106178571D01*
X205750001Y-106178571D01*
X205892858Y-106107143D01*
X205964287Y-106035714D01*
X206035715Y-105892857D01*
X206035715Y-105750000D01*
X205964287Y-105607143D01*
X205892858Y-105535714D01*
X205750001Y-105464286D01*
X205464287Y-105392857D01*
X205321429Y-105321429D01*
X205250001Y-105250000D01*
X205178572Y-105107143D01*
X205178572Y-104964286D01*
X205250001Y-104821429D01*
X205321429Y-104750000D01*
X205464287Y-104678571D01*
X205821429Y-104678571D01*
X206035715Y-104750000D01*
X206678572Y-106178571D02*
X206678572Y-104678571D01*
X207035715Y-104678571D01*
X207250000Y-104750000D01*
X207392858Y-104892857D01*
X207464286Y-105035714D01*
X207535715Y-105321429D01*
X207535715Y-105535714D01*
X207464286Y-105821429D01*
X207392858Y-105964286D01*
X207250000Y-106107143D01*
X207035715Y-106178571D01*
X206678572Y-106178571D01*
X208107143Y-105750000D02*
X208821429Y-105750000D01*
X207964286Y-106178571D02*
X208464286Y-104678571D01*
X208964286Y-106178571D01*
X205214286Y-104107143D02*
X205428572Y-104178571D01*
X205785715Y-104178571D01*
X205928572Y-104107143D01*
X206000001Y-104035714D01*
X206071429Y-103892857D01*
X206071429Y-103750000D01*
X206000001Y-103607143D01*
X205928572Y-103535714D01*
X205785715Y-103464286D01*
X205500001Y-103392857D01*
X205357143Y-103321429D01*
X205285715Y-103250000D01*
X205214286Y-103107143D01*
X205214286Y-102964286D01*
X205285715Y-102821429D01*
X205357143Y-102750000D01*
X205500001Y-102678571D01*
X205857143Y-102678571D01*
X206071429Y-102750000D01*
X207571429Y-104035714D02*
X207500000Y-104107143D01*
X207285714Y-104178571D01*
X207142857Y-104178571D01*
X206928572Y-104107143D01*
X206785714Y-103964286D01*
X206714286Y-103821429D01*
X206642857Y-103535714D01*
X206642857Y-103321429D01*
X206714286Y-103035714D01*
X206785714Y-102892857D01*
X206928572Y-102750000D01*
X207142857Y-102678571D01*
X207285714Y-102678571D01*
X207500000Y-102750000D01*
X207571429Y-102821429D01*
X208928572Y-104178571D02*
X208214286Y-104178571D01*
X208214286Y-102678571D01*
X205357143Y-95250000D02*
X205214286Y-95178571D01*
X205000000Y-95178571D01*
X204785715Y-95250000D01*
X204642857Y-95392857D01*
X204571429Y-95535714D01*
X204500000Y-95821429D01*
X204500000Y-96035714D01*
X204571429Y-96321429D01*
X204642857Y-96464286D01*
X204785715Y-96607143D01*
X205000000Y-96678571D01*
X205142857Y-96678571D01*
X205357143Y-96607143D01*
X205428572Y-96535714D01*
X205428572Y-96035714D01*
X205142857Y-96035714D01*
X206071429Y-96678571D02*
X206071429Y-95178571D01*
X206928572Y-96678571D01*
X206928572Y-95178571D01*
X207642858Y-96678571D02*
X207642858Y-95178571D01*
X208000001Y-95178571D01*
X208214286Y-95250000D01*
X208357144Y-95392857D01*
X208428572Y-95535714D01*
X208500001Y-95821429D01*
X208500001Y-96035714D01*
X208428572Y-96321429D01*
X208357144Y-96464286D01*
X208214286Y-96607143D01*
X208000001Y-96678571D01*
X207642858Y-96678571D01*
X204285715Y-93178571D02*
X205214286Y-93178571D01*
X204714286Y-93750000D01*
X204928572Y-93750000D01*
X205071429Y-93821429D01*
X205142858Y-93892857D01*
X205214286Y-94035714D01*
X205214286Y-94392857D01*
X205142858Y-94535714D01*
X205071429Y-94607143D01*
X204928572Y-94678571D01*
X204500000Y-94678571D01*
X204357143Y-94607143D01*
X204285715Y-94535714D01*
X205857143Y-94535714D02*
X205928571Y-94607143D01*
X205857143Y-94678571D01*
X205785714Y-94607143D01*
X205857143Y-94535714D01*
X205857143Y-94678571D01*
X206428572Y-93178571D02*
X207357143Y-93178571D01*
X206857143Y-93750000D01*
X207071429Y-93750000D01*
X207214286Y-93821429D01*
X207285715Y-93892857D01*
X207357143Y-94035714D01*
X207357143Y-94392857D01*
X207285715Y-94535714D01*
X207214286Y-94607143D01*
X207071429Y-94678571D01*
X206642857Y-94678571D01*
X206500000Y-94607143D01*
X206428572Y-94535714D01*
X207785714Y-93178571D02*
X208285714Y-94678571D01*
X208785714Y-93178571D01*
X205357143Y-91178571D02*
X206214286Y-91178571D01*
X205785715Y-92678571D02*
X205785715Y-91178571D01*
X206571429Y-91178571D02*
X207571429Y-92678571D01*
X207571429Y-91178571D02*
X206571429Y-92678571D01*
X206250001Y-90678571D02*
X205750001Y-89964286D01*
X205392858Y-90678571D02*
X205392858Y-89178571D01*
X205964286Y-89178571D01*
X206107144Y-89250000D01*
X206178572Y-89321429D01*
X206250001Y-89464286D01*
X206250001Y-89678571D01*
X206178572Y-89821429D01*
X206107144Y-89892857D01*
X205964286Y-89964286D01*
X205392858Y-89964286D01*
X206750001Y-89178571D02*
X207750001Y-90678571D01*
X207750001Y-89178571D02*
X206750001Y-90678571D01*
D11*
X179000001Y-189528571D02*
X178714287Y-189528571D01*
X178571430Y-189600000D01*
X178500001Y-189671429D01*
X178357144Y-189885714D01*
X178285715Y-190171429D01*
X178285715Y-190742857D01*
X178357144Y-190885714D01*
X178428572Y-190957143D01*
X178571430Y-191028571D01*
X178857144Y-191028571D01*
X179000001Y-190957143D01*
X179071430Y-190885714D01*
X179142858Y-190742857D01*
X179142858Y-190385714D01*
X179071430Y-190242857D01*
X179000001Y-190171429D01*
X178857144Y-190100000D01*
X178571430Y-190100000D01*
X178428572Y-190171429D01*
X178357144Y-190242857D01*
X178285715Y-190385714D01*
X180428572Y-189528571D02*
X180142858Y-189528571D01*
X180000001Y-189600000D01*
X179928572Y-189671429D01*
X179785715Y-189885714D01*
X179714286Y-190171429D01*
X179714286Y-190742857D01*
X179785715Y-190885714D01*
X179857143Y-190957143D01*
X180000001Y-191028571D01*
X180285715Y-191028571D01*
X180428572Y-190957143D01*
X180500001Y-190885714D01*
X180571429Y-190742857D01*
X180571429Y-190385714D01*
X180500001Y-190242857D01*
X180428572Y-190171429D01*
X180285715Y-190100000D01*
X180000001Y-190100000D01*
X179857143Y-190171429D01*
X179785715Y-190242857D01*
X179714286Y-190385714D01*
X181214286Y-190885714D02*
X181285714Y-190957143D01*
X181214286Y-191028571D01*
X181142857Y-190957143D01*
X181214286Y-190885714D01*
X181214286Y-191028571D01*
X182214286Y-189528571D02*
X182357143Y-189528571D01*
X182500000Y-189600000D01*
X182571429Y-189671429D01*
X182642858Y-189814286D01*
X182714286Y-190100000D01*
X182714286Y-190457143D01*
X182642858Y-190742857D01*
X182571429Y-190885714D01*
X182500000Y-190957143D01*
X182357143Y-191028571D01*
X182214286Y-191028571D01*
X182071429Y-190957143D01*
X182000000Y-190885714D01*
X181928572Y-190742857D01*
X181857143Y-190457143D01*
X181857143Y-190100000D01*
X181928572Y-189814286D01*
X182000000Y-189671429D01*
X182071429Y-189600000D01*
X182214286Y-189528571D01*
X183642857Y-189528571D02*
X183785714Y-189528571D01*
X183928571Y-189600000D01*
X184000000Y-189671429D01*
X184071429Y-189814286D01*
X184142857Y-190100000D01*
X184142857Y-190457143D01*
X184071429Y-190742857D01*
X184000000Y-190885714D01*
X183928571Y-190957143D01*
X183785714Y-191028571D01*
X183642857Y-191028571D01*
X183500000Y-190957143D01*
X183428571Y-190885714D01*
X183357143Y-190742857D01*
X183285714Y-190457143D01*
X183285714Y-190100000D01*
X183357143Y-189814286D01*
X183428571Y-189671429D01*
X183500000Y-189600000D01*
X183642857Y-189528571D01*
X185071428Y-189528571D02*
X185214285Y-189528571D01*
X185357142Y-189600000D01*
X185428571Y-189671429D01*
X185500000Y-189814286D01*
X185571428Y-190100000D01*
X185571428Y-190457143D01*
X185500000Y-190742857D01*
X185428571Y-190885714D01*
X185357142Y-190957143D01*
X185214285Y-191028571D01*
X185071428Y-191028571D01*
X184928571Y-190957143D01*
X184857142Y-190885714D01*
X184785714Y-190742857D01*
X184714285Y-190457143D01*
X184714285Y-190100000D01*
X184785714Y-189814286D01*
X184857142Y-189671429D01*
X184928571Y-189600000D01*
X185071428Y-189528571D01*
X187357142Y-191028571D02*
X187357142Y-190028571D01*
X187357142Y-190171429D02*
X187428570Y-190100000D01*
X187571428Y-190028571D01*
X187785713Y-190028571D01*
X187928570Y-190100000D01*
X187999999Y-190242857D01*
X187999999Y-191028571D01*
X187999999Y-190242857D02*
X188071428Y-190100000D01*
X188214285Y-190028571D01*
X188428570Y-190028571D01*
X188571428Y-190100000D01*
X188642856Y-190242857D01*
X188642856Y-191028571D01*
X189357142Y-191028571D02*
X189357142Y-190028571D01*
X189357142Y-190171429D02*
X189428570Y-190100000D01*
X189571428Y-190028571D01*
X189785713Y-190028571D01*
X189928570Y-190100000D01*
X189999999Y-190242857D01*
X189999999Y-191028571D01*
X189999999Y-190242857D02*
X190071428Y-190100000D01*
X190214285Y-190028571D01*
X190428570Y-190028571D01*
X190571428Y-190100000D01*
X190642856Y-190242857D01*
X190642856Y-191028571D01*
X151500000Y-189000000D02*
X217500000Y-189000000D01*
X151500000Y-174000000D02*
X151500000Y-191700000D01*
X217500000Y-174000000D02*
X217500000Y-191700000D01*
X217500000Y-189000000D02*
X216373496Y-189586421D01*
X217500000Y-189000000D02*
X216373496Y-188413579D01*
X151500000Y-189000000D02*
X152626504Y-189586421D01*
X151500000Y-189000000D02*
X152626504Y-188413579D01*
X214928571Y-94892857D02*
X216142857Y-94892857D01*
X216285714Y-94821429D01*
X216357143Y-94750000D01*
X216428571Y-94607143D01*
X216428571Y-94321429D01*
X216357143Y-94178571D01*
X216285714Y-94107143D01*
X216142857Y-94035714D01*
X214928571Y-94035714D01*
X216000000Y-93392857D02*
X216000000Y-92678571D01*
X216428571Y-93535714D02*
X214928571Y-93035714D01*
X216428571Y-92535714D01*
X216428571Y-91178571D02*
X215714286Y-91678571D01*
X216428571Y-92035714D02*
X214928571Y-92035714D01*
X214928571Y-91464286D01*
X215000000Y-91321428D01*
X215071429Y-91250000D01*
X215214286Y-91178571D01*
X215428571Y-91178571D01*
X215571429Y-91250000D01*
X215642857Y-91321428D01*
X215714286Y-91464286D01*
X215714286Y-92035714D01*
X214928571Y-90750000D02*
X214928571Y-89892857D01*
X216428571Y-90321428D02*
X214928571Y-90321428D01*
X172535716Y-170571429D02*
X172607145Y-170500000D01*
X172750002Y-170428571D01*
X173107145Y-170428571D01*
X173250002Y-170500000D01*
X173321431Y-170571429D01*
X173392859Y-170714286D01*
X173392859Y-170857143D01*
X173321431Y-171071429D01*
X172464288Y-171928571D01*
X173392859Y-171928571D01*
X174321430Y-170428571D02*
X174464287Y-170428571D01*
X174607144Y-170500000D01*
X174678573Y-170571429D01*
X174750002Y-170714286D01*
X174821430Y-171000000D01*
X174821430Y-171357143D01*
X174750002Y-171642857D01*
X174678573Y-171785714D01*
X174607144Y-171857143D01*
X174464287Y-171928571D01*
X174321430Y-171928571D01*
X174178573Y-171857143D01*
X174107144Y-171785714D01*
X174035716Y-171642857D01*
X173964287Y-171357143D01*
X173964287Y-171000000D01*
X174035716Y-170714286D01*
X174107144Y-170571429D01*
X174178573Y-170500000D01*
X174321430Y-170428571D01*
X175392858Y-170571429D02*
X175464287Y-170500000D01*
X175607144Y-170428571D01*
X175964287Y-170428571D01*
X176107144Y-170500000D01*
X176178573Y-170571429D01*
X176250001Y-170714286D01*
X176250001Y-170857143D01*
X176178573Y-171071429D01*
X175321430Y-171928571D01*
X176250001Y-171928571D01*
X177178572Y-170428571D02*
X177321429Y-170428571D01*
X177464286Y-170500000D01*
X177535715Y-170571429D01*
X177607144Y-170714286D01*
X177678572Y-171000000D01*
X177678572Y-171357143D01*
X177607144Y-171642857D01*
X177535715Y-171785714D01*
X177464286Y-171857143D01*
X177321429Y-171928571D01*
X177178572Y-171928571D01*
X177035715Y-171857143D01*
X176964286Y-171785714D01*
X176892858Y-171642857D01*
X176821429Y-171357143D01*
X176821429Y-171000000D01*
X176892858Y-170714286D01*
X176964286Y-170571429D01*
X177035715Y-170500000D01*
X177178572Y-170428571D01*
X179392857Y-170357143D02*
X178107143Y-172285714D01*
X180178572Y-170428571D02*
X180321429Y-170428571D01*
X180464286Y-170500000D01*
X180535715Y-170571429D01*
X180607144Y-170714286D01*
X180678572Y-171000000D01*
X180678572Y-171357143D01*
X180607144Y-171642857D01*
X180535715Y-171785714D01*
X180464286Y-171857143D01*
X180321429Y-171928571D01*
X180178572Y-171928571D01*
X180035715Y-171857143D01*
X179964286Y-171785714D01*
X179892858Y-171642857D01*
X179821429Y-171357143D01*
X179821429Y-171000000D01*
X179892858Y-170714286D01*
X179964286Y-170571429D01*
X180035715Y-170500000D01*
X180178572Y-170428571D01*
X181535715Y-171071429D02*
X181392857Y-171000000D01*
X181321429Y-170928571D01*
X181250000Y-170785714D01*
X181250000Y-170714286D01*
X181321429Y-170571429D01*
X181392857Y-170500000D01*
X181535715Y-170428571D01*
X181821429Y-170428571D01*
X181964286Y-170500000D01*
X182035715Y-170571429D01*
X182107143Y-170714286D01*
X182107143Y-170785714D01*
X182035715Y-170928571D01*
X181964286Y-171000000D01*
X181821429Y-171071429D01*
X181535715Y-171071429D01*
X181392857Y-171142857D01*
X181321429Y-171214286D01*
X181250000Y-171357143D01*
X181250000Y-171642857D01*
X181321429Y-171785714D01*
X181392857Y-171857143D01*
X181535715Y-171928571D01*
X181821429Y-171928571D01*
X181964286Y-171857143D01*
X182035715Y-171785714D01*
X182107143Y-171642857D01*
X182107143Y-171357143D01*
X182035715Y-171214286D01*
X181964286Y-171142857D01*
X181821429Y-171071429D01*
X184821428Y-170928571D02*
X185392857Y-170928571D01*
X185035714Y-171928571D02*
X185035714Y-170642857D01*
X185107142Y-170500000D01*
X185250000Y-170428571D01*
X185392857Y-170428571D01*
X186107143Y-171928571D02*
X185964285Y-171857143D01*
X185892857Y-171785714D01*
X185821428Y-171642857D01*
X185821428Y-171214286D01*
X185892857Y-171071429D01*
X185964285Y-171000000D01*
X186107143Y-170928571D01*
X186321428Y-170928571D01*
X186464285Y-171000000D01*
X186535714Y-171071429D01*
X186607143Y-171214286D01*
X186607143Y-171642857D01*
X186535714Y-171785714D01*
X186464285Y-171857143D01*
X186321428Y-171928571D01*
X186107143Y-171928571D01*
X187464286Y-171928571D02*
X187321428Y-171857143D01*
X187250000Y-171785714D01*
X187178571Y-171642857D01*
X187178571Y-171214286D01*
X187250000Y-171071429D01*
X187321428Y-171000000D01*
X187464286Y-170928571D01*
X187678571Y-170928571D01*
X187821428Y-171000000D01*
X187892857Y-171071429D01*
X187964286Y-171214286D01*
X187964286Y-171642857D01*
X187892857Y-171785714D01*
X187821428Y-171857143D01*
X187678571Y-171928571D01*
X187464286Y-171928571D01*
X188392857Y-170928571D02*
X188964286Y-170928571D01*
X188607143Y-170428571D02*
X188607143Y-171714286D01*
X188678571Y-171857143D01*
X188821429Y-171928571D01*
X188964286Y-171928571D01*
X189464286Y-171928571D02*
X189464286Y-170428571D01*
X189607143Y-171357143D02*
X190035714Y-171928571D01*
X190035714Y-170928571D02*
X189464286Y-171500000D01*
X191250000Y-171857143D02*
X191107143Y-171928571D01*
X190821429Y-171928571D01*
X190678572Y-171857143D01*
X190607143Y-171714286D01*
X190607143Y-171142857D01*
X190678572Y-171000000D01*
X190821429Y-170928571D01*
X191107143Y-170928571D01*
X191250000Y-171000000D01*
X191321429Y-171142857D01*
X191321429Y-171285714D01*
X190607143Y-171428571D01*
X191821429Y-170928571D02*
X192178572Y-171928571D01*
X192535714Y-170928571D02*
X192178572Y-171928571D01*
X192035714Y-172285714D01*
X191964286Y-172357143D01*
X191821429Y-172428571D01*
X195250000Y-170928571D02*
X195607143Y-171928571D01*
X195964285Y-170928571D01*
X197321428Y-171928571D02*
X196464285Y-171928571D01*
X196892857Y-171928571D02*
X196892857Y-170428571D01*
X196750000Y-170642857D01*
X196607142Y-170785714D01*
X196464285Y-170857143D01*
X197964285Y-171785714D02*
X198035713Y-171857143D01*
X197964285Y-171928571D01*
X197892856Y-171857143D01*
X197964285Y-171785714D01*
X197964285Y-171928571D01*
X198964285Y-170428571D02*
X199107142Y-170428571D01*
X199249999Y-170500000D01*
X199321428Y-170571429D01*
X199392857Y-170714286D01*
X199464285Y-171000000D01*
X199464285Y-171357143D01*
X199392857Y-171642857D01*
X199321428Y-171785714D01*
X199249999Y-171857143D01*
X199107142Y-171928571D01*
X198964285Y-171928571D01*
X198821428Y-171857143D01*
X198749999Y-171785714D01*
X198678571Y-171642857D01*
X198607142Y-171357143D01*
X198607142Y-171000000D01*
X198678571Y-170714286D01*
X198749999Y-170571429D01*
X198821428Y-170500000D01*
X198964285Y-170428571D01*
D12*
X217000000Y-81000000D02*
G75*
G03X217000000Y-81000000I-2500000J0D01*
G01*
X217000000Y-171000000D02*
G75*
G03X217000000Y-171000000I-2500000J0D01*
G01*
X157000000Y-171000000D02*
G75*
G03X157000000Y-171000000I-2500000J0D01*
G01*
X157000000Y-81000000D02*
G75*
G03X157000000Y-81000000I-2500000J0D01*
G01*
D13*
G36*
X201236860Y-169985520D02*
X201247020Y-170270000D01*
X201318140Y-170584960D01*
X201325760Y-170612900D01*
X201541660Y-171153920D01*
X201838840Y-171623820D01*
X202196980Y-171999740D01*
X202593220Y-172258820D01*
X203004700Y-172380740D01*
X203113920Y-172385820D01*
X203370460Y-172355340D01*
X203710820Y-172279140D01*
X204043560Y-172177540D01*
X204645540Y-171908300D01*
X205092580Y-171580640D01*
X205382140Y-171197100D01*
X205382140Y-171194560D01*
X205481200Y-170889760D01*
X205526920Y-170501140D01*
X205521840Y-170094740D01*
X205463420Y-169744220D01*
X205405000Y-169596900D01*
X205196720Y-169353060D01*
X204863980Y-169147320D01*
X204449960Y-168982220D01*
X203997840Y-168875540D01*
X203550800Y-168832360D01*
X203154560Y-168862840D01*
X202849760Y-168982220D01*
X202837060Y-168989840D01*
X202588140Y-169243840D01*
X202369700Y-169604520D01*
X202212220Y-170008380D01*
X202146180Y-170389380D01*
X202143640Y-170422400D01*
X202169040Y-170694180D01*
X202268100Y-170899920D01*
X202425580Y-171075180D01*
X202786260Y-171336800D01*
X203202820Y-171479040D01*
X203629540Y-171499360D01*
X204023240Y-171392680D01*
X204213740Y-171275840D01*
X204389000Y-171067560D01*
X204543940Y-170770380D01*
X204648080Y-170455420D01*
X204670940Y-170191260D01*
X204670940Y-170183640D01*
X204564260Y-169965200D01*
X204343280Y-169784860D01*
X204058800Y-169657860D01*
X203761620Y-169604520D01*
X203502540Y-169642620D01*
X203385700Y-169718820D01*
X203228220Y-169812800D01*
X203116460Y-169815340D01*
X202992000Y-169850900D01*
X202849760Y-170051560D01*
X202821820Y-170102360D01*
X202651640Y-170435100D01*
X202956440Y-170590040D01*
X202956440Y-170336040D01*
X202989460Y-170191260D01*
X202992000Y-170183640D01*
X203080900Y-170074420D01*
X203210440Y-170084580D01*
X203289180Y-170117600D01*
X203464440Y-170247140D01*
X203492380Y-170394460D01*
X203444120Y-170468120D01*
X203309500Y-170521460D01*
X203103760Y-170452880D01*
X203070740Y-170435100D01*
X202956440Y-170336040D01*
X202956440Y-170590040D01*
X203065660Y-170645920D01*
X203477140Y-170854200D01*
X203629540Y-170518920D01*
X203718440Y-170305560D01*
X203736220Y-170188720D01*
X203677800Y-170107440D01*
X203619380Y-170061720D01*
X203512700Y-169937260D01*
X203545720Y-169853440D01*
X203690500Y-169812800D01*
X203914020Y-169843280D01*
X204157860Y-169934720D01*
X204353440Y-170064260D01*
X204378840Y-170092200D01*
X204462660Y-170203960D01*
X204477900Y-170318260D01*
X204422020Y-170501140D01*
X204381380Y-170600200D01*
X204244220Y-170861820D01*
X204074040Y-171077720D01*
X204028320Y-171118360D01*
X203723520Y-171260600D01*
X203360300Y-171283460D01*
X202992000Y-171199640D01*
X202666880Y-171019300D01*
X202458600Y-170785620D01*
X202351920Y-170562100D01*
X202326520Y-170351280D01*
X202387480Y-170102360D01*
X202517020Y-169797560D01*
X202765940Y-169383540D01*
X203060580Y-169116840D01*
X203383160Y-169005080D01*
X203446660Y-169002540D01*
X203781940Y-169038100D01*
X204188340Y-169132080D01*
X204589660Y-169264160D01*
X204838580Y-169373380D01*
X205117980Y-169607060D01*
X205293240Y-169942340D01*
X205356740Y-170346200D01*
X205300860Y-170783080D01*
X205171320Y-171120900D01*
X205036700Y-171346960D01*
X204863980Y-171519680D01*
X204607440Y-171682240D01*
X204429640Y-171773680D01*
X203878460Y-172007360D01*
X203373000Y-172136900D01*
X202943740Y-172154680D01*
X202788800Y-172124200D01*
X202443360Y-171951480D01*
X202118240Y-171644140D01*
X201836300Y-171240280D01*
X201622940Y-170778000D01*
X201498480Y-170292860D01*
X201483240Y-170135380D01*
X201475620Y-169845820D01*
X201506100Y-169586740D01*
X201584840Y-169302260D01*
X201727080Y-168926340D01*
X201734700Y-168906020D01*
X201907420Y-168517400D01*
X202136020Y-168057660D01*
X202379860Y-167597920D01*
X202509400Y-167369320D01*
X202727840Y-167008640D01*
X202882780Y-166774960D01*
X202997080Y-166640340D01*
X203091060Y-166587000D01*
X203182500Y-166589540D01*
X203187580Y-166592080D01*
X203327280Y-166594620D01*
X203436500Y-166495560D01*
X203527940Y-166327920D01*
X203614300Y-166129800D01*
X203652400Y-166007880D01*
X203652400Y-165995180D01*
X203568580Y-165946920D01*
X203383160Y-165850400D01*
X203268860Y-165791980D01*
X202910720Y-165611640D01*
X202740540Y-165946920D01*
X202641480Y-166160280D01*
X202621160Y-166277120D01*
X202679580Y-166343160D01*
X202699900Y-166355860D01*
X202753240Y-166414280D01*
X202743080Y-166515880D01*
X202664340Y-166691140D01*
X202499240Y-166975620D01*
X202473840Y-167016260D01*
X202138560Y-167600460D01*
X201836300Y-168192280D01*
X201582300Y-168751080D01*
X201391800Y-169246380D01*
X201285120Y-169637540D01*
X201236860Y-169985520D01*
X201236860Y-169985520D01*
X201236860Y-169985520D01*
G37*
X201236860Y-169985520D02*
X201247020Y-170270000D01*
X201318140Y-170584960D01*
X201325760Y-170612900D01*
X201541660Y-171153920D01*
X201838840Y-171623820D01*
X202196980Y-171999740D01*
X202593220Y-172258820D01*
X203004700Y-172380740D01*
X203113920Y-172385820D01*
X203370460Y-172355340D01*
X203710820Y-172279140D01*
X204043560Y-172177540D01*
X204645540Y-171908300D01*
X205092580Y-171580640D01*
X205382140Y-171197100D01*
X205382140Y-171194560D01*
X205481200Y-170889760D01*
X205526920Y-170501140D01*
X205521840Y-170094740D01*
X205463420Y-169744220D01*
X205405000Y-169596900D01*
X205196720Y-169353060D01*
X204863980Y-169147320D01*
X204449960Y-168982220D01*
X203997840Y-168875540D01*
X203550800Y-168832360D01*
X203154560Y-168862840D01*
X202849760Y-168982220D01*
X202837060Y-168989840D01*
X202588140Y-169243840D01*
X202369700Y-169604520D01*
X202212220Y-170008380D01*
X202146180Y-170389380D01*
X202143640Y-170422400D01*
X202169040Y-170694180D01*
X202268100Y-170899920D01*
X202425580Y-171075180D01*
X202786260Y-171336800D01*
X203202820Y-171479040D01*
X203629540Y-171499360D01*
X204023240Y-171392680D01*
X204213740Y-171275840D01*
X204389000Y-171067560D01*
X204543940Y-170770380D01*
X204648080Y-170455420D01*
X204670940Y-170191260D01*
X204670940Y-170183640D01*
X204564260Y-169965200D01*
X204343280Y-169784860D01*
X204058800Y-169657860D01*
X203761620Y-169604520D01*
X203502540Y-169642620D01*
X203385700Y-169718820D01*
X203228220Y-169812800D01*
X203116460Y-169815340D01*
X202992000Y-169850900D01*
X202849760Y-170051560D01*
X202821820Y-170102360D01*
X202651640Y-170435100D01*
X202956440Y-170590040D01*
X202956440Y-170336040D01*
X202989460Y-170191260D01*
X202992000Y-170183640D01*
X203080900Y-170074420D01*
X203210440Y-170084580D01*
X203289180Y-170117600D01*
X203464440Y-170247140D01*
X203492380Y-170394460D01*
X203444120Y-170468120D01*
X203309500Y-170521460D01*
X203103760Y-170452880D01*
X203070740Y-170435100D01*
X202956440Y-170336040D01*
X202956440Y-170590040D01*
X203065660Y-170645920D01*
X203477140Y-170854200D01*
X203629540Y-170518920D01*
X203718440Y-170305560D01*
X203736220Y-170188720D01*
X203677800Y-170107440D01*
X203619380Y-170061720D01*
X203512700Y-169937260D01*
X203545720Y-169853440D01*
X203690500Y-169812800D01*
X203914020Y-169843280D01*
X204157860Y-169934720D01*
X204353440Y-170064260D01*
X204378840Y-170092200D01*
X204462660Y-170203960D01*
X204477900Y-170318260D01*
X204422020Y-170501140D01*
X204381380Y-170600200D01*
X204244220Y-170861820D01*
X204074040Y-171077720D01*
X204028320Y-171118360D01*
X203723520Y-171260600D01*
X203360300Y-171283460D01*
X202992000Y-171199640D01*
X202666880Y-171019300D01*
X202458600Y-170785620D01*
X202351920Y-170562100D01*
X202326520Y-170351280D01*
X202387480Y-170102360D01*
X202517020Y-169797560D01*
X202765940Y-169383540D01*
X203060580Y-169116840D01*
X203383160Y-169005080D01*
X203446660Y-169002540D01*
X203781940Y-169038100D01*
X204188340Y-169132080D01*
X204589660Y-169264160D01*
X204838580Y-169373380D01*
X205117980Y-169607060D01*
X205293240Y-169942340D01*
X205356740Y-170346200D01*
X205300860Y-170783080D01*
X205171320Y-171120900D01*
X205036700Y-171346960D01*
X204863980Y-171519680D01*
X204607440Y-171682240D01*
X204429640Y-171773680D01*
X203878460Y-172007360D01*
X203373000Y-172136900D01*
X202943740Y-172154680D01*
X202788800Y-172124200D01*
X202443360Y-171951480D01*
X202118240Y-171644140D01*
X201836300Y-171240280D01*
X201622940Y-170778000D01*
X201498480Y-170292860D01*
X201483240Y-170135380D01*
X201475620Y-169845820D01*
X201506100Y-169586740D01*
X201584840Y-169302260D01*
X201727080Y-168926340D01*
X201734700Y-168906020D01*
X201907420Y-168517400D01*
X202136020Y-168057660D01*
X202379860Y-167597920D01*
X202509400Y-167369320D01*
X202727840Y-167008640D01*
X202882780Y-166774960D01*
X202997080Y-166640340D01*
X203091060Y-166587000D01*
X203182500Y-166589540D01*
X203187580Y-166592080D01*
X203327280Y-166594620D01*
X203436500Y-166495560D01*
X203527940Y-166327920D01*
X203614300Y-166129800D01*
X203652400Y-166007880D01*
X203652400Y-165995180D01*
X203568580Y-165946920D01*
X203383160Y-165850400D01*
X203268860Y-165791980D01*
X202910720Y-165611640D01*
X202740540Y-165946920D01*
X202641480Y-166160280D01*
X202621160Y-166277120D01*
X202679580Y-166343160D01*
X202699900Y-166355860D01*
X202753240Y-166414280D01*
X202743080Y-166515880D01*
X202664340Y-166691140D01*
X202499240Y-166975620D01*
X202473840Y-167016260D01*
X202138560Y-167600460D01*
X201836300Y-168192280D01*
X201582300Y-168751080D01*
X201391800Y-169246380D01*
X201285120Y-169637540D01*
X201236860Y-169985520D01*
X201236860Y-169985520D01*
D14*
X219000000Y-103000000D02*
X219000000Y-111200000D01*
X211000000Y-112100000D02*
X209500000Y-112100000D01*
X209500000Y-112100000D02*
X209500000Y-101900000D01*
X209500000Y-101900000D02*
X211000000Y-101900000D01*
X211000000Y-112100000D02*
X219000000Y-112100000D01*
X219000000Y-112100000D02*
X219000000Y-111100000D01*
X219000000Y-111100000D02*
X213700000Y-111100000D01*
X213700000Y-111100000D02*
X213700000Y-103000000D01*
X211000000Y-101900000D02*
X219000000Y-101900000D01*
X219000000Y-101900000D02*
X219000000Y-103000000D01*
X219000000Y-103000000D02*
X213700000Y-103000000D01*
D15*
X214850000Y-141600000D02*
X214150000Y-141600000D01*
X214150000Y-140400000D02*
X214850000Y-140400000D01*
X211150000Y-137900000D02*
X211850000Y-137900000D01*
X211850000Y-139100000D02*
X211150000Y-139100000D01*
X213940000Y-145670000D02*
X213940000Y-161030000D01*
X213940000Y-161030000D02*
X216600000Y-161030000D01*
X216600000Y-161030000D02*
X216600000Y-145670000D01*
X216600000Y-145670000D02*
X213940000Y-145670000D01*
X216600000Y-146620000D02*
X222600000Y-146620000D01*
X222600000Y-146620000D02*
X222600000Y-147380000D01*
X222600000Y-147380000D02*
X216600000Y-147380000D01*
X216600000Y-146680000D02*
X222600000Y-146680000D01*
X216600000Y-146800000D02*
X222600000Y-146800000D01*
X216600000Y-146920000D02*
X222600000Y-146920000D01*
X216600000Y-147040000D02*
X222600000Y-147040000D01*
X216600000Y-147160000D02*
X222600000Y-147160000D01*
X216600000Y-147280000D02*
X222600000Y-147280000D01*
X213610000Y-146620000D02*
X213940000Y-146620000D01*
X213610000Y-147380000D02*
X213940000Y-147380000D01*
X213940000Y-148270000D02*
X216600000Y-148270000D01*
X216600000Y-149160000D02*
X222600000Y-149160000D01*
X222600000Y-149160000D02*
X222600000Y-149920000D01*
X222600000Y-149920000D02*
X216600000Y-149920000D01*
X213542929Y-149160000D02*
X213940000Y-149160000D01*
X213542929Y-149920000D02*
X213940000Y-149920000D01*
X213940000Y-150810000D02*
X216600000Y-150810000D01*
X216600000Y-151700000D02*
X222600000Y-151700000D01*
X222600000Y-151700000D02*
X222600000Y-152460000D01*
X222600000Y-152460000D02*
X216600000Y-152460000D01*
X213542929Y-151700000D02*
X213940000Y-151700000D01*
X213542929Y-152460000D02*
X213940000Y-152460000D01*
X213940000Y-153350000D02*
X216600000Y-153350000D01*
X216600000Y-154240000D02*
X222600000Y-154240000D01*
X222600000Y-154240000D02*
X222600000Y-155000000D01*
X222600000Y-155000000D02*
X216600000Y-155000000D01*
X213542929Y-154240000D02*
X213940000Y-154240000D01*
X213542929Y-155000000D02*
X213940000Y-155000000D01*
X213940000Y-155890000D02*
X216600000Y-155890000D01*
X216600000Y-156780000D02*
X222600000Y-156780000D01*
X222600000Y-156780000D02*
X222600000Y-157540000D01*
X222600000Y-157540000D02*
X216600000Y-157540000D01*
X213542929Y-156780000D02*
X213940000Y-156780000D01*
X213542929Y-157540000D02*
X213940000Y-157540000D01*
X213940000Y-158430000D02*
X216600000Y-158430000D01*
X216600000Y-159320000D02*
X222600000Y-159320000D01*
X222600000Y-159320000D02*
X222600000Y-160080000D01*
X222600000Y-160080000D02*
X216600000Y-160080000D01*
X213542929Y-159320000D02*
X213940000Y-159320000D01*
X213542929Y-160080000D02*
X213940000Y-160080000D01*
X211230000Y-147000000D02*
X211230000Y-145730000D01*
X211230000Y-145730000D02*
X212500000Y-145730000D01*
D14*
X219000000Y-88500000D02*
X219000000Y-96700000D01*
X211000000Y-97600000D02*
X209500000Y-97600000D01*
X209500000Y-97600000D02*
X209500000Y-87400000D01*
X209500000Y-87400000D02*
X211000000Y-87400000D01*
X211000000Y-97600000D02*
X219000000Y-97600000D01*
X219000000Y-97600000D02*
X219000000Y-96600000D01*
X219000000Y-96600000D02*
X213700000Y-96600000D01*
X213700000Y-96600000D02*
X213700000Y-88500000D01*
X211000000Y-87400000D02*
X219000000Y-87400000D01*
X219000000Y-87400000D02*
X219000000Y-88500000D01*
X219000000Y-88500000D02*
X213700000Y-88500000D01*
D15*
X202820000Y-106500000D02*
X202820000Y-105500000D01*
X204180000Y-105500000D02*
X204180000Y-106500000D01*
X205820000Y-108500000D02*
X205820000Y-107500000D01*
X207180000Y-107500000D02*
X207180000Y-108500000D01*
D10*
X215915000Y-116111000D02*
G75*
G03X215915000Y-116111000I-254000J0D01*
G01*
D16*
X212569820Y-121394200D02*
X219923120Y-121394200D01*
X212569820Y-130393420D02*
X212569820Y-121394200D01*
X219923120Y-130393420D02*
X212569820Y-130393420D01*
X219923120Y-121399280D02*
X219923120Y-130393420D01*
X217827620Y-117000000D02*
X197500000Y-117000000D01*
X218498180Y-117670560D02*
X217827620Y-117000000D01*
X218498180Y-134797780D02*
X218498180Y-117670560D01*
X197500000Y-134797780D02*
X218498180Y-134797780D01*
X197500000Y-117000000D02*
X197500000Y-134797780D01*
D17*
X215915000Y-129319000D02*
X218582000Y-129319000D01*
X218582000Y-129319000D02*
X218582000Y-131097000D01*
X215915000Y-131097000D02*
X218582000Y-131097000D01*
X215915000Y-129319000D02*
X215915000Y-131097000D01*
X211848460Y-129319000D02*
X214518000Y-129319000D01*
X214518000Y-129319000D02*
X214518000Y-131097000D01*
X211848460Y-131097000D02*
X214518000Y-131097000D01*
X211848460Y-129319000D02*
X211848460Y-131097000D01*
X211848460Y-120683000D02*
X214518000Y-120683000D01*
X214518000Y-120683000D02*
X214518000Y-122461000D01*
X211848460Y-122461000D02*
X214518000Y-122461000D01*
X211848460Y-120683000D02*
X211848460Y-122461000D01*
X215915000Y-120683000D02*
X218582000Y-120683000D01*
X218582000Y-120683000D02*
X218582000Y-122461000D01*
X215915000Y-122461000D02*
X218582000Y-122461000D01*
X215915000Y-120683000D02*
X215915000Y-122461000D01*
X198135000Y-123350000D02*
X200675000Y-123350000D01*
X200675000Y-123350000D02*
X200675000Y-129065000D01*
X198135000Y-129065000D02*
X200675000Y-129065000D01*
X198135000Y-123350000D02*
X198135000Y-129065000D01*
X215280000Y-123350000D02*
X217820000Y-123350000D01*
X217820000Y-123350000D02*
X217820000Y-128430000D01*
X215280000Y-128430000D02*
X217820000Y-128430000D01*
X215280000Y-123350000D02*
X215280000Y-128430000D01*
D15*
X149100000Y-104050000D02*
X151600000Y-104050000D01*
X149100000Y-102050000D02*
X149100000Y-104050000D01*
X170140000Y-90240000D02*
X173360000Y-90240000D01*
X173380000Y-98750000D02*
X173380000Y-90270000D01*
X170140000Y-98750000D02*
X173360000Y-98750000D01*
X146500000Y-100340000D02*
X149500000Y-100340000D01*
X146500000Y-100340000D02*
X146500000Y-88640000D01*
X146500000Y-88640000D02*
X149500000Y-88640000D01*
X170110000Y-103640000D02*
X170110000Y-85350000D01*
X170110000Y-85350000D02*
X167660000Y-85350000D01*
X170110000Y-103640000D02*
X167660000Y-103640000D01*
X151750000Y-103650000D02*
X149500000Y-103650000D01*
X158400000Y-103650000D02*
X155250000Y-103650000D01*
X164740000Y-103640000D02*
X161310000Y-103640000D01*
X161310000Y-85350000D02*
X164740000Y-85350000D01*
X154960000Y-85350000D02*
X158390000Y-85350000D01*
X149500000Y-85350000D02*
X152050000Y-85350000D01*
X149500000Y-103650000D02*
X149500000Y-85350000D01*
X149100000Y-125050000D02*
X151600000Y-125050000D01*
X149100000Y-123050000D02*
X149100000Y-125050000D01*
X170140000Y-111240000D02*
X173360000Y-111240000D01*
X173380000Y-119750000D02*
X173380000Y-111270000D01*
X170140000Y-119750000D02*
X173360000Y-119750000D01*
X146500000Y-121340000D02*
X149500000Y-121340000D01*
X146500000Y-121340000D02*
X146500000Y-109640000D01*
X146500000Y-109640000D02*
X149500000Y-109640000D01*
X170110000Y-124640000D02*
X170110000Y-106350000D01*
X170110000Y-106350000D02*
X167660000Y-106350000D01*
X170110000Y-124640000D02*
X167660000Y-124640000D01*
X151750000Y-124650000D02*
X149500000Y-124650000D01*
X158400000Y-124650000D02*
X155250000Y-124650000D01*
X164740000Y-124640000D02*
X161310000Y-124640000D01*
X161310000Y-106350000D02*
X164740000Y-106350000D01*
X154960000Y-106350000D02*
X158390000Y-106350000D01*
X149500000Y-106350000D02*
X152050000Y-106350000D01*
X149500000Y-124650000D02*
X149500000Y-106350000D01*
X149100000Y-146050000D02*
X151600000Y-146050000D01*
X149100000Y-144050000D02*
X149100000Y-146050000D01*
X170140000Y-132240000D02*
X173360000Y-132240000D01*
X173380000Y-140750000D02*
X173380000Y-132270000D01*
X170140000Y-140750000D02*
X173360000Y-140750000D01*
X146500000Y-142340000D02*
X149500000Y-142340000D01*
X146500000Y-142340000D02*
X146500000Y-130640000D01*
X146500000Y-130640000D02*
X149500000Y-130640000D01*
X170110000Y-145640000D02*
X170110000Y-127350000D01*
X170110000Y-127350000D02*
X167660000Y-127350000D01*
X170110000Y-145640000D02*
X167660000Y-145640000D01*
X151750000Y-145650000D02*
X149500000Y-145650000D01*
X158400000Y-145650000D02*
X155250000Y-145650000D01*
X164740000Y-145640000D02*
X161310000Y-145640000D01*
X161310000Y-127350000D02*
X164740000Y-127350000D01*
X154960000Y-127350000D02*
X158390000Y-127350000D01*
X149500000Y-127350000D02*
X152050000Y-127350000D01*
X149500000Y-145650000D02*
X149500000Y-127350000D01*
X149100000Y-167050000D02*
X151600000Y-167050000D01*
X149100000Y-165050000D02*
X149100000Y-167050000D01*
X170140000Y-153240000D02*
X173360000Y-153240000D01*
X173380000Y-161750000D02*
X173380000Y-153270000D01*
X170140000Y-161750000D02*
X173360000Y-161750000D01*
X146500000Y-163340000D02*
X149500000Y-163340000D01*
X146500000Y-163340000D02*
X146500000Y-151640000D01*
X146500000Y-151640000D02*
X149500000Y-151640000D01*
X170110000Y-166640000D02*
X170110000Y-148350000D01*
X170110000Y-148350000D02*
X167660000Y-148350000D01*
X170110000Y-166640000D02*
X167660000Y-166640000D01*
X151750000Y-166650000D02*
X149500000Y-166650000D01*
X158400000Y-166650000D02*
X155250000Y-166650000D01*
X164740000Y-166640000D02*
X161310000Y-166640000D01*
X161310000Y-148350000D02*
X164740000Y-148350000D01*
X154960000Y-148350000D02*
X158390000Y-148350000D01*
X149500000Y-148350000D02*
X152050000Y-148350000D01*
X149500000Y-166650000D02*
X149500000Y-148350000D01*
D12*
X210000000Y-100178571D02*
X210000000Y-101250000D01*
X209928572Y-101464286D01*
X209785715Y-101607143D01*
X209571429Y-101678571D01*
X209428572Y-101678571D01*
X210571429Y-100178571D02*
X211571429Y-100178571D01*
X210928572Y-101678571D01*
X211250001Y-141535714D02*
X211178572Y-141607143D01*
X210964286Y-141678571D01*
X210821429Y-141678571D01*
X210607144Y-141607143D01*
X210464286Y-141464286D01*
X210392858Y-141321429D01*
X210321429Y-141035714D01*
X210321429Y-140821429D01*
X210392858Y-140535714D01*
X210464286Y-140392857D01*
X210607144Y-140250000D01*
X210821429Y-140178571D01*
X210964286Y-140178571D01*
X211178572Y-140250000D01*
X211250001Y-140321429D01*
X212678572Y-141678571D02*
X211821429Y-141678571D01*
X212250001Y-141678571D02*
X212250001Y-140178571D01*
X212107144Y-140392857D01*
X211964286Y-140535714D01*
X211821429Y-140607143D01*
X214250001Y-139035714D02*
X214178572Y-139107143D01*
X213964286Y-139178571D01*
X213821429Y-139178571D01*
X213607144Y-139107143D01*
X213464286Y-138964286D01*
X213392858Y-138821429D01*
X213321429Y-138535714D01*
X213321429Y-138321429D01*
X213392858Y-138035714D01*
X213464286Y-137892857D01*
X213607144Y-137750000D01*
X213821429Y-137678571D01*
X213964286Y-137678571D01*
X214178572Y-137750000D01*
X214250001Y-137821429D01*
X214821429Y-137821429D02*
X214892858Y-137750000D01*
X215035715Y-137678571D01*
X215392858Y-137678571D01*
X215535715Y-137750000D01*
X215607144Y-137821429D01*
X215678572Y-137964286D01*
X215678572Y-138107143D01*
X215607144Y-138321429D01*
X214750001Y-139178571D01*
X215678572Y-139178571D01*
X215000000Y-143178571D02*
X215000000Y-144250000D01*
X214928572Y-144464286D01*
X214785715Y-144607143D01*
X214571429Y-144678571D01*
X214428572Y-144678571D01*
X216428572Y-143178571D02*
X215714286Y-143178571D01*
X215642857Y-143892857D01*
X215714286Y-143821429D01*
X215857143Y-143750000D01*
X216214286Y-143750000D01*
X216357143Y-143821429D01*
X216428572Y-143892857D01*
X216500000Y-144035714D01*
X216500000Y-144392857D01*
X216428572Y-144535714D01*
X216357143Y-144607143D01*
X216214286Y-144678571D01*
X215857143Y-144678571D01*
X215714286Y-144607143D01*
X215642857Y-144535714D01*
X210000000Y-85678571D02*
X210000000Y-86750000D01*
X209928572Y-86964286D01*
X209785715Y-87107143D01*
X209571429Y-87178571D01*
X209428572Y-87178571D01*
X211357143Y-85678571D02*
X211071429Y-85678571D01*
X210928572Y-85750000D01*
X210857143Y-85821429D01*
X210714286Y-86035714D01*
X210642857Y-86321429D01*
X210642857Y-86892857D01*
X210714286Y-87035714D01*
X210785714Y-87107143D01*
X210928572Y-87178571D01*
X211214286Y-87178571D01*
X211357143Y-87107143D01*
X211428572Y-87035714D01*
X211500000Y-86892857D01*
X211500000Y-86535714D01*
X211428572Y-86392857D01*
X211357143Y-86321429D01*
X211214286Y-86250000D01*
X210928572Y-86250000D01*
X210785714Y-86321429D01*
X210714286Y-86392857D01*
X210642857Y-86535714D01*
X201250001Y-106678571D02*
X200750001Y-105964286D01*
X200392858Y-106678571D02*
X200392858Y-105178571D01*
X200964286Y-105178571D01*
X201107144Y-105250000D01*
X201178572Y-105321429D01*
X201250001Y-105464286D01*
X201250001Y-105678571D01*
X201178572Y-105821429D01*
X201107144Y-105892857D01*
X200964286Y-105964286D01*
X200392858Y-105964286D01*
X202678572Y-106678571D02*
X201821429Y-106678571D01*
X202250001Y-106678571D02*
X202250001Y-105178571D01*
X202107144Y-105392857D01*
X201964286Y-105535714D01*
X201821429Y-105607143D01*
X204250001Y-110678571D02*
X203750001Y-109964286D01*
X203392858Y-110678571D02*
X203392858Y-109178571D01*
X203964286Y-109178571D01*
X204107144Y-109250000D01*
X204178572Y-109321429D01*
X204250001Y-109464286D01*
X204250001Y-109678571D01*
X204178572Y-109821429D01*
X204107144Y-109892857D01*
X203964286Y-109964286D01*
X203392858Y-109964286D01*
X204821429Y-109321429D02*
X204892858Y-109250000D01*
X205035715Y-109178571D01*
X205392858Y-109178571D01*
X205535715Y-109250000D01*
X205607144Y-109321429D01*
X205678572Y-109464286D01*
X205678572Y-109607143D01*
X205607144Y-109821429D01*
X204750001Y-110678571D01*
X205678572Y-110678571D01*
D18*
X218793667Y-127011833D02*
X219513333Y-127011833D01*
X219598000Y-126969500D01*
X219640333Y-126927167D01*
X219682667Y-126842500D01*
X219682667Y-126673167D01*
X219640333Y-126588500D01*
X219598000Y-126546167D01*
X219513333Y-126503833D01*
X218793667Y-126503833D01*
X219682667Y-125614834D02*
X219682667Y-126122834D01*
X219682667Y-125868834D02*
X218793667Y-125868834D01*
X218920667Y-125953500D01*
X219005333Y-126038167D01*
X219047667Y-126122834D01*
D19*
X208541743Y-129112171D02*
X208570771Y-129025085D01*
X208570771Y-128879942D01*
X208541743Y-128821885D01*
X208512714Y-128792856D01*
X208454657Y-128763828D01*
X208396600Y-128763828D01*
X208338543Y-128792856D01*
X208309514Y-128821885D01*
X208280486Y-128879942D01*
X208251457Y-128996056D01*
X208222429Y-129054114D01*
X208193400Y-129083142D01*
X208135343Y-129112171D01*
X208077286Y-129112171D01*
X208019229Y-129083142D01*
X207990200Y-129054114D01*
X207961171Y-128996056D01*
X207961171Y-128850914D01*
X207990200Y-128763828D01*
X208541743Y-128270343D02*
X208570771Y-128328400D01*
X208570771Y-128444514D01*
X208541743Y-128502571D01*
X208483686Y-128531600D01*
X208251457Y-128531600D01*
X208193400Y-128502571D01*
X208164371Y-128444514D01*
X208164371Y-128328400D01*
X208193400Y-128270343D01*
X208251457Y-128241314D01*
X208309514Y-128241314D01*
X208367571Y-128531600D01*
X208541743Y-127747829D02*
X208570771Y-127805886D01*
X208570771Y-127922000D01*
X208541743Y-127980057D01*
X208483686Y-128009086D01*
X208251457Y-128009086D01*
X208193400Y-127980057D01*
X208164371Y-127922000D01*
X208164371Y-127805886D01*
X208193400Y-127747829D01*
X208251457Y-127718800D01*
X208309514Y-127718800D01*
X208367571Y-128009086D01*
X208541743Y-127225315D02*
X208570771Y-127283372D01*
X208570771Y-127399486D01*
X208541743Y-127457543D01*
X208483686Y-127486572D01*
X208251457Y-127486572D01*
X208193400Y-127457543D01*
X208164371Y-127399486D01*
X208164371Y-127283372D01*
X208193400Y-127225315D01*
X208251457Y-127196286D01*
X208309514Y-127196286D01*
X208367571Y-127486572D01*
X208570771Y-126673772D02*
X207961171Y-126673772D01*
X208541743Y-126673772D02*
X208570771Y-126731829D01*
X208570771Y-126847943D01*
X208541743Y-126906001D01*
X208512714Y-126935029D01*
X208454657Y-126964058D01*
X208280486Y-126964058D01*
X208222429Y-126935029D01*
X208193400Y-126906001D01*
X208164371Y-126847943D01*
X208164371Y-126731829D01*
X208193400Y-126673772D01*
X208164371Y-126122229D02*
X208570771Y-126122229D01*
X208164371Y-126383486D02*
X208483686Y-126383486D01*
X208541743Y-126354458D01*
X208570771Y-126296400D01*
X208570771Y-126209315D01*
X208541743Y-126151258D01*
X208512714Y-126122229D01*
X208570771Y-125831943D02*
X208164371Y-125831943D01*
X207961171Y-125831943D02*
X207990200Y-125860972D01*
X208019229Y-125831943D01*
X207990200Y-125802915D01*
X207961171Y-125831943D01*
X208019229Y-125831943D01*
X208164371Y-125541657D02*
X208570771Y-125541657D01*
X208222429Y-125541657D02*
X208193400Y-125512629D01*
X208164371Y-125454571D01*
X208164371Y-125367486D01*
X208193400Y-125309429D01*
X208251457Y-125280400D01*
X208570771Y-125280400D01*
X208570771Y-124903028D02*
X208541743Y-124961086D01*
X208512714Y-124990114D01*
X208454657Y-125019143D01*
X208280486Y-125019143D01*
X208222429Y-124990114D01*
X208193400Y-124961086D01*
X208164371Y-124903028D01*
X208164371Y-124815943D01*
X208193400Y-124757886D01*
X208222429Y-124728857D01*
X208280486Y-124699828D01*
X208454657Y-124699828D01*
X208512714Y-124728857D01*
X208541743Y-124757886D01*
X208570771Y-124815943D01*
X208570771Y-124903028D01*
X207961171Y-124496628D02*
X208570771Y-124090228D01*
X207961171Y-124090228D02*
X208570771Y-124496628D01*
X208570771Y-123858000D02*
X207961171Y-123858000D01*
X208396600Y-123596743D02*
X208396600Y-123306457D01*
X208570771Y-123654800D02*
X207961171Y-123451600D01*
X208570771Y-123248400D01*
X207961171Y-122929086D02*
X207961171Y-122812972D01*
X207990200Y-122754914D01*
X208048257Y-122696857D01*
X208164371Y-122667829D01*
X208367571Y-122667829D01*
X208483686Y-122696857D01*
X208541743Y-122754914D01*
X208570771Y-122812972D01*
X208570771Y-122929086D01*
X208541743Y-122987143D01*
X208483686Y-123045200D01*
X208367571Y-123074229D01*
X208164371Y-123074229D01*
X208048257Y-123045200D01*
X207990200Y-122987143D01*
X207961171Y-122929086D01*
D10*
X172000000Y-86178571D02*
X172000000Y-87250000D01*
X171928572Y-87464286D01*
X171785715Y-87607143D01*
X171571429Y-87678571D01*
X171428572Y-87678571D01*
X173500000Y-87678571D02*
X172642857Y-87678571D01*
X173071429Y-87678571D02*
X173071429Y-86178571D01*
X172928572Y-86392857D01*
X172785714Y-86535714D01*
X172642857Y-86607143D01*
X171500000Y-106678571D02*
X171500000Y-107750000D01*
X171428572Y-107964286D01*
X171285715Y-108107143D01*
X171071429Y-108178571D01*
X170928572Y-108178571D01*
X172142857Y-106821429D02*
X172214286Y-106750000D01*
X172357143Y-106678571D01*
X172714286Y-106678571D01*
X172857143Y-106750000D01*
X172928572Y-106821429D01*
X173000000Y-106964286D01*
X173000000Y-107107143D01*
X172928572Y-107321429D01*
X172071429Y-108178571D01*
X173000000Y-108178571D01*
X171500000Y-127678571D02*
X171500000Y-128750000D01*
X171428572Y-128964286D01*
X171285715Y-129107143D01*
X171071429Y-129178571D01*
X170928572Y-129178571D01*
X172071429Y-127678571D02*
X173000000Y-127678571D01*
X172500000Y-128250000D01*
X172714286Y-128250000D01*
X172857143Y-128321429D01*
X172928572Y-128392857D01*
X173000000Y-128535714D01*
X173000000Y-128892857D01*
X172928572Y-129035714D01*
X172857143Y-129107143D01*
X172714286Y-129178571D01*
X172285714Y-129178571D01*
X172142857Y-129107143D01*
X172071429Y-129035714D01*
X171500000Y-148678571D02*
X171500000Y-149750000D01*
X171428572Y-149964286D01*
X171285715Y-150107143D01*
X171071429Y-150178571D01*
X170928572Y-150178571D01*
X172857143Y-149178571D02*
X172857143Y-150178571D01*
X172500000Y-148607143D02*
X172142857Y-149678571D01*
X173071429Y-149678571D01*
%LPC*%
D20*
X211000000Y-104000000D03*
X211000000Y-106000000D03*
X211000000Y-108000000D03*
X211000000Y-110000000D03*
D21*
X215450000Y-141000000D03*
X213550000Y-141000000D03*
X210550000Y-138500000D03*
X212450000Y-138500000D03*
D22*
X212500000Y-147000000D03*
D23*
X212500000Y-149540000D03*
X212500000Y-152080000D03*
X212500000Y-154620000D03*
X212500000Y-157160000D03*
X212500000Y-159700000D03*
D20*
X211000000Y-89500000D03*
X211000000Y-91500000D03*
X211000000Y-93500000D03*
X211000000Y-95500000D03*
D24*
X203500000Y-104900000D03*
X203500000Y-107100000D03*
X206500000Y-106900000D03*
X206500000Y-109100000D03*
D25*
X215617820Y-133997680D03*
X213077820Y-133997680D03*
X210537820Y-133997680D03*
X207997820Y-133997680D03*
X205457820Y-133997680D03*
X202917820Y-133997680D03*
X200377820Y-133997680D03*
X200377820Y-117833120D03*
X202917820Y-117833120D03*
X205457820Y-117833120D03*
X207997820Y-117833120D03*
X210537820Y-117833120D03*
X213077820Y-117833120D03*
X215617820Y-117833120D03*
D26*
X199300000Y-124700000D03*
X199300000Y-127250000D03*
D27*
X216304187Y-124698803D03*
X216304187Y-127238803D03*
X213764187Y-124698803D03*
X213764187Y-127238803D03*
D28*
X159850000Y-86270000D03*
X166200000Y-86270000D03*
X153500000Y-86270000D03*
X159850000Y-102500000D03*
X166200000Y-102500000D03*
D29*
X153500000Y-102500000D03*
D28*
X159850000Y-107270000D03*
X166200000Y-107270000D03*
X153500000Y-107270000D03*
X159850000Y-123500000D03*
X166200000Y-123500000D03*
D29*
X153500000Y-123500000D03*
D28*
X159850000Y-128270000D03*
X166200000Y-128270000D03*
X153500000Y-128270000D03*
X159850000Y-144500000D03*
X166200000Y-144500000D03*
D29*
X153500000Y-144500000D03*
D28*
X159850000Y-149270000D03*
X166200000Y-149270000D03*
X153500000Y-149270000D03*
X159850000Y-165500000D03*
X166200000Y-165500000D03*
D29*
X153500000Y-165500000D03*
M02*
