G04 #@! TF.FileFunction,Copper,L2,Bot,Signal*
%FSLAX46Y46*%
G04 Gerber Fmt 4.6, Leading zero omitted, Abs format (unit mm)*
G04 Created by KiCad (PCBNEW 4.0.7) date 09/24/20 20:34:46*
%MOMM*%
%LPD*%
G01*
G04 APERTURE LIST*
%ADD10C,0.200000*%
%ADD11C,3.000000*%
%ADD12C,1.524000*%
%ADD13R,1.700000X1.700000*%
%ADD14O,1.700000X1.700000*%
%ADD15R,3.000000X3.000000*%
%ADD16C,0.600000*%
%ADD17C,0.500000*%
%ADD18C,0.889000*%
%ADD19C,0.600000*%
%ADD20C,1.000000*%
%ADD21C,0.254000*%
G04 APERTURE END LIST*
D10*
D11*
X214500000Y-81000000D03*
X214500000Y-171000000D03*
X154500000Y-171000000D03*
X154500000Y-81000000D03*
D12*
X211000000Y-104000000D03*
X211000000Y-106000000D03*
X211000000Y-108000000D03*
X211000000Y-110000000D03*
D13*
X212500000Y-147000000D03*
D14*
X212500000Y-149540000D03*
X212500000Y-152080000D03*
X212500000Y-154620000D03*
X212500000Y-157160000D03*
X212500000Y-159700000D03*
D12*
X211000000Y-89500000D03*
X211000000Y-91500000D03*
X211000000Y-93500000D03*
X211000000Y-95500000D03*
D11*
X159850000Y-86270000D03*
X166200000Y-86270000D03*
X153500000Y-86270000D03*
X159850000Y-102500000D03*
X166200000Y-102500000D03*
D15*
X153500000Y-102500000D03*
D11*
X159850000Y-107270000D03*
X166200000Y-107270000D03*
X153500000Y-107270000D03*
X159850000Y-123500000D03*
X166200000Y-123500000D03*
D15*
X153500000Y-123500000D03*
D11*
X159850000Y-128270000D03*
X166200000Y-128270000D03*
X153500000Y-128270000D03*
X159850000Y-144500000D03*
X166200000Y-144500000D03*
D15*
X153500000Y-144500000D03*
D11*
X159850000Y-149270000D03*
X166200000Y-149270000D03*
X153500000Y-149270000D03*
X159850000Y-165500000D03*
X166200000Y-165500000D03*
D15*
X153500000Y-165500000D03*
D16*
X210450000Y-139500000D03*
X195450000Y-134900000D03*
X195500000Y-109900000D03*
D17*
X203750000Y-108500000D03*
X213000000Y-143500000D03*
D18*
X215000000Y-112000000D03*
X212500000Y-113500000D03*
X210000000Y-114500000D03*
X208000000Y-115500000D03*
D19*
X203750000Y-108500000D02*
X196900000Y-108500000D01*
X200050000Y-139500000D02*
X210450000Y-139500000D01*
X195450000Y-134900000D02*
X200050000Y-139500000D01*
X196900000Y-108500000D02*
X195500000Y-109900000D01*
X204250000Y-108000000D02*
X211000000Y-108000000D01*
X203750000Y-108500000D02*
X204250000Y-108000000D01*
X211000000Y-93500000D02*
X212200000Y-93500000D01*
X211900000Y-108000000D02*
X211000000Y-108000000D01*
X213150000Y-106750000D02*
X211900000Y-108000000D01*
X213150000Y-94450000D02*
X213150000Y-106750000D01*
X212200000Y-93500000D02*
X213150000Y-94450000D01*
D20*
X213800000Y-159700000D02*
X212500000Y-159700000D01*
X215000000Y-158500000D02*
X213800000Y-159700000D01*
X215000000Y-145500000D02*
X215000000Y-158500000D01*
X213000000Y-143500000D02*
X215000000Y-145500000D01*
D19*
X174000000Y-102500000D02*
X166200000Y-102500000D01*
X183000000Y-111500000D02*
X174000000Y-102500000D01*
X214500000Y-111500000D02*
X183000000Y-111500000D01*
X215000000Y-112000000D02*
X214500000Y-111500000D01*
X179000000Y-123500000D02*
X166200000Y-123500000D01*
X189650000Y-112850000D02*
X179000000Y-123500000D01*
X211850000Y-112850000D02*
X189650000Y-112850000D01*
X212500000Y-113500000D02*
X211850000Y-112850000D01*
X170000000Y-144500000D02*
X166200000Y-144500000D01*
X200300000Y-114200000D02*
X170000000Y-144500000D01*
X209700000Y-114200000D02*
X200300000Y-114200000D01*
X210000000Y-114500000D02*
X209700000Y-114200000D01*
X173500000Y-165500000D02*
X166200000Y-165500000D01*
X184000000Y-155000000D02*
X173500000Y-165500000D01*
X184000000Y-135000000D02*
X184000000Y-155000000D01*
X203500000Y-115500000D02*
X184000000Y-135000000D01*
X208000000Y-115500000D02*
X203500000Y-115500000D01*
D21*
G36*
X212274236Y-79509981D02*
X211873457Y-80475165D01*
X211872545Y-81520250D01*
X212271639Y-82486132D01*
X213009981Y-83225764D01*
X213975165Y-83626543D01*
X215020250Y-83627455D01*
X215986132Y-83228361D01*
X216725764Y-82490019D01*
X217122494Y-81534586D01*
X217123000Y-81537131D01*
X217123000Y-170462869D01*
X217122181Y-170466986D01*
X216728361Y-169513868D01*
X215990019Y-168774236D01*
X215024835Y-168373457D01*
X213979750Y-168372545D01*
X213013868Y-168771639D01*
X212274236Y-169509981D01*
X211873457Y-170475165D01*
X211872545Y-171520250D01*
X212271639Y-172486132D01*
X212907396Y-173123000D01*
X156091677Y-173123000D01*
X156725764Y-172490019D01*
X157126543Y-171524835D01*
X157127455Y-170479750D01*
X156728361Y-169513868D01*
X155990019Y-168774236D01*
X155024835Y-168373457D01*
X153979750Y-168372545D01*
X153013868Y-168771639D01*
X152274236Y-169509981D01*
X151877506Y-170465414D01*
X151877000Y-170462869D01*
X151877000Y-167635000D01*
X153214250Y-167635000D01*
X153373000Y-167476250D01*
X153373000Y-165627000D01*
X153627000Y-165627000D01*
X153627000Y-167476250D01*
X153785750Y-167635000D01*
X155126310Y-167635000D01*
X155359699Y-167538327D01*
X155538327Y-167359698D01*
X155635000Y-167126309D01*
X155635000Y-165861818D01*
X158022684Y-165861818D01*
X158300242Y-166533560D01*
X158813736Y-167047952D01*
X159484993Y-167326682D01*
X160211818Y-167327316D01*
X160883560Y-167049758D01*
X161397952Y-166536264D01*
X161676682Y-165865007D01*
X161677316Y-165138182D01*
X161399758Y-164466440D01*
X160886264Y-163952048D01*
X160215007Y-163673318D01*
X159488182Y-163672684D01*
X158816440Y-163950242D01*
X158302048Y-164463736D01*
X158023318Y-165134993D01*
X158022684Y-165861818D01*
X155635000Y-165861818D01*
X155635000Y-165785750D01*
X155476250Y-165627000D01*
X153627000Y-165627000D01*
X153373000Y-165627000D01*
X153353000Y-165627000D01*
X153353000Y-165373000D01*
X153373000Y-165373000D01*
X153373000Y-163523750D01*
X153627000Y-163523750D01*
X153627000Y-165373000D01*
X155476250Y-165373000D01*
X155635000Y-165214250D01*
X155635000Y-163873691D01*
X155538327Y-163640302D01*
X155359699Y-163461673D01*
X155126310Y-163365000D01*
X153785750Y-163365000D01*
X153627000Y-163523750D01*
X153373000Y-163523750D01*
X153214250Y-163365000D01*
X151877000Y-163365000D01*
X151877000Y-150126301D01*
X151950242Y-150303560D01*
X152463736Y-150817952D01*
X153134993Y-151096682D01*
X153861818Y-151097316D01*
X154533560Y-150819758D01*
X155047952Y-150306264D01*
X155326682Y-149635007D01*
X155326684Y-149631818D01*
X158022684Y-149631818D01*
X158300242Y-150303560D01*
X158813736Y-150817952D01*
X159484993Y-151096682D01*
X160211818Y-151097316D01*
X160883560Y-150819758D01*
X161397952Y-150306264D01*
X161676682Y-149635007D01*
X161676684Y-149631818D01*
X164372684Y-149631818D01*
X164650242Y-150303560D01*
X165163736Y-150817952D01*
X165834993Y-151096682D01*
X166561818Y-151097316D01*
X167233560Y-150819758D01*
X167747952Y-150306264D01*
X168026682Y-149635007D01*
X168027316Y-148908182D01*
X167749758Y-148236440D01*
X167236264Y-147722048D01*
X166565007Y-147443318D01*
X165838182Y-147442684D01*
X165166440Y-147720242D01*
X164652048Y-148233736D01*
X164373318Y-148904993D01*
X164372684Y-149631818D01*
X161676684Y-149631818D01*
X161677316Y-148908182D01*
X161399758Y-148236440D01*
X160886264Y-147722048D01*
X160215007Y-147443318D01*
X159488182Y-147442684D01*
X158816440Y-147720242D01*
X158302048Y-148233736D01*
X158023318Y-148904993D01*
X158022684Y-149631818D01*
X155326684Y-149631818D01*
X155327316Y-148908182D01*
X155049758Y-148236440D01*
X154536264Y-147722048D01*
X153865007Y-147443318D01*
X153138182Y-147442684D01*
X152466440Y-147720242D01*
X151952048Y-148233736D01*
X151877000Y-148414472D01*
X151877000Y-146635000D01*
X153214250Y-146635000D01*
X153373000Y-146476250D01*
X153373000Y-144627000D01*
X153627000Y-144627000D01*
X153627000Y-146476250D01*
X153785750Y-146635000D01*
X155126310Y-146635000D01*
X155359699Y-146538327D01*
X155538327Y-146359698D01*
X155635000Y-146126309D01*
X155635000Y-144861818D01*
X158022684Y-144861818D01*
X158300242Y-145533560D01*
X158813736Y-146047952D01*
X159484993Y-146326682D01*
X160211818Y-146327316D01*
X160883560Y-146049758D01*
X161397952Y-145536264D01*
X161676682Y-144865007D01*
X161676684Y-144861818D01*
X164372684Y-144861818D01*
X164650242Y-145533560D01*
X165163736Y-146047952D01*
X165834993Y-146326682D01*
X166561818Y-146327316D01*
X167233560Y-146049758D01*
X167747952Y-145536264D01*
X167917893Y-145127000D01*
X170000000Y-145127000D01*
X170239943Y-145079272D01*
X170443356Y-144943356D01*
X200559712Y-114827000D01*
X207608499Y-114827000D01*
X207563551Y-114845572D01*
X207536075Y-114873000D01*
X203500000Y-114873000D01*
X203260057Y-114920728D01*
X203056644Y-115056644D01*
X183556644Y-134556644D01*
X183420728Y-134760057D01*
X183373000Y-135000000D01*
X183373000Y-154740288D01*
X173240288Y-164873000D01*
X167917745Y-164873000D01*
X167749758Y-164466440D01*
X167236264Y-163952048D01*
X166565007Y-163673318D01*
X165838182Y-163672684D01*
X165166440Y-163950242D01*
X164652048Y-164463736D01*
X164373318Y-165134993D01*
X164372684Y-165861818D01*
X164650242Y-166533560D01*
X165163736Y-167047952D01*
X165834993Y-167326682D01*
X166561818Y-167327316D01*
X167233560Y-167049758D01*
X167747952Y-166536264D01*
X167917893Y-166127000D01*
X173500000Y-166127000D01*
X173739943Y-166079272D01*
X173943356Y-165943356D01*
X179829822Y-160056890D01*
X211058524Y-160056890D01*
X211228355Y-160466924D01*
X211618642Y-160895183D01*
X212143108Y-161141486D01*
X212373000Y-161020819D01*
X212373000Y-159827000D01*
X212627000Y-159827000D01*
X212627000Y-161020819D01*
X212856892Y-161141486D01*
X213381358Y-160895183D01*
X213771645Y-160466924D01*
X213941476Y-160056890D01*
X213820155Y-159827000D01*
X212627000Y-159827000D01*
X212373000Y-159827000D01*
X211179845Y-159827000D01*
X211058524Y-160056890D01*
X179829822Y-160056890D01*
X180543602Y-159343110D01*
X211058524Y-159343110D01*
X211179845Y-159573000D01*
X212373000Y-159573000D01*
X212373000Y-159553000D01*
X212627000Y-159553000D01*
X212627000Y-159573000D01*
X213820155Y-159573000D01*
X213941476Y-159343110D01*
X213771645Y-158933076D01*
X213381358Y-158504817D01*
X212874965Y-158267001D01*
X212973477Y-158247406D01*
X213355324Y-157992265D01*
X213610465Y-157610418D01*
X213700059Y-157160000D01*
X213610465Y-156709582D01*
X213355324Y-156327735D01*
X212973477Y-156072594D01*
X212523059Y-155983000D01*
X212476941Y-155983000D01*
X212026523Y-156072594D01*
X211644676Y-156327735D01*
X211389535Y-156709582D01*
X211299941Y-157160000D01*
X211389535Y-157610418D01*
X211644676Y-157992265D01*
X212026523Y-158247406D01*
X212125035Y-158267001D01*
X211618642Y-158504817D01*
X211228355Y-158933076D01*
X211058524Y-159343110D01*
X180543602Y-159343110D01*
X184443356Y-155443356D01*
X184579272Y-155239943D01*
X184627000Y-155000000D01*
X184627000Y-154620000D01*
X211299941Y-154620000D01*
X211389535Y-155070418D01*
X211644676Y-155452265D01*
X212026523Y-155707406D01*
X212476941Y-155797000D01*
X212523059Y-155797000D01*
X212973477Y-155707406D01*
X213355324Y-155452265D01*
X213610465Y-155070418D01*
X213700059Y-154620000D01*
X213610465Y-154169582D01*
X213355324Y-153787735D01*
X212973477Y-153532594D01*
X212523059Y-153443000D01*
X212476941Y-153443000D01*
X212026523Y-153532594D01*
X211644676Y-153787735D01*
X211389535Y-154169582D01*
X211299941Y-154620000D01*
X184627000Y-154620000D01*
X184627000Y-152080000D01*
X211299941Y-152080000D01*
X211389535Y-152530418D01*
X211644676Y-152912265D01*
X212026523Y-153167406D01*
X212476941Y-153257000D01*
X212523059Y-153257000D01*
X212973477Y-153167406D01*
X213355324Y-152912265D01*
X213610465Y-152530418D01*
X213700059Y-152080000D01*
X213610465Y-151629582D01*
X213355324Y-151247735D01*
X212973477Y-150992594D01*
X212523059Y-150903000D01*
X212476941Y-150903000D01*
X212026523Y-150992594D01*
X211644676Y-151247735D01*
X211389535Y-151629582D01*
X211299941Y-152080000D01*
X184627000Y-152080000D01*
X184627000Y-149540000D01*
X211299941Y-149540000D01*
X211389535Y-149990418D01*
X211644676Y-150372265D01*
X212026523Y-150627406D01*
X212476941Y-150717000D01*
X212523059Y-150717000D01*
X212973477Y-150627406D01*
X213355324Y-150372265D01*
X213610465Y-149990418D01*
X213700059Y-149540000D01*
X213610465Y-149089582D01*
X213355324Y-148707735D01*
X212973477Y-148452594D01*
X212523059Y-148363000D01*
X212476941Y-148363000D01*
X212026523Y-148452594D01*
X211644676Y-148707735D01*
X211389535Y-149089582D01*
X211299941Y-149540000D01*
X184627000Y-149540000D01*
X184627000Y-146150000D01*
X211316594Y-146150000D01*
X211316594Y-147850000D01*
X211339395Y-147971179D01*
X211411012Y-148082474D01*
X211520286Y-148157138D01*
X211650000Y-148183406D01*
X213350000Y-148183406D01*
X213471179Y-148160605D01*
X213582474Y-148088988D01*
X213657138Y-147979714D01*
X213683406Y-147850000D01*
X213683406Y-146150000D01*
X213660605Y-146028821D01*
X213588988Y-145917526D01*
X213479714Y-145842862D01*
X213350000Y-145816594D01*
X211650000Y-145816594D01*
X211528821Y-145839395D01*
X211417526Y-145911012D01*
X211342862Y-146020286D01*
X211316594Y-146150000D01*
X184627000Y-146150000D01*
X184627000Y-135259712D01*
X184862541Y-135024171D01*
X194822891Y-135024171D01*
X194918145Y-135254703D01*
X195094369Y-135431235D01*
X195094632Y-135431344D01*
X199606644Y-139943356D01*
X199810057Y-140079272D01*
X200050000Y-140127000D01*
X210449453Y-140127000D01*
X210574171Y-140127109D01*
X210804703Y-140031855D01*
X210981235Y-139855631D01*
X211076891Y-139625265D01*
X211077109Y-139375829D01*
X210981855Y-139145297D01*
X210805631Y-138968765D01*
X210575265Y-138873109D01*
X210325829Y-138872891D01*
X210325565Y-138873000D01*
X200309712Y-138873000D01*
X195893743Y-134457031D01*
X195805631Y-134368765D01*
X195575265Y-134273109D01*
X195325829Y-134272891D01*
X195095297Y-134368145D01*
X194918765Y-134544369D01*
X194823109Y-134774735D01*
X194822891Y-135024171D01*
X184862541Y-135024171D01*
X203759712Y-116127000D01*
X207535791Y-116127000D01*
X207562410Y-116153665D01*
X207845866Y-116271366D01*
X208152788Y-116271634D01*
X208436449Y-116154428D01*
X208653665Y-115937590D01*
X208771366Y-115654134D01*
X208771634Y-115347212D01*
X208654428Y-115063551D01*
X208437590Y-114846335D01*
X208391026Y-114827000D01*
X209300349Y-114827000D01*
X209345572Y-114936449D01*
X209562410Y-115153665D01*
X209845866Y-115271366D01*
X210152788Y-115271634D01*
X210436449Y-115154428D01*
X210653665Y-114937590D01*
X210771366Y-114654134D01*
X210771634Y-114347212D01*
X210654428Y-114063551D01*
X210437590Y-113846335D01*
X210154134Y-113728634D01*
X210101367Y-113728588D01*
X210101035Y-113728366D01*
X209939943Y-113620728D01*
X209700000Y-113573000D01*
X200300000Y-113573000D01*
X200060058Y-113620727D01*
X199856644Y-113756644D01*
X169740288Y-143873000D01*
X167917745Y-143873000D01*
X167749758Y-143466440D01*
X167236264Y-142952048D01*
X166565007Y-142673318D01*
X165838182Y-142672684D01*
X165166440Y-142950242D01*
X164652048Y-143463736D01*
X164373318Y-144134993D01*
X164372684Y-144861818D01*
X161676684Y-144861818D01*
X161677316Y-144138182D01*
X161399758Y-143466440D01*
X160886264Y-142952048D01*
X160215007Y-142673318D01*
X159488182Y-142672684D01*
X158816440Y-142950242D01*
X158302048Y-143463736D01*
X158023318Y-144134993D01*
X158022684Y-144861818D01*
X155635000Y-144861818D01*
X155635000Y-144785750D01*
X155476250Y-144627000D01*
X153627000Y-144627000D01*
X153373000Y-144627000D01*
X153353000Y-144627000D01*
X153353000Y-144373000D01*
X153373000Y-144373000D01*
X153373000Y-142523750D01*
X153627000Y-142523750D01*
X153627000Y-144373000D01*
X155476250Y-144373000D01*
X155635000Y-144214250D01*
X155635000Y-142873691D01*
X155538327Y-142640302D01*
X155359699Y-142461673D01*
X155126310Y-142365000D01*
X153785750Y-142365000D01*
X153627000Y-142523750D01*
X153373000Y-142523750D01*
X153214250Y-142365000D01*
X151877000Y-142365000D01*
X151877000Y-129126301D01*
X151950242Y-129303560D01*
X152463736Y-129817952D01*
X153134993Y-130096682D01*
X153861818Y-130097316D01*
X154533560Y-129819758D01*
X155047952Y-129306264D01*
X155326682Y-128635007D01*
X155326684Y-128631818D01*
X158022684Y-128631818D01*
X158300242Y-129303560D01*
X158813736Y-129817952D01*
X159484993Y-130096682D01*
X160211818Y-130097316D01*
X160883560Y-129819758D01*
X161397952Y-129306264D01*
X161676682Y-128635007D01*
X161676684Y-128631818D01*
X164372684Y-128631818D01*
X164650242Y-129303560D01*
X165163736Y-129817952D01*
X165834993Y-130096682D01*
X166561818Y-130097316D01*
X167233560Y-129819758D01*
X167747952Y-129306264D01*
X168026682Y-128635007D01*
X168027316Y-127908182D01*
X167749758Y-127236440D01*
X167236264Y-126722048D01*
X166565007Y-126443318D01*
X165838182Y-126442684D01*
X165166440Y-126720242D01*
X164652048Y-127233736D01*
X164373318Y-127904993D01*
X164372684Y-128631818D01*
X161676684Y-128631818D01*
X161677316Y-127908182D01*
X161399758Y-127236440D01*
X160886264Y-126722048D01*
X160215007Y-126443318D01*
X159488182Y-126442684D01*
X158816440Y-126720242D01*
X158302048Y-127233736D01*
X158023318Y-127904993D01*
X158022684Y-128631818D01*
X155326684Y-128631818D01*
X155327316Y-127908182D01*
X155049758Y-127236440D01*
X154536264Y-126722048D01*
X153865007Y-126443318D01*
X153138182Y-126442684D01*
X152466440Y-126720242D01*
X151952048Y-127233736D01*
X151877000Y-127414472D01*
X151877000Y-125635000D01*
X153214250Y-125635000D01*
X153373000Y-125476250D01*
X153373000Y-123627000D01*
X153627000Y-123627000D01*
X153627000Y-125476250D01*
X153785750Y-125635000D01*
X155126310Y-125635000D01*
X155359699Y-125538327D01*
X155538327Y-125359698D01*
X155635000Y-125126309D01*
X155635000Y-123861818D01*
X158022684Y-123861818D01*
X158300242Y-124533560D01*
X158813736Y-125047952D01*
X159484993Y-125326682D01*
X160211818Y-125327316D01*
X160883560Y-125049758D01*
X161397952Y-124536264D01*
X161676682Y-123865007D01*
X161676684Y-123861818D01*
X164372684Y-123861818D01*
X164650242Y-124533560D01*
X165163736Y-125047952D01*
X165834993Y-125326682D01*
X166561818Y-125327316D01*
X167233560Y-125049758D01*
X167747952Y-124536264D01*
X167917893Y-124127000D01*
X179000000Y-124127000D01*
X179239943Y-124079272D01*
X179443356Y-123943356D01*
X189909712Y-113477000D01*
X211590288Y-113477000D01*
X211728399Y-113615111D01*
X211728366Y-113652788D01*
X211845572Y-113936449D01*
X212062410Y-114153665D01*
X212345866Y-114271366D01*
X212652788Y-114271634D01*
X212936449Y-114154428D01*
X213153665Y-113937590D01*
X213271366Y-113654134D01*
X213271634Y-113347212D01*
X213154428Y-113063551D01*
X212937590Y-112846335D01*
X212654134Y-112728634D01*
X212615312Y-112728600D01*
X212293356Y-112406644D01*
X212089943Y-112270728D01*
X211850000Y-112223000D01*
X189650000Y-112223000D01*
X189410057Y-112270728D01*
X189206644Y-112406644D01*
X178740288Y-122873000D01*
X167917745Y-122873000D01*
X167749758Y-122466440D01*
X167236264Y-121952048D01*
X166565007Y-121673318D01*
X165838182Y-121672684D01*
X165166440Y-121950242D01*
X164652048Y-122463736D01*
X164373318Y-123134993D01*
X164372684Y-123861818D01*
X161676684Y-123861818D01*
X161677316Y-123138182D01*
X161399758Y-122466440D01*
X160886264Y-121952048D01*
X160215007Y-121673318D01*
X159488182Y-121672684D01*
X158816440Y-121950242D01*
X158302048Y-122463736D01*
X158023318Y-123134993D01*
X158022684Y-123861818D01*
X155635000Y-123861818D01*
X155635000Y-123785750D01*
X155476250Y-123627000D01*
X153627000Y-123627000D01*
X153373000Y-123627000D01*
X153353000Y-123627000D01*
X153353000Y-123373000D01*
X153373000Y-123373000D01*
X153373000Y-121523750D01*
X153627000Y-121523750D01*
X153627000Y-123373000D01*
X155476250Y-123373000D01*
X155635000Y-123214250D01*
X155635000Y-121873691D01*
X155538327Y-121640302D01*
X155359699Y-121461673D01*
X155126310Y-121365000D01*
X153785750Y-121365000D01*
X153627000Y-121523750D01*
X153373000Y-121523750D01*
X153214250Y-121365000D01*
X151877000Y-121365000D01*
X151877000Y-108126301D01*
X151950242Y-108303560D01*
X152463736Y-108817952D01*
X153134993Y-109096682D01*
X153861818Y-109097316D01*
X154533560Y-108819758D01*
X155047952Y-108306264D01*
X155326682Y-107635007D01*
X155326684Y-107631818D01*
X158022684Y-107631818D01*
X158300242Y-108303560D01*
X158813736Y-108817952D01*
X159484993Y-109096682D01*
X160211818Y-109097316D01*
X160883560Y-108819758D01*
X161397952Y-108306264D01*
X161676682Y-107635007D01*
X161676684Y-107631818D01*
X164372684Y-107631818D01*
X164650242Y-108303560D01*
X165163736Y-108817952D01*
X165834993Y-109096682D01*
X166561818Y-109097316D01*
X167233560Y-108819758D01*
X167747952Y-108306264D01*
X168026682Y-107635007D01*
X168027316Y-106908182D01*
X167749758Y-106236440D01*
X167236264Y-105722048D01*
X166565007Y-105443318D01*
X165838182Y-105442684D01*
X165166440Y-105720242D01*
X164652048Y-106233736D01*
X164373318Y-106904993D01*
X164372684Y-107631818D01*
X161676684Y-107631818D01*
X161677316Y-106908182D01*
X161399758Y-106236440D01*
X160886264Y-105722048D01*
X160215007Y-105443318D01*
X159488182Y-105442684D01*
X158816440Y-105720242D01*
X158302048Y-106233736D01*
X158023318Y-106904993D01*
X158022684Y-107631818D01*
X155326684Y-107631818D01*
X155327316Y-106908182D01*
X155049758Y-106236440D01*
X154536264Y-105722048D01*
X153865007Y-105443318D01*
X153138182Y-105442684D01*
X152466440Y-105720242D01*
X151952048Y-106233736D01*
X151877000Y-106414472D01*
X151877000Y-104635000D01*
X153214250Y-104635000D01*
X153373000Y-104476250D01*
X153373000Y-102627000D01*
X153627000Y-102627000D01*
X153627000Y-104476250D01*
X153785750Y-104635000D01*
X155126310Y-104635000D01*
X155359699Y-104538327D01*
X155538327Y-104359698D01*
X155635000Y-104126309D01*
X155635000Y-102861818D01*
X158022684Y-102861818D01*
X158300242Y-103533560D01*
X158813736Y-104047952D01*
X159484993Y-104326682D01*
X160211818Y-104327316D01*
X160883560Y-104049758D01*
X161397952Y-103536264D01*
X161676682Y-102865007D01*
X161676684Y-102861818D01*
X164372684Y-102861818D01*
X164650242Y-103533560D01*
X165163736Y-104047952D01*
X165834993Y-104326682D01*
X166561818Y-104327316D01*
X167233560Y-104049758D01*
X167747952Y-103536264D01*
X167917893Y-103127000D01*
X173740288Y-103127000D01*
X182556644Y-111943356D01*
X182760057Y-112079272D01*
X183000000Y-112127000D01*
X214228389Y-112127000D01*
X214228366Y-112152788D01*
X214345572Y-112436449D01*
X214562410Y-112653665D01*
X214845866Y-112771366D01*
X215152788Y-112771634D01*
X215436449Y-112654428D01*
X215653665Y-112437590D01*
X215771366Y-112154134D01*
X215771634Y-111847212D01*
X215654428Y-111563551D01*
X215437590Y-111346335D01*
X215154134Y-111228634D01*
X215115312Y-111228600D01*
X214943356Y-111056644D01*
X214739943Y-110920728D01*
X214500000Y-110873000D01*
X212052608Y-110873000D01*
X211980215Y-110800607D01*
X212222397Y-110731143D01*
X212409144Y-110207698D01*
X212381362Y-109652632D01*
X212222397Y-109268857D01*
X211980213Y-109199392D01*
X211179605Y-110000000D01*
X211193748Y-110014143D01*
X211014143Y-110193748D01*
X211000000Y-110179605D01*
X210985858Y-110193748D01*
X210806253Y-110014143D01*
X210820395Y-110000000D01*
X210019787Y-109199392D01*
X209777603Y-109268857D01*
X209590856Y-109792302D01*
X209618638Y-110347368D01*
X209777603Y-110731143D01*
X210019785Y-110800607D01*
X209947392Y-110873000D01*
X183259712Y-110873000D01*
X182410883Y-110024171D01*
X194872891Y-110024171D01*
X194968145Y-110254703D01*
X195144369Y-110431235D01*
X195374735Y-110526891D01*
X195624171Y-110527109D01*
X195854703Y-110431855D01*
X196031235Y-110255631D01*
X196031344Y-110255368D01*
X197159712Y-109127000D01*
X203750000Y-109127000D01*
X203989943Y-109079272D01*
X204193356Y-108943356D01*
X204509712Y-108627000D01*
X210087170Y-108627000D01*
X210261861Y-108801995D01*
X210199392Y-109019787D01*
X211000000Y-109820395D01*
X211800608Y-109019787D01*
X211738115Y-108801909D01*
X211916646Y-108623689D01*
X212139943Y-108579272D01*
X212343356Y-108443356D01*
X213593356Y-107193356D01*
X213729273Y-106989942D01*
X213777000Y-106750000D01*
X213777000Y-94450000D01*
X213742708Y-94277603D01*
X213729273Y-94210058D01*
X213593356Y-94006644D01*
X212643356Y-93056644D01*
X212439943Y-92920728D01*
X212200000Y-92873000D01*
X211912830Y-92873000D01*
X211617674Y-92577329D01*
X211431482Y-92500015D01*
X211616063Y-92423748D01*
X211922671Y-92117674D01*
X212088811Y-91717566D01*
X212089189Y-91284335D01*
X211923748Y-90883937D01*
X211617674Y-90577329D01*
X211431482Y-90500015D01*
X211616063Y-90423748D01*
X211922671Y-90117674D01*
X212088811Y-89717566D01*
X212089189Y-89284335D01*
X211923748Y-88883937D01*
X211617674Y-88577329D01*
X211217566Y-88411189D01*
X210784335Y-88410811D01*
X210383937Y-88576252D01*
X210077329Y-88882326D01*
X209911189Y-89282434D01*
X209910811Y-89715665D01*
X210076252Y-90116063D01*
X210382326Y-90422671D01*
X210568518Y-90499985D01*
X210383937Y-90576252D01*
X210077329Y-90882326D01*
X209911189Y-91282434D01*
X209910811Y-91715665D01*
X210076252Y-92116063D01*
X210382326Y-92422671D01*
X210568518Y-92499985D01*
X210383937Y-92576252D01*
X210077329Y-92882326D01*
X209911189Y-93282434D01*
X209910811Y-93715665D01*
X210076252Y-94116063D01*
X210261861Y-94301995D01*
X210199392Y-94519787D01*
X211000000Y-95320395D01*
X211800608Y-94519787D01*
X211738115Y-94301909D01*
X211913329Y-94127000D01*
X211940288Y-94127000D01*
X212523000Y-94709712D01*
X212523000Y-106490288D01*
X211776678Y-107236610D01*
X211617674Y-107077329D01*
X211431482Y-107000015D01*
X211616063Y-106923748D01*
X211922671Y-106617674D01*
X212088811Y-106217566D01*
X212089189Y-105784335D01*
X211923748Y-105383937D01*
X211617674Y-105077329D01*
X211431482Y-105000015D01*
X211616063Y-104923748D01*
X211922671Y-104617674D01*
X212088811Y-104217566D01*
X212089189Y-103784335D01*
X211923748Y-103383937D01*
X211617674Y-103077329D01*
X211217566Y-102911189D01*
X210784335Y-102910811D01*
X210383937Y-103076252D01*
X210077329Y-103382326D01*
X209911189Y-103782434D01*
X209910811Y-104215665D01*
X210076252Y-104616063D01*
X210382326Y-104922671D01*
X210568518Y-104999985D01*
X210383937Y-105076252D01*
X210077329Y-105382326D01*
X209911189Y-105782434D01*
X209910811Y-106215665D01*
X210076252Y-106616063D01*
X210382326Y-106922671D01*
X210568518Y-106999985D01*
X210383937Y-107076252D01*
X210086671Y-107373000D01*
X204250000Y-107373000D01*
X204010058Y-107420727D01*
X203806644Y-107556644D01*
X203490288Y-107873000D01*
X196900000Y-107873000D01*
X196660057Y-107920728D01*
X196541418Y-108000000D01*
X196456644Y-108056644D01*
X195057031Y-109456257D01*
X194968765Y-109544369D01*
X194873109Y-109774735D01*
X194872891Y-110024171D01*
X182410883Y-110024171D01*
X174443356Y-102056644D01*
X174239943Y-101920728D01*
X174000000Y-101873000D01*
X167917745Y-101873000D01*
X167749758Y-101466440D01*
X167236264Y-100952048D01*
X166565007Y-100673318D01*
X165838182Y-100672684D01*
X165166440Y-100950242D01*
X164652048Y-101463736D01*
X164373318Y-102134993D01*
X164372684Y-102861818D01*
X161676684Y-102861818D01*
X161677316Y-102138182D01*
X161399758Y-101466440D01*
X160886264Y-100952048D01*
X160215007Y-100673318D01*
X159488182Y-100672684D01*
X158816440Y-100950242D01*
X158302048Y-101463736D01*
X158023318Y-102134993D01*
X158022684Y-102861818D01*
X155635000Y-102861818D01*
X155635000Y-102785750D01*
X155476250Y-102627000D01*
X153627000Y-102627000D01*
X153373000Y-102627000D01*
X153353000Y-102627000D01*
X153353000Y-102373000D01*
X153373000Y-102373000D01*
X153373000Y-100523750D01*
X153627000Y-100523750D01*
X153627000Y-102373000D01*
X155476250Y-102373000D01*
X155635000Y-102214250D01*
X155635000Y-100873691D01*
X155538327Y-100640302D01*
X155359699Y-100461673D01*
X155126310Y-100365000D01*
X153785750Y-100365000D01*
X153627000Y-100523750D01*
X153373000Y-100523750D01*
X153214250Y-100365000D01*
X151877000Y-100365000D01*
X151877000Y-96480213D01*
X210199392Y-96480213D01*
X210268857Y-96722397D01*
X210792302Y-96909144D01*
X211347368Y-96881362D01*
X211731143Y-96722397D01*
X211800608Y-96480213D01*
X211000000Y-95679605D01*
X210199392Y-96480213D01*
X151877000Y-96480213D01*
X151877000Y-95292302D01*
X209590856Y-95292302D01*
X209618638Y-95847368D01*
X209777603Y-96231143D01*
X210019787Y-96300608D01*
X210820395Y-95500000D01*
X211179605Y-95500000D01*
X211980213Y-96300608D01*
X212222397Y-96231143D01*
X212409144Y-95707698D01*
X212381362Y-95152632D01*
X212222397Y-94768857D01*
X211980213Y-94699392D01*
X211179605Y-95500000D01*
X210820395Y-95500000D01*
X210019787Y-94699392D01*
X209777603Y-94768857D01*
X209590856Y-95292302D01*
X151877000Y-95292302D01*
X151877000Y-87126301D01*
X151950242Y-87303560D01*
X152463736Y-87817952D01*
X153134993Y-88096682D01*
X153861818Y-88097316D01*
X154533560Y-87819758D01*
X155047952Y-87306264D01*
X155326682Y-86635007D01*
X155326684Y-86631818D01*
X158022684Y-86631818D01*
X158300242Y-87303560D01*
X158813736Y-87817952D01*
X159484993Y-88096682D01*
X160211818Y-88097316D01*
X160883560Y-87819758D01*
X161397952Y-87306264D01*
X161676682Y-86635007D01*
X161676684Y-86631818D01*
X164372684Y-86631818D01*
X164650242Y-87303560D01*
X165163736Y-87817952D01*
X165834993Y-88096682D01*
X166561818Y-88097316D01*
X167233560Y-87819758D01*
X167747952Y-87306264D01*
X168026682Y-86635007D01*
X168027316Y-85908182D01*
X167749758Y-85236440D01*
X167236264Y-84722048D01*
X166565007Y-84443318D01*
X165838182Y-84442684D01*
X165166440Y-84720242D01*
X164652048Y-85233736D01*
X164373318Y-85904993D01*
X164372684Y-86631818D01*
X161676684Y-86631818D01*
X161677316Y-85908182D01*
X161399758Y-85236440D01*
X160886264Y-84722048D01*
X160215007Y-84443318D01*
X159488182Y-84442684D01*
X158816440Y-84720242D01*
X158302048Y-85233736D01*
X158023318Y-85904993D01*
X158022684Y-86631818D01*
X155326684Y-86631818D01*
X155327316Y-85908182D01*
X155049758Y-85236440D01*
X154536264Y-84722048D01*
X153865007Y-84443318D01*
X153138182Y-84442684D01*
X152466440Y-84720242D01*
X151952048Y-85233736D01*
X151877000Y-85414472D01*
X151877000Y-81537131D01*
X151877819Y-81533014D01*
X152271639Y-82486132D01*
X153009981Y-83225764D01*
X153975165Y-83626543D01*
X155020250Y-83627455D01*
X155986132Y-83228361D01*
X156725764Y-82490019D01*
X157126543Y-81524835D01*
X157127455Y-80479750D01*
X156728361Y-79513868D01*
X156092604Y-78877000D01*
X212908323Y-78877000D01*
X212274236Y-79509981D01*
X212274236Y-79509981D01*
G37*
X212274236Y-79509981D02*
X211873457Y-80475165D01*
X211872545Y-81520250D01*
X212271639Y-82486132D01*
X213009981Y-83225764D01*
X213975165Y-83626543D01*
X215020250Y-83627455D01*
X215986132Y-83228361D01*
X216725764Y-82490019D01*
X217122494Y-81534586D01*
X217123000Y-81537131D01*
X217123000Y-170462869D01*
X217122181Y-170466986D01*
X216728361Y-169513868D01*
X215990019Y-168774236D01*
X215024835Y-168373457D01*
X213979750Y-168372545D01*
X213013868Y-168771639D01*
X212274236Y-169509981D01*
X211873457Y-170475165D01*
X211872545Y-171520250D01*
X212271639Y-172486132D01*
X212907396Y-173123000D01*
X156091677Y-173123000D01*
X156725764Y-172490019D01*
X157126543Y-171524835D01*
X157127455Y-170479750D01*
X156728361Y-169513868D01*
X155990019Y-168774236D01*
X155024835Y-168373457D01*
X153979750Y-168372545D01*
X153013868Y-168771639D01*
X152274236Y-169509981D01*
X151877506Y-170465414D01*
X151877000Y-170462869D01*
X151877000Y-167635000D01*
X153214250Y-167635000D01*
X153373000Y-167476250D01*
X153373000Y-165627000D01*
X153627000Y-165627000D01*
X153627000Y-167476250D01*
X153785750Y-167635000D01*
X155126310Y-167635000D01*
X155359699Y-167538327D01*
X155538327Y-167359698D01*
X155635000Y-167126309D01*
X155635000Y-165861818D01*
X158022684Y-165861818D01*
X158300242Y-166533560D01*
X158813736Y-167047952D01*
X159484993Y-167326682D01*
X160211818Y-167327316D01*
X160883560Y-167049758D01*
X161397952Y-166536264D01*
X161676682Y-165865007D01*
X161677316Y-165138182D01*
X161399758Y-164466440D01*
X160886264Y-163952048D01*
X160215007Y-163673318D01*
X159488182Y-163672684D01*
X158816440Y-163950242D01*
X158302048Y-164463736D01*
X158023318Y-165134993D01*
X158022684Y-165861818D01*
X155635000Y-165861818D01*
X155635000Y-165785750D01*
X155476250Y-165627000D01*
X153627000Y-165627000D01*
X153373000Y-165627000D01*
X153353000Y-165627000D01*
X153353000Y-165373000D01*
X153373000Y-165373000D01*
X153373000Y-163523750D01*
X153627000Y-163523750D01*
X153627000Y-165373000D01*
X155476250Y-165373000D01*
X155635000Y-165214250D01*
X155635000Y-163873691D01*
X155538327Y-163640302D01*
X155359699Y-163461673D01*
X155126310Y-163365000D01*
X153785750Y-163365000D01*
X153627000Y-163523750D01*
X153373000Y-163523750D01*
X153214250Y-163365000D01*
X151877000Y-163365000D01*
X151877000Y-150126301D01*
X151950242Y-150303560D01*
X152463736Y-150817952D01*
X153134993Y-151096682D01*
X153861818Y-151097316D01*
X154533560Y-150819758D01*
X155047952Y-150306264D01*
X155326682Y-149635007D01*
X155326684Y-149631818D01*
X158022684Y-149631818D01*
X158300242Y-150303560D01*
X158813736Y-150817952D01*
X159484993Y-151096682D01*
X160211818Y-151097316D01*
X160883560Y-150819758D01*
X161397952Y-150306264D01*
X161676682Y-149635007D01*
X161676684Y-149631818D01*
X164372684Y-149631818D01*
X164650242Y-150303560D01*
X165163736Y-150817952D01*
X165834993Y-151096682D01*
X166561818Y-151097316D01*
X167233560Y-150819758D01*
X167747952Y-150306264D01*
X168026682Y-149635007D01*
X168027316Y-148908182D01*
X167749758Y-148236440D01*
X167236264Y-147722048D01*
X166565007Y-147443318D01*
X165838182Y-147442684D01*
X165166440Y-147720242D01*
X164652048Y-148233736D01*
X164373318Y-148904993D01*
X164372684Y-149631818D01*
X161676684Y-149631818D01*
X161677316Y-148908182D01*
X161399758Y-148236440D01*
X160886264Y-147722048D01*
X160215007Y-147443318D01*
X159488182Y-147442684D01*
X158816440Y-147720242D01*
X158302048Y-148233736D01*
X158023318Y-148904993D01*
X158022684Y-149631818D01*
X155326684Y-149631818D01*
X155327316Y-148908182D01*
X155049758Y-148236440D01*
X154536264Y-147722048D01*
X153865007Y-147443318D01*
X153138182Y-147442684D01*
X152466440Y-147720242D01*
X151952048Y-148233736D01*
X151877000Y-148414472D01*
X151877000Y-146635000D01*
X153214250Y-146635000D01*
X153373000Y-146476250D01*
X153373000Y-144627000D01*
X153627000Y-144627000D01*
X153627000Y-146476250D01*
X153785750Y-146635000D01*
X155126310Y-146635000D01*
X155359699Y-146538327D01*
X155538327Y-146359698D01*
X155635000Y-146126309D01*
X155635000Y-144861818D01*
X158022684Y-144861818D01*
X158300242Y-145533560D01*
X158813736Y-146047952D01*
X159484993Y-146326682D01*
X160211818Y-146327316D01*
X160883560Y-146049758D01*
X161397952Y-145536264D01*
X161676682Y-144865007D01*
X161676684Y-144861818D01*
X164372684Y-144861818D01*
X164650242Y-145533560D01*
X165163736Y-146047952D01*
X165834993Y-146326682D01*
X166561818Y-146327316D01*
X167233560Y-146049758D01*
X167747952Y-145536264D01*
X167917893Y-145127000D01*
X170000000Y-145127000D01*
X170239943Y-145079272D01*
X170443356Y-144943356D01*
X200559712Y-114827000D01*
X207608499Y-114827000D01*
X207563551Y-114845572D01*
X207536075Y-114873000D01*
X203500000Y-114873000D01*
X203260057Y-114920728D01*
X203056644Y-115056644D01*
X183556644Y-134556644D01*
X183420728Y-134760057D01*
X183373000Y-135000000D01*
X183373000Y-154740288D01*
X173240288Y-164873000D01*
X167917745Y-164873000D01*
X167749758Y-164466440D01*
X167236264Y-163952048D01*
X166565007Y-163673318D01*
X165838182Y-163672684D01*
X165166440Y-163950242D01*
X164652048Y-164463736D01*
X164373318Y-165134993D01*
X164372684Y-165861818D01*
X164650242Y-166533560D01*
X165163736Y-167047952D01*
X165834993Y-167326682D01*
X166561818Y-167327316D01*
X167233560Y-167049758D01*
X167747952Y-166536264D01*
X167917893Y-166127000D01*
X173500000Y-166127000D01*
X173739943Y-166079272D01*
X173943356Y-165943356D01*
X179829822Y-160056890D01*
X211058524Y-160056890D01*
X211228355Y-160466924D01*
X211618642Y-160895183D01*
X212143108Y-161141486D01*
X212373000Y-161020819D01*
X212373000Y-159827000D01*
X212627000Y-159827000D01*
X212627000Y-161020819D01*
X212856892Y-161141486D01*
X213381358Y-160895183D01*
X213771645Y-160466924D01*
X213941476Y-160056890D01*
X213820155Y-159827000D01*
X212627000Y-159827000D01*
X212373000Y-159827000D01*
X211179845Y-159827000D01*
X211058524Y-160056890D01*
X179829822Y-160056890D01*
X180543602Y-159343110D01*
X211058524Y-159343110D01*
X211179845Y-159573000D01*
X212373000Y-159573000D01*
X212373000Y-159553000D01*
X212627000Y-159553000D01*
X212627000Y-159573000D01*
X213820155Y-159573000D01*
X213941476Y-159343110D01*
X213771645Y-158933076D01*
X213381358Y-158504817D01*
X212874965Y-158267001D01*
X212973477Y-158247406D01*
X213355324Y-157992265D01*
X213610465Y-157610418D01*
X213700059Y-157160000D01*
X213610465Y-156709582D01*
X213355324Y-156327735D01*
X212973477Y-156072594D01*
X212523059Y-155983000D01*
X212476941Y-155983000D01*
X212026523Y-156072594D01*
X211644676Y-156327735D01*
X211389535Y-156709582D01*
X211299941Y-157160000D01*
X211389535Y-157610418D01*
X211644676Y-157992265D01*
X212026523Y-158247406D01*
X212125035Y-158267001D01*
X211618642Y-158504817D01*
X211228355Y-158933076D01*
X211058524Y-159343110D01*
X180543602Y-159343110D01*
X184443356Y-155443356D01*
X184579272Y-155239943D01*
X184627000Y-155000000D01*
X184627000Y-154620000D01*
X211299941Y-154620000D01*
X211389535Y-155070418D01*
X211644676Y-155452265D01*
X212026523Y-155707406D01*
X212476941Y-155797000D01*
X212523059Y-155797000D01*
X212973477Y-155707406D01*
X213355324Y-155452265D01*
X213610465Y-155070418D01*
X213700059Y-154620000D01*
X213610465Y-154169582D01*
X213355324Y-153787735D01*
X212973477Y-153532594D01*
X212523059Y-153443000D01*
X212476941Y-153443000D01*
X212026523Y-153532594D01*
X211644676Y-153787735D01*
X211389535Y-154169582D01*
X211299941Y-154620000D01*
X184627000Y-154620000D01*
X184627000Y-152080000D01*
X211299941Y-152080000D01*
X211389535Y-152530418D01*
X211644676Y-152912265D01*
X212026523Y-153167406D01*
X212476941Y-153257000D01*
X212523059Y-153257000D01*
X212973477Y-153167406D01*
X213355324Y-152912265D01*
X213610465Y-152530418D01*
X213700059Y-152080000D01*
X213610465Y-151629582D01*
X213355324Y-151247735D01*
X212973477Y-150992594D01*
X212523059Y-150903000D01*
X212476941Y-150903000D01*
X212026523Y-150992594D01*
X211644676Y-151247735D01*
X211389535Y-151629582D01*
X211299941Y-152080000D01*
X184627000Y-152080000D01*
X184627000Y-149540000D01*
X211299941Y-149540000D01*
X211389535Y-149990418D01*
X211644676Y-150372265D01*
X212026523Y-150627406D01*
X212476941Y-150717000D01*
X212523059Y-150717000D01*
X212973477Y-150627406D01*
X213355324Y-150372265D01*
X213610465Y-149990418D01*
X213700059Y-149540000D01*
X213610465Y-149089582D01*
X213355324Y-148707735D01*
X212973477Y-148452594D01*
X212523059Y-148363000D01*
X212476941Y-148363000D01*
X212026523Y-148452594D01*
X211644676Y-148707735D01*
X211389535Y-149089582D01*
X211299941Y-149540000D01*
X184627000Y-149540000D01*
X184627000Y-146150000D01*
X211316594Y-146150000D01*
X211316594Y-147850000D01*
X211339395Y-147971179D01*
X211411012Y-148082474D01*
X211520286Y-148157138D01*
X211650000Y-148183406D01*
X213350000Y-148183406D01*
X213471179Y-148160605D01*
X213582474Y-148088988D01*
X213657138Y-147979714D01*
X213683406Y-147850000D01*
X213683406Y-146150000D01*
X213660605Y-146028821D01*
X213588988Y-145917526D01*
X213479714Y-145842862D01*
X213350000Y-145816594D01*
X211650000Y-145816594D01*
X211528821Y-145839395D01*
X211417526Y-145911012D01*
X211342862Y-146020286D01*
X211316594Y-146150000D01*
X184627000Y-146150000D01*
X184627000Y-135259712D01*
X184862541Y-135024171D01*
X194822891Y-135024171D01*
X194918145Y-135254703D01*
X195094369Y-135431235D01*
X195094632Y-135431344D01*
X199606644Y-139943356D01*
X199810057Y-140079272D01*
X200050000Y-140127000D01*
X210449453Y-140127000D01*
X210574171Y-140127109D01*
X210804703Y-140031855D01*
X210981235Y-139855631D01*
X211076891Y-139625265D01*
X211077109Y-139375829D01*
X210981855Y-139145297D01*
X210805631Y-138968765D01*
X210575265Y-138873109D01*
X210325829Y-138872891D01*
X210325565Y-138873000D01*
X200309712Y-138873000D01*
X195893743Y-134457031D01*
X195805631Y-134368765D01*
X195575265Y-134273109D01*
X195325829Y-134272891D01*
X195095297Y-134368145D01*
X194918765Y-134544369D01*
X194823109Y-134774735D01*
X194822891Y-135024171D01*
X184862541Y-135024171D01*
X203759712Y-116127000D01*
X207535791Y-116127000D01*
X207562410Y-116153665D01*
X207845866Y-116271366D01*
X208152788Y-116271634D01*
X208436449Y-116154428D01*
X208653665Y-115937590D01*
X208771366Y-115654134D01*
X208771634Y-115347212D01*
X208654428Y-115063551D01*
X208437590Y-114846335D01*
X208391026Y-114827000D01*
X209300349Y-114827000D01*
X209345572Y-114936449D01*
X209562410Y-115153665D01*
X209845866Y-115271366D01*
X210152788Y-115271634D01*
X210436449Y-115154428D01*
X210653665Y-114937590D01*
X210771366Y-114654134D01*
X210771634Y-114347212D01*
X210654428Y-114063551D01*
X210437590Y-113846335D01*
X210154134Y-113728634D01*
X210101367Y-113728588D01*
X210101035Y-113728366D01*
X209939943Y-113620728D01*
X209700000Y-113573000D01*
X200300000Y-113573000D01*
X200060058Y-113620727D01*
X199856644Y-113756644D01*
X169740288Y-143873000D01*
X167917745Y-143873000D01*
X167749758Y-143466440D01*
X167236264Y-142952048D01*
X166565007Y-142673318D01*
X165838182Y-142672684D01*
X165166440Y-142950242D01*
X164652048Y-143463736D01*
X164373318Y-144134993D01*
X164372684Y-144861818D01*
X161676684Y-144861818D01*
X161677316Y-144138182D01*
X161399758Y-143466440D01*
X160886264Y-142952048D01*
X160215007Y-142673318D01*
X159488182Y-142672684D01*
X158816440Y-142950242D01*
X158302048Y-143463736D01*
X158023318Y-144134993D01*
X158022684Y-144861818D01*
X155635000Y-144861818D01*
X155635000Y-144785750D01*
X155476250Y-144627000D01*
X153627000Y-144627000D01*
X153373000Y-144627000D01*
X153353000Y-144627000D01*
X153353000Y-144373000D01*
X153373000Y-144373000D01*
X153373000Y-142523750D01*
X153627000Y-142523750D01*
X153627000Y-144373000D01*
X155476250Y-144373000D01*
X155635000Y-144214250D01*
X155635000Y-142873691D01*
X155538327Y-142640302D01*
X155359699Y-142461673D01*
X155126310Y-142365000D01*
X153785750Y-142365000D01*
X153627000Y-142523750D01*
X153373000Y-142523750D01*
X153214250Y-142365000D01*
X151877000Y-142365000D01*
X151877000Y-129126301D01*
X151950242Y-129303560D01*
X152463736Y-129817952D01*
X153134993Y-130096682D01*
X153861818Y-130097316D01*
X154533560Y-129819758D01*
X155047952Y-129306264D01*
X155326682Y-128635007D01*
X155326684Y-128631818D01*
X158022684Y-128631818D01*
X158300242Y-129303560D01*
X158813736Y-129817952D01*
X159484993Y-130096682D01*
X160211818Y-130097316D01*
X160883560Y-129819758D01*
X161397952Y-129306264D01*
X161676682Y-128635007D01*
X161676684Y-128631818D01*
X164372684Y-128631818D01*
X164650242Y-129303560D01*
X165163736Y-129817952D01*
X165834993Y-130096682D01*
X166561818Y-130097316D01*
X167233560Y-129819758D01*
X167747952Y-129306264D01*
X168026682Y-128635007D01*
X168027316Y-127908182D01*
X167749758Y-127236440D01*
X167236264Y-126722048D01*
X166565007Y-126443318D01*
X165838182Y-126442684D01*
X165166440Y-126720242D01*
X164652048Y-127233736D01*
X164373318Y-127904993D01*
X164372684Y-128631818D01*
X161676684Y-128631818D01*
X161677316Y-127908182D01*
X161399758Y-127236440D01*
X160886264Y-126722048D01*
X160215007Y-126443318D01*
X159488182Y-126442684D01*
X158816440Y-126720242D01*
X158302048Y-127233736D01*
X158023318Y-127904993D01*
X158022684Y-128631818D01*
X155326684Y-128631818D01*
X155327316Y-127908182D01*
X155049758Y-127236440D01*
X154536264Y-126722048D01*
X153865007Y-126443318D01*
X153138182Y-126442684D01*
X152466440Y-126720242D01*
X151952048Y-127233736D01*
X151877000Y-127414472D01*
X151877000Y-125635000D01*
X153214250Y-125635000D01*
X153373000Y-125476250D01*
X153373000Y-123627000D01*
X153627000Y-123627000D01*
X153627000Y-125476250D01*
X153785750Y-125635000D01*
X155126310Y-125635000D01*
X155359699Y-125538327D01*
X155538327Y-125359698D01*
X155635000Y-125126309D01*
X155635000Y-123861818D01*
X158022684Y-123861818D01*
X158300242Y-124533560D01*
X158813736Y-125047952D01*
X159484993Y-125326682D01*
X160211818Y-125327316D01*
X160883560Y-125049758D01*
X161397952Y-124536264D01*
X161676682Y-123865007D01*
X161676684Y-123861818D01*
X164372684Y-123861818D01*
X164650242Y-124533560D01*
X165163736Y-125047952D01*
X165834993Y-125326682D01*
X166561818Y-125327316D01*
X167233560Y-125049758D01*
X167747952Y-124536264D01*
X167917893Y-124127000D01*
X179000000Y-124127000D01*
X179239943Y-124079272D01*
X179443356Y-123943356D01*
X189909712Y-113477000D01*
X211590288Y-113477000D01*
X211728399Y-113615111D01*
X211728366Y-113652788D01*
X211845572Y-113936449D01*
X212062410Y-114153665D01*
X212345866Y-114271366D01*
X212652788Y-114271634D01*
X212936449Y-114154428D01*
X213153665Y-113937590D01*
X213271366Y-113654134D01*
X213271634Y-113347212D01*
X213154428Y-113063551D01*
X212937590Y-112846335D01*
X212654134Y-112728634D01*
X212615312Y-112728600D01*
X212293356Y-112406644D01*
X212089943Y-112270728D01*
X211850000Y-112223000D01*
X189650000Y-112223000D01*
X189410057Y-112270728D01*
X189206644Y-112406644D01*
X178740288Y-122873000D01*
X167917745Y-122873000D01*
X167749758Y-122466440D01*
X167236264Y-121952048D01*
X166565007Y-121673318D01*
X165838182Y-121672684D01*
X165166440Y-121950242D01*
X164652048Y-122463736D01*
X164373318Y-123134993D01*
X164372684Y-123861818D01*
X161676684Y-123861818D01*
X161677316Y-123138182D01*
X161399758Y-122466440D01*
X160886264Y-121952048D01*
X160215007Y-121673318D01*
X159488182Y-121672684D01*
X158816440Y-121950242D01*
X158302048Y-122463736D01*
X158023318Y-123134993D01*
X158022684Y-123861818D01*
X155635000Y-123861818D01*
X155635000Y-123785750D01*
X155476250Y-123627000D01*
X153627000Y-123627000D01*
X153373000Y-123627000D01*
X153353000Y-123627000D01*
X153353000Y-123373000D01*
X153373000Y-123373000D01*
X153373000Y-121523750D01*
X153627000Y-121523750D01*
X153627000Y-123373000D01*
X155476250Y-123373000D01*
X155635000Y-123214250D01*
X155635000Y-121873691D01*
X155538327Y-121640302D01*
X155359699Y-121461673D01*
X155126310Y-121365000D01*
X153785750Y-121365000D01*
X153627000Y-121523750D01*
X153373000Y-121523750D01*
X153214250Y-121365000D01*
X151877000Y-121365000D01*
X151877000Y-108126301D01*
X151950242Y-108303560D01*
X152463736Y-108817952D01*
X153134993Y-109096682D01*
X153861818Y-109097316D01*
X154533560Y-108819758D01*
X155047952Y-108306264D01*
X155326682Y-107635007D01*
X155326684Y-107631818D01*
X158022684Y-107631818D01*
X158300242Y-108303560D01*
X158813736Y-108817952D01*
X159484993Y-109096682D01*
X160211818Y-109097316D01*
X160883560Y-108819758D01*
X161397952Y-108306264D01*
X161676682Y-107635007D01*
X161676684Y-107631818D01*
X164372684Y-107631818D01*
X164650242Y-108303560D01*
X165163736Y-108817952D01*
X165834993Y-109096682D01*
X166561818Y-109097316D01*
X167233560Y-108819758D01*
X167747952Y-108306264D01*
X168026682Y-107635007D01*
X168027316Y-106908182D01*
X167749758Y-106236440D01*
X167236264Y-105722048D01*
X166565007Y-105443318D01*
X165838182Y-105442684D01*
X165166440Y-105720242D01*
X164652048Y-106233736D01*
X164373318Y-106904993D01*
X164372684Y-107631818D01*
X161676684Y-107631818D01*
X161677316Y-106908182D01*
X161399758Y-106236440D01*
X160886264Y-105722048D01*
X160215007Y-105443318D01*
X159488182Y-105442684D01*
X158816440Y-105720242D01*
X158302048Y-106233736D01*
X158023318Y-106904993D01*
X158022684Y-107631818D01*
X155326684Y-107631818D01*
X155327316Y-106908182D01*
X155049758Y-106236440D01*
X154536264Y-105722048D01*
X153865007Y-105443318D01*
X153138182Y-105442684D01*
X152466440Y-105720242D01*
X151952048Y-106233736D01*
X151877000Y-106414472D01*
X151877000Y-104635000D01*
X153214250Y-104635000D01*
X153373000Y-104476250D01*
X153373000Y-102627000D01*
X153627000Y-102627000D01*
X153627000Y-104476250D01*
X153785750Y-104635000D01*
X155126310Y-104635000D01*
X155359699Y-104538327D01*
X155538327Y-104359698D01*
X155635000Y-104126309D01*
X155635000Y-102861818D01*
X158022684Y-102861818D01*
X158300242Y-103533560D01*
X158813736Y-104047952D01*
X159484993Y-104326682D01*
X160211818Y-104327316D01*
X160883560Y-104049758D01*
X161397952Y-103536264D01*
X161676682Y-102865007D01*
X161676684Y-102861818D01*
X164372684Y-102861818D01*
X164650242Y-103533560D01*
X165163736Y-104047952D01*
X165834993Y-104326682D01*
X166561818Y-104327316D01*
X167233560Y-104049758D01*
X167747952Y-103536264D01*
X167917893Y-103127000D01*
X173740288Y-103127000D01*
X182556644Y-111943356D01*
X182760057Y-112079272D01*
X183000000Y-112127000D01*
X214228389Y-112127000D01*
X214228366Y-112152788D01*
X214345572Y-112436449D01*
X214562410Y-112653665D01*
X214845866Y-112771366D01*
X215152788Y-112771634D01*
X215436449Y-112654428D01*
X215653665Y-112437590D01*
X215771366Y-112154134D01*
X215771634Y-111847212D01*
X215654428Y-111563551D01*
X215437590Y-111346335D01*
X215154134Y-111228634D01*
X215115312Y-111228600D01*
X214943356Y-111056644D01*
X214739943Y-110920728D01*
X214500000Y-110873000D01*
X212052608Y-110873000D01*
X211980215Y-110800607D01*
X212222397Y-110731143D01*
X212409144Y-110207698D01*
X212381362Y-109652632D01*
X212222397Y-109268857D01*
X211980213Y-109199392D01*
X211179605Y-110000000D01*
X211193748Y-110014143D01*
X211014143Y-110193748D01*
X211000000Y-110179605D01*
X210985858Y-110193748D01*
X210806253Y-110014143D01*
X210820395Y-110000000D01*
X210019787Y-109199392D01*
X209777603Y-109268857D01*
X209590856Y-109792302D01*
X209618638Y-110347368D01*
X209777603Y-110731143D01*
X210019785Y-110800607D01*
X209947392Y-110873000D01*
X183259712Y-110873000D01*
X182410883Y-110024171D01*
X194872891Y-110024171D01*
X194968145Y-110254703D01*
X195144369Y-110431235D01*
X195374735Y-110526891D01*
X195624171Y-110527109D01*
X195854703Y-110431855D01*
X196031235Y-110255631D01*
X196031344Y-110255368D01*
X197159712Y-109127000D01*
X203750000Y-109127000D01*
X203989943Y-109079272D01*
X204193356Y-108943356D01*
X204509712Y-108627000D01*
X210087170Y-108627000D01*
X210261861Y-108801995D01*
X210199392Y-109019787D01*
X211000000Y-109820395D01*
X211800608Y-109019787D01*
X211738115Y-108801909D01*
X211916646Y-108623689D01*
X212139943Y-108579272D01*
X212343356Y-108443356D01*
X213593356Y-107193356D01*
X213729273Y-106989942D01*
X213777000Y-106750000D01*
X213777000Y-94450000D01*
X213742708Y-94277603D01*
X213729273Y-94210058D01*
X213593356Y-94006644D01*
X212643356Y-93056644D01*
X212439943Y-92920728D01*
X212200000Y-92873000D01*
X211912830Y-92873000D01*
X211617674Y-92577329D01*
X211431482Y-92500015D01*
X211616063Y-92423748D01*
X211922671Y-92117674D01*
X212088811Y-91717566D01*
X212089189Y-91284335D01*
X211923748Y-90883937D01*
X211617674Y-90577329D01*
X211431482Y-90500015D01*
X211616063Y-90423748D01*
X211922671Y-90117674D01*
X212088811Y-89717566D01*
X212089189Y-89284335D01*
X211923748Y-88883937D01*
X211617674Y-88577329D01*
X211217566Y-88411189D01*
X210784335Y-88410811D01*
X210383937Y-88576252D01*
X210077329Y-88882326D01*
X209911189Y-89282434D01*
X209910811Y-89715665D01*
X210076252Y-90116063D01*
X210382326Y-90422671D01*
X210568518Y-90499985D01*
X210383937Y-90576252D01*
X210077329Y-90882326D01*
X209911189Y-91282434D01*
X209910811Y-91715665D01*
X210076252Y-92116063D01*
X210382326Y-92422671D01*
X210568518Y-92499985D01*
X210383937Y-92576252D01*
X210077329Y-92882326D01*
X209911189Y-93282434D01*
X209910811Y-93715665D01*
X210076252Y-94116063D01*
X210261861Y-94301995D01*
X210199392Y-94519787D01*
X211000000Y-95320395D01*
X211800608Y-94519787D01*
X211738115Y-94301909D01*
X211913329Y-94127000D01*
X211940288Y-94127000D01*
X212523000Y-94709712D01*
X212523000Y-106490288D01*
X211776678Y-107236610D01*
X211617674Y-107077329D01*
X211431482Y-107000015D01*
X211616063Y-106923748D01*
X211922671Y-106617674D01*
X212088811Y-106217566D01*
X212089189Y-105784335D01*
X211923748Y-105383937D01*
X211617674Y-105077329D01*
X211431482Y-105000015D01*
X211616063Y-104923748D01*
X211922671Y-104617674D01*
X212088811Y-104217566D01*
X212089189Y-103784335D01*
X211923748Y-103383937D01*
X211617674Y-103077329D01*
X211217566Y-102911189D01*
X210784335Y-102910811D01*
X210383937Y-103076252D01*
X210077329Y-103382326D01*
X209911189Y-103782434D01*
X209910811Y-104215665D01*
X210076252Y-104616063D01*
X210382326Y-104922671D01*
X210568518Y-104999985D01*
X210383937Y-105076252D01*
X210077329Y-105382326D01*
X209911189Y-105782434D01*
X209910811Y-106215665D01*
X210076252Y-106616063D01*
X210382326Y-106922671D01*
X210568518Y-106999985D01*
X210383937Y-107076252D01*
X210086671Y-107373000D01*
X204250000Y-107373000D01*
X204010058Y-107420727D01*
X203806644Y-107556644D01*
X203490288Y-107873000D01*
X196900000Y-107873000D01*
X196660057Y-107920728D01*
X196541418Y-108000000D01*
X196456644Y-108056644D01*
X195057031Y-109456257D01*
X194968765Y-109544369D01*
X194873109Y-109774735D01*
X194872891Y-110024171D01*
X182410883Y-110024171D01*
X174443356Y-102056644D01*
X174239943Y-101920728D01*
X174000000Y-101873000D01*
X167917745Y-101873000D01*
X167749758Y-101466440D01*
X167236264Y-100952048D01*
X166565007Y-100673318D01*
X165838182Y-100672684D01*
X165166440Y-100950242D01*
X164652048Y-101463736D01*
X164373318Y-102134993D01*
X164372684Y-102861818D01*
X161676684Y-102861818D01*
X161677316Y-102138182D01*
X161399758Y-101466440D01*
X160886264Y-100952048D01*
X160215007Y-100673318D01*
X159488182Y-100672684D01*
X158816440Y-100950242D01*
X158302048Y-101463736D01*
X158023318Y-102134993D01*
X158022684Y-102861818D01*
X155635000Y-102861818D01*
X155635000Y-102785750D01*
X155476250Y-102627000D01*
X153627000Y-102627000D01*
X153373000Y-102627000D01*
X153353000Y-102627000D01*
X153353000Y-102373000D01*
X153373000Y-102373000D01*
X153373000Y-100523750D01*
X153627000Y-100523750D01*
X153627000Y-102373000D01*
X155476250Y-102373000D01*
X155635000Y-102214250D01*
X155635000Y-100873691D01*
X155538327Y-100640302D01*
X155359699Y-100461673D01*
X155126310Y-100365000D01*
X153785750Y-100365000D01*
X153627000Y-100523750D01*
X153373000Y-100523750D01*
X153214250Y-100365000D01*
X151877000Y-100365000D01*
X151877000Y-96480213D01*
X210199392Y-96480213D01*
X210268857Y-96722397D01*
X210792302Y-96909144D01*
X211347368Y-96881362D01*
X211731143Y-96722397D01*
X211800608Y-96480213D01*
X211000000Y-95679605D01*
X210199392Y-96480213D01*
X151877000Y-96480213D01*
X151877000Y-95292302D01*
X209590856Y-95292302D01*
X209618638Y-95847368D01*
X209777603Y-96231143D01*
X210019787Y-96300608D01*
X210820395Y-95500000D01*
X211179605Y-95500000D01*
X211980213Y-96300608D01*
X212222397Y-96231143D01*
X212409144Y-95707698D01*
X212381362Y-95152632D01*
X212222397Y-94768857D01*
X211980213Y-94699392D01*
X211179605Y-95500000D01*
X210820395Y-95500000D01*
X210019787Y-94699392D01*
X209777603Y-94768857D01*
X209590856Y-95292302D01*
X151877000Y-95292302D01*
X151877000Y-87126301D01*
X151950242Y-87303560D01*
X152463736Y-87817952D01*
X153134993Y-88096682D01*
X153861818Y-88097316D01*
X154533560Y-87819758D01*
X155047952Y-87306264D01*
X155326682Y-86635007D01*
X155326684Y-86631818D01*
X158022684Y-86631818D01*
X158300242Y-87303560D01*
X158813736Y-87817952D01*
X159484993Y-88096682D01*
X160211818Y-88097316D01*
X160883560Y-87819758D01*
X161397952Y-87306264D01*
X161676682Y-86635007D01*
X161676684Y-86631818D01*
X164372684Y-86631818D01*
X164650242Y-87303560D01*
X165163736Y-87817952D01*
X165834993Y-88096682D01*
X166561818Y-88097316D01*
X167233560Y-87819758D01*
X167747952Y-87306264D01*
X168026682Y-86635007D01*
X168027316Y-85908182D01*
X167749758Y-85236440D01*
X167236264Y-84722048D01*
X166565007Y-84443318D01*
X165838182Y-84442684D01*
X165166440Y-84720242D01*
X164652048Y-85233736D01*
X164373318Y-85904993D01*
X164372684Y-86631818D01*
X161676684Y-86631818D01*
X161677316Y-85908182D01*
X161399758Y-85236440D01*
X160886264Y-84722048D01*
X160215007Y-84443318D01*
X159488182Y-84442684D01*
X158816440Y-84720242D01*
X158302048Y-85233736D01*
X158023318Y-85904993D01*
X158022684Y-86631818D01*
X155326684Y-86631818D01*
X155327316Y-85908182D01*
X155049758Y-85236440D01*
X154536264Y-84722048D01*
X153865007Y-84443318D01*
X153138182Y-84442684D01*
X152466440Y-84720242D01*
X151952048Y-85233736D01*
X151877000Y-85414472D01*
X151877000Y-81537131D01*
X151877819Y-81533014D01*
X152271639Y-82486132D01*
X153009981Y-83225764D01*
X153975165Y-83626543D01*
X155020250Y-83627455D01*
X155986132Y-83228361D01*
X156725764Y-82490019D01*
X157126543Y-81524835D01*
X157127455Y-80479750D01*
X156728361Y-79513868D01*
X156092604Y-78877000D01*
X212908323Y-78877000D01*
X212274236Y-79509981D01*
M02*
